<?xml version="1.0" encoding="utf-8"?>
<!-- Generator: Adobe Illustrator 17.0.2, SVG Export Plug-In . SVG Version: 6.00 Build 0)  -->
<!DOCTYPE svg PUBLIC "-//W3C//DTD SVG 1.1//EN" "http://www.w3.org/Graphics/SVG/1.1/DTD/svg11.dtd">
<svg version="1.1" id="Layer_1" xmlns="http://www.w3.org/2000/svg" xmlns:xlink="http://www.w3.org/1999/xlink" x="0px" y="0px"
	 width="461.241px" height="765.829px" viewBox="-20 -21 461.241 765.829" style="enable-background:new -20 -21 461.241 765.829;"
	 xml:space="preserve">
<style type="text/css">
	.st0{stroke:#FFFFFF;stroke-width:40;stroke-miterlimit:10;}
	.st1{fill:#FFFFFF;stroke:#FFFFFF;stroke-width:40;stroke-miterlimit:10;}
	.st2{fill:#FFFFFF;}
</style>
<g>
	<path class="st0" d="M155.71,543.191c-34.271,0-46.245-12.379-53.383-55.188c-6.869-41.209-17.698-88.867-66.956-177.6
		C17.539,278.231,8.499,244.326,8.499,209.626C8.499,98.173,99.168,7.501,210.615,7.501c111.453,0,202.125,90.673,202.125,202.125
		c0,34.726-9.044,68.631-26.88,100.775c-49.256,88.754-60.081,136.403-66.947,177.601c-7.149,42.812-19.128,55.189-53.401,55.189
		L155.71,543.191L155.71,543.191z"/>
	<path class="st1" d="M210.616,16c106.936,0,193.625,86.68,193.625,193.625c0,35.203-9.879,67.936-25.812,96.651
		c-47.542,85.667-60.14,133.771-67.899,180.327c-6.515,39.009-15.518,48.086-45.017,48.086c-12.515,0-33.047,0-54.896,0
		c-21.85,0-42.373,0-54.905,0c-29.48,0-38.493-9.068-44.999-48.086c-7.76-46.547-20.348-94.652-67.908-180.328
		c-15.915-28.715-25.803-61.448-25.803-96.651C17,102.681,103.689,16,210.616,16 M210.616-1c-28.425,0-56.008,5.571-81.984,16.558
		C103.55,26.167,81.027,41.35,61.69,60.688c-19.338,19.338-34.522,41.861-45.131,66.944C5.571,153.611,0,181.197,0,209.626
		c0,36.158,9.398,71.449,27.934,104.892C76.54,402.078,87.195,448.922,93.943,489.4c3.427,20.55,7.849,36.5,18.297,47.556
		c12.271,12.984,28.86,14.735,43.471,14.735h54.905h54.896c14.615,0,31.21-1.751,43.483-14.738
		c10.445-11.052,14.87-27.001,18.302-47.547c6.745-40.472,17.397-87.307,65.996-174.878c18.545-33.422,27.948-68.715,27.948-104.901
		c0-28.429-5.571-56.015-16.559-81.994c-10.609-25.083-25.794-47.607-45.132-66.945c-19.338-19.337-41.861-34.521-66.945-45.13
		C266.628,4.571,239.043-1,210.616-1L210.616-1z"/>
</g>
<g>
	<path class="st0" d="M141.436,584.881c-10.409,0-18.877-8.468-18.877-18.877v-6.921c0-10.408,8.468-18.876,18.877-18.876h138.37
		c10.408,0,18.876,8.468,18.876,18.876v6.921c0,10.409-8.468,18.877-18.876,18.877H141.436z"/>
	<path class="st1" d="M279.805,548.707c5.723,0,10.376,4.635,10.376,10.376v6.921c0,5.732-4.654,10.377-10.376,10.377h-138.37
		c-5.723,0-10.377-4.645-10.377-10.377v-6.921c0-5.741,4.654-10.376,10.377-10.376H279.805 M279.805,531.707h-138.37
		c-15.096,0-27.377,12.281-27.377,27.376v6.921c0,15.095,12.281,27.377,27.377,27.377h138.37c15.095,0,27.376-12.281,27.376-27.377
		v-6.921C307.182,543.988,294.901,531.707,279.805,531.707L279.805,531.707z"/>
</g>
<g>
	<path class="st0" d="M141.436,626.387c-10.409,0-18.877-8.468-18.877-18.877v-6.911c0-10.414,8.468-18.886,18.877-18.886h138.37
		c10.408,0,18.876,8.472,18.876,18.886v6.911c0,10.409-8.468,18.877-18.876,18.877H141.436z"/>
	<path class="st1" d="M279.805,590.213c5.723,0,10.376,4.645,10.376,10.386v6.912c0,5.741-4.654,10.377-10.376,10.377h-138.37
		c-5.723,0-10.377-4.635-10.377-10.377v-6.912c0-5.741,4.654-10.386,10.377-10.386H279.805 M279.805,573.213h-138.37
		c-15.096,0-27.377,12.285-27.377,27.386v6.912c0,15.095,12.281,27.377,27.377,27.377h138.37c15.095,0,27.376-12.281,27.376-27.377
		v-6.912C307.182,585.499,294.901,573.213,279.805,573.213L279.805,573.213z"/>
</g>
<g>
	<path class="st0" d="M141.436,667.903c-10.409,0-18.877-8.468-18.877-18.877v-6.92c0-10.409,8.468-18.877,18.877-18.877h138.37
		c10.408,0,18.876,8.468,18.876,18.877v6.92c0,10.409-8.468,18.877-18.876,18.877H141.436z"/>
	<path class="st1" d="M279.805,631.729c5.723,0,10.376,4.635,10.376,10.377v6.921c0,5.732-4.654,10.376-10.376,10.376h-138.37
		c-5.723,0-10.377-4.645-10.377-10.376v-6.921c0-5.741,4.654-10.377,10.377-10.377H279.805 M279.805,614.729h-138.37
		c-15.096,0-27.377,12.281-27.377,27.377v6.921c0,15.095,12.281,27.376,27.377,27.376h138.37c15.095,0,27.376-12.281,27.376-27.376
		v-6.921C307.182,627.01,294.901,614.729,279.805,614.729L279.805,614.729z"/>
</g>
<g>
	<path class="st0" d="M210.616,716.33c-29.161,0-60.383-17.316-60.383-43.095c0-4.694,3.806-8.5,8.5-8.5h103.775
		c4.694,0,8.5,3.806,8.5,8.5C271.008,699.013,239.781,716.33,210.616,716.33z"/>
	<path class="st1" d="M262.508,673.235c0,20.762-27.674,34.595-51.892,34.595c-24.209,0-51.883-13.832-51.883-34.595H262.508
		 M262.508,656.235H158.733c-9.389,0-17,7.611-17,17c0,15.717,8.887,29.782,25.024,39.604c12.518,7.62,28.504,11.99,43.859,11.99
		c15.359,0,31.347-4.37,43.866-11.99c16.138-9.822,25.026-23.887,25.026-39.605C279.508,663.846,271.897,656.235,262.508,656.235
		L262.508,656.235z"/>
</g>
<g>
	<path d="M155.71,544.191c-34.271,0-46.245-12.379-53.383-55.188c-6.869-41.209-17.698-88.867-66.956-177.6
		C17.539,279.231,8.499,245.326,8.499,210.626C8.499,99.173,99.168,8.501,210.615,8.501c111.453,0,202.125,90.673,202.125,202.125
		c0,34.726-9.044,68.631-26.88,100.775c-49.256,88.754-60.081,136.403-66.947,177.601c-7.149,42.812-19.128,55.189-53.401,55.189
		L155.71,544.191L155.71,544.191z"/>
	<path class="st2" d="M210.616,17c106.936,0,193.625,86.68,193.625,193.625c0,35.203-9.879,67.936-25.812,96.651
		c-47.542,85.667-60.14,133.771-67.899,180.327c-6.515,39.009-15.518,48.086-45.017,48.086c-12.515,0-33.047,0-54.896,0
		c-21.85,0-42.373,0-54.905,0c-29.48,0-38.493-9.068-44.999-48.086c-7.76-46.547-20.348-94.652-67.908-180.328
		c-15.915-28.715-25.803-61.448-25.803-96.651C17,103.681,103.689,17,210.616,17 M210.616,0c-28.425,0-56.008,5.571-81.984,16.558
		C103.55,27.167,81.027,42.35,61.69,61.688c-19.338,19.338-34.522,41.861-45.131,66.944C5.571,154.611,0,182.197,0,210.626
		c0,36.158,9.398,71.449,27.934,104.892C76.54,403.078,87.195,449.922,93.943,490.4c3.427,20.55,7.849,36.5,18.297,47.556
		c12.271,12.984,28.86,14.735,43.471,14.735h54.905h54.896c14.615,0,31.21-1.751,43.483-14.738
		c10.445-11.052,14.87-27.001,18.302-47.547c6.745-40.472,17.397-87.307,65.996-174.878c18.545-33.422,27.948-68.715,27.948-104.901
		c0-28.429-5.571-56.015-16.559-81.994c-10.609-25.083-25.794-47.607-45.132-66.945c-19.338-19.337-41.861-34.521-66.945-45.13
		C266.628,5.571,239.043,0,210.616,0L210.616,0z"/>
</g>
<g>
	<path d="M141.436,585.881c-10.409,0-18.877-8.468-18.877-18.877v-6.921c0-10.408,8.468-18.876,18.877-18.876h138.37
		c10.408,0,18.876,8.468,18.876,18.876v6.921c0,10.409-8.468,18.877-18.876,18.877H141.436z"/>
	<path class="st2" d="M279.805,549.707c5.723,0,10.376,4.635,10.376,10.376v6.921c0,5.732-4.654,10.377-10.376,10.377h-138.37
		c-5.723,0-10.377-4.645-10.377-10.377v-6.921c0-5.741,4.654-10.376,10.377-10.376H279.805 M279.805,532.707h-138.37
		c-15.096,0-27.377,12.281-27.377,27.376v6.921c0,15.095,12.281,27.377,27.377,27.377h138.37c15.095,0,27.376-12.281,27.376-27.377
		v-6.921C307.182,544.988,294.901,532.707,279.805,532.707L279.805,532.707z"/>
</g>
<g>
	<path d="M141.436,627.387c-10.409,0-18.877-8.468-18.877-18.877v-6.911c0-10.414,8.468-18.886,18.877-18.886h138.37
		c10.408,0,18.876,8.472,18.876,18.886v6.911c0,10.409-8.468,18.877-18.876,18.877H141.436z"/>
	<path class="st2" d="M279.805,591.213c5.723,0,10.376,4.645,10.376,10.386v6.912c0,5.741-4.654,10.377-10.376,10.377h-138.37
		c-5.723,0-10.377-4.635-10.377-10.377v-6.912c0-5.741,4.654-10.386,10.377-10.386H279.805 M279.805,574.213h-138.37
		c-15.096,0-27.377,12.285-27.377,27.386v6.912c0,15.095,12.281,27.377,27.377,27.377h138.37c15.095,0,27.376-12.281,27.376-27.377
		v-6.912C307.182,586.499,294.901,574.213,279.805,574.213L279.805,574.213z"/>
</g>
<g>
	<path d="M141.436,668.903c-10.409,0-18.877-8.468-18.877-18.877v-6.92c0-10.409,8.468-18.877,18.877-18.877h138.37
		c10.408,0,18.876,8.468,18.876,18.877v6.92c0,10.409-8.468,18.877-18.876,18.877H141.436z"/>
	<path class="st2" d="M279.805,632.729c5.723,0,10.376,4.635,10.376,10.377v6.921c0,5.732-4.654,10.376-10.376,10.376h-138.37
		c-5.723,0-10.377-4.645-10.377-10.376v-6.921c0-5.741,4.654-10.377,10.377-10.377H279.805 M279.805,615.729h-138.37
		c-15.096,0-27.377,12.281-27.377,27.377v6.921c0,15.095,12.281,27.376,27.377,27.376h138.37c15.095,0,27.376-12.281,27.376-27.376
		v-6.921C307.182,628.01,294.901,615.729,279.805,615.729L279.805,615.729z"/>
</g>
<g>
	<path d="M210.616,717.33c-29.161,0-60.383-17.316-60.383-43.095c0-4.694,3.806-8.5,8.5-8.5h103.775c4.694,0,8.5,3.806,8.5,8.5
		C271.008,700.013,239.781,717.33,210.616,717.33z"/>
	<path class="st2" d="M262.508,674.235c0,20.762-27.674,34.595-51.892,34.595c-24.209,0-51.883-13.832-51.883-34.595H262.508
		 M262.508,657.235H158.733c-9.389,0-17,7.611-17,17c0,15.717,8.887,29.782,25.024,39.604c12.518,7.62,28.504,11.99,43.859,11.99
		c15.359,0,31.347-4.37,43.866-11.99c16.138-9.822,25.026-23.887,25.026-39.605C279.508,664.846,271.897,657.235,262.508,657.235
		L262.508,657.235z"/>
</g>
</svg>
