<?xml version="1.0" encoding="utf-8"?>
<!-- Generator: Adobe Illustrator 19.2.0, SVG Export Plug-In . SVG Version: 6.00 Build 0)  -->
<svg version="1.1" id="Calque_1" xmlns="http://www.w3.org/2000/svg" xmlns:xlink="http://www.w3.org/1999/xlink" x="0px" y="0px"
	 viewBox="0 0 674.964 704.329" style="enable-background:new 0 0 674.964 704.329;" xml:space="preserve">
<style type="text/css">
	.st0{fill:#FFFFFF;}
	.st1{fill:#3D3D3D;}
</style>
<g>
	<path class="st0" d="M638.246,583.352h-2.961V184.968c0-12.37-6.666-23.779-17.447-29.851c-10.764-6.072-23.996-5.863-34.56,0.552
		l-153.772,93.158V34.258c0-11.425-5.696-22.089-15.181-28.454c-9.493-6.357-21.529-7.578-32.084-3.237L60.932,134.441
		c-12.855,5.278-21.253,17.799-21.253,31.691v417.22h-2.961c-18.919,0-34.259,15.339-34.259,34.259v52.459
		c0,18.919,15.34,34.259,34.259,34.259h601.528c18.919,0,34.259-15.339,34.259-34.259v-52.459
		C672.505,598.692,657.165,583.352,638.246,583.352z"/>
	<path class="st1" d="M598.558,615.121V186.536L394.703,310.028V37.237L76.41,167.873v447.248H39.54v51.969h595.882v-51.969H598.558
		z M522.172,331.014h49.413v28.623h-49.413V331.014z M522.172,403.913h49.413v28.613h-49.413V403.913z M522.172,476.823h49.413
		v28.621h-49.413V476.823z M522.172,549.74h49.413v28.613h-49.413V549.74z M409.934,331.014h58.953v28.623h-58.953V331.014z
		 M409.934,403.913h58.953v28.613h-58.953V403.913z M409.934,476.823h58.953v28.621h-58.953V476.823z M409.934,549.74h58.953v28.613
		h-58.953V549.74z M318.318,181.715h49.412v28.623h-49.412V181.715z M318.318,254.615h49.412v28.613h-49.412V254.615z
		 M318.318,327.524h49.412v28.621h-49.412V327.524z M318.318,400.441h49.412v28.613h-49.412V400.441z M318.318,473.331h49.412
		v28.623h-49.412V473.331z M318.318,546.241h49.412v28.622h-49.412V546.241z M206.079,181.715h58.953v28.623h-58.953V181.715z
		 M206.079,254.615h58.953v28.613h-58.953V254.615z M206.079,327.524h58.953v28.621h-58.953V327.524z M206.079,400.441h58.953
		v28.613h-58.953V400.441z M206.079,473.331h58.953v28.623h-58.953V473.331z M206.079,546.241h58.953v28.622h-58.953V546.241z
		 M103.382,181.715h49.412v28.623h-49.412V181.715z M103.382,254.615h49.412v28.613h-49.412V254.615z M103.382,327.524h49.412
		v28.621h-49.412V327.524z M103.382,400.441h49.412v28.613h-49.412V400.441z M103.382,473.331h49.412v28.623h-49.412V473.331z
		 M103.382,546.241h49.412v28.622h-49.412V546.241z"/>
</g>
</svg>
