<?xml version="1.0" encoding="utf-8"?>
<!-- Generator: Adobe Illustrator 17.0.2, SVG Export Plug-In . SVG Version: 6.00 Build 0)  -->
<!DOCTYPE svg PUBLIC "-//W3C//DTD SVG 1.1//EN" "http://www.w3.org/Graphics/SVG/1.1/DTD/svg11.dtd">
<svg version="1.1" id="Layer_1" xmlns="http://www.w3.org/2000/svg" xmlns:xlink="http://www.w3.org/1999/xlink" x="0px" y="0px"
	 width="683.14px" height="560.134px" viewBox="48.919 25.619 683.14 560.134"
	 style="enable-background:new 48.919 25.619 683.14 560.134;" xml:space="preserve">
<style type="text/css">
	.st0{fill:url(#SVGID_1_);stroke:#FFFFFF;stroke-width:40;stroke-miterlimit:10;}
	.st1{fill:#FFFFFF;stroke:#FFFFFF;stroke-width:40;stroke-miterlimit:10;}
	.st2{fill:url(#SVGID_2_);}
	.st3{fill:#FFFFFF;}
</style>
<g>
	
		<linearGradient id="SVGID_1_" gradientUnits="userSpaceOnUse" x1="390.4841" y1="376.1458" x2="390.4841" y2="-126.9862" gradientTransform="matrix(1 0 0 -1 0 430.2678)">
		<stop  offset="0" style="stop-color:#FFC708"/>
		<stop  offset="1" style="stop-color:#C62542"/>
	</linearGradient>
	<path class="st0" d="M384.137,557.254c-1.847,0-3.655-0.603-5.143-1.732c-26.149-19.868-45.417-43.54-57.267-70.358
		c-10.359-23.442-15.083-49.295-14.04-76.839c2.318-61.217,31.401-110.634,43.798-129.04c17.825-26.443,27.529-51.506,28.844-74.495
		c1.685-29.438-10.831-55.503-37.199-77.473c-3.606-3.004-4.094-8.364-1.09-11.971l48.429-58.14c1.681-2.018,4.1-3.06,6.536-3.06
		c1.918,0,3.846,0.645,5.435,1.968c41.52,34.579,65.805,78.246,70.229,126.282c4.396,47.72-10.933,99.135-44.329,148.687
		c-3.178,4.714-19.338,29.781-25.475,60.353c-7.606,37.896,3.226,68.274,32.195,90.291c3.736,2.84,4.464,8.172,1.625,11.909
		l-45.78,60.26c-1.364,1.796-3.385,2.976-5.619,3.28C384.903,557.229,384.519,557.254,384.137,557.254z M154.022,557.229
		c-1.847,0-3.655-0.602-5.143-1.732c-26.148-19.868-45.417-43.539-57.271-70.356c-10.362-23.442-15.089-49.294-14.049-76.836
		c2.311-61.228,31.391-110.625,43.786-129.021c17.824-26.441,27.528-51.504,28.844-74.494c1.685-29.438-10.832-55.503-37.2-77.473
		c-3.606-3.004-4.094-8.364-1.09-11.971l48.43-58.14c1.681-2.018,4.1-3.06,6.535-3.06c1.918,0,3.846,0.645,5.435,1.968
		c41.521,34.579,65.805,78.246,70.227,126.28c4.393,47.72-10.944,99.128-44.354,148.667c-3.175,4.712-19.335,29.781-25.468,60.35
		c-7.603,37.896,3.236,68.274,32.215,90.291c3.737,2.84,4.466,8.171,1.627,11.909l-45.755,60.259
		c-1.364,1.796-3.385,2.976-5.619,3.281C154.789,557.203,154.405,557.229,154.022,557.229z M614.325,557.229
		c-1.847,0-3.655-0.602-5.143-1.732c-26.148-19.868-45.417-43.54-57.27-70.357c-10.361-23.442-15.089-49.295-14.049-76.838
		c2.311-61.225,31.39-110.639,43.785-129.042c17.816-26.452,27.517-51.516,28.832-74.494c1.685-29.439-10.834-55.505-37.21-77.473
		c-1.732-1.443-2.82-3.515-3.025-5.76s0.491-4.479,1.934-6.211l48.429-58.14c1.443-1.732,3.516-2.82,5.761-3.025
		c0.257-0.023,0.515-0.035,0.771-0.035c1.98,0,3.907,0.692,5.44,1.969c41.519,34.59,65.804,78.261,70.232,126.291
		c4.398,47.712-10.923,99.124-44.307,148.677c-3.185,4.709-19.339,29.686-25.495,60.354c-7.606,37.894,3.231,68.272,32.213,90.29
		c3.738,2.84,4.467,8.171,1.628,11.909l-45.757,60.259c-1.363,1.796-3.385,2.976-5.619,3.281
		C615.093,557.203,614.708,557.229,614.325,557.229z"/>
	<path class="st1" d="M627.139,62.619c81.019,67.499,90.099,166.047,24.316,263.688c-7.113,10.518-67.171,104.577,8.627,162.162
		l-45.757,60.259c-106.493-80.918-66.211-204.463-25.626-264.722c30.495-45.276,53.549-110.328-9.989-163.247L627.139,62.619
		 M397,62.646c81.017,67.473,90.098,166.046,24.29,263.687c-7.088,10.518-67.145,104.577,8.627,162.162l-45.781,60.259
		c-106.495-80.917-66.187-204.463-25.602-264.721c30.52-45.277,53.549-110.329-9.964-163.247L397,62.646 M166.86,62.646
		c81.019,67.473,90.098,166.046,24.265,263.662c-7.088,10.518-67.145,104.577,8.652,162.162l-45.756,60.259
		C47.528,467.811,87.81,344.266,128.395,284.033c30.521-45.277,53.549-110.329-9.964-163.247L166.86,62.646 M627.14,45.619
		c-0.513,0-1.027,0.023-1.543,0.07c-4.49,0.409-8.634,2.585-11.52,6.05l-48.429,58.14c-2.886,3.464-4.277,7.933-3.868,12.423
		s2.586,8.634,6.05,11.52c24.533,20.433,35.708,43.479,34.164,70.456c-1.227,21.434-10.444,45.063-27.396,70.232
		c-11.917,17.695-22.275,38.113-29.954,59.049c-9.221,25.141-14.36,50.18-15.275,74.421c-1.089,28.845,3.88,55.961,14.768,80.596
		c12.441,28.148,32.595,52.94,59.902,73.689c2.974,2.26,6.591,3.464,10.285,3.464c0.766,0,1.534-0.052,2.302-0.157
		c4.468-0.611,8.511-2.971,11.238-6.563l45.757-60.259c5.677-7.476,4.22-18.138-3.255-23.817
		c-14.601-11.093-23.849-23.954-28.273-39.319c-3.63-12.609-3.882-26.918-0.748-42.53c5.959-29.689,22.344-54.519,24.193-57.253
		c17.237-25.584,29.868-51.68,37.561-77.586c7.719-25.995,10.47-51.783,8.178-76.646c-4.639-50.32-29.971-95.979-73.255-132.041
		C634.954,47.003,631.099,45.619,627.14,45.619L627.14,45.619z M397.01,45.645c-4.872,0-9.709,2.084-13.071,6.12l-48.43,58.14
		c-6.009,7.213-5.033,17.932,2.18,23.941c24.526,20.435,35.698,43.481,34.154,70.457c-1.227,21.443-10.448,45.071-27.405,70.227
		c-11.921,17.7-22.28,38.118-29.961,59.052c-9.224,25.142-14.366,50.18-15.284,74.42c-1.092,28.846,3.873,55.962,14.759,80.597
		c12.439,28.148,32.592,52.941,59.9,73.69c2.974,2.26,6.591,3.464,10.284,3.464c0.765,0,1.533-0.052,2.3-0.156
		c4.467-0.61,8.51-2.969,11.237-6.56l45.781-60.259c5.679-7.475,4.224-18.139-3.25-23.819
		c-14.595-11.092-23.839-23.953-28.26-39.318c-3.628-12.61-3.878-26.92-0.745-42.533c5.818-28.984,21.171-52.797,24.189-57.276
		c17.226-25.558,29.862-51.655,37.559-77.565c7.723-25.997,10.477-51.786,8.186-76.652c-4.636-50.327-29.967-95.984-73.254-132.034
		C404.702,46.936,400.845,45.645,397.01,45.645L397.01,45.645z M166.869,45.645c-4.872,0-9.709,2.084-13.071,6.12l-48.429,58.14
		c-6.009,7.213-5.033,17.932,2.18,23.941c24.526,20.435,35.698,43.482,34.155,70.457c-1.227,21.443-10.448,45.071-27.405,70.227
		c-11.919,17.69-22.278,38.104-29.957,59.038c-9.221,25.138-14.361,50.174-15.276,74.414c-1.089,28.844,3.88,55.959,14.769,80.593
		c12.441,28.148,32.595,52.94,59.902,73.689c2.974,2.26,6.592,3.464,10.285,3.464c0.766,0,1.534-0.052,2.302-0.157
		c4.468-0.611,8.511-2.971,11.238-6.563l45.756-60.259c5.677-7.476,4.219-18.138-3.255-23.817
		c-14.601-11.093-23.849-23.954-28.273-39.32c-3.63-12.609-3.883-26.919-0.751-42.531c5.815-28.982,21.167-52.795,24.186-57.275
		c17.23-25.548,29.872-51.64,37.573-77.547c7.727-25.994,10.484-51.781,8.195-76.646c-4.633-50.325-29.962-95.981-73.251-132.032
		C174.562,46.937,170.704,45.645,166.869,45.645L166.869,45.645z"/>
</g>
<g>
	
		<linearGradient id="SVGID_2_" gradientUnits="userSpaceOnUse" x1="390.4841" y1="376.1458" x2="390.4841" y2="-126.9862" gradientTransform="matrix(1 0 0 -1 0 430.2678)">
		<stop  offset="0" style="stop-color:#FFC708"/>
		<stop  offset="1" style="stop-color:#C62542"/>
	</linearGradient>
	<path class="st2" d="M384.137,557.254c-1.847,0-3.655-0.603-5.143-1.732c-26.149-19.868-45.417-43.54-57.267-70.358
		c-10.359-23.442-15.083-49.295-14.04-76.839c2.318-61.217,31.401-110.634,43.798-129.04c17.825-26.443,27.529-51.506,28.844-74.495
		c1.685-29.438-10.831-55.503-37.199-77.473c-3.606-3.004-4.094-8.364-1.09-11.971l48.429-58.14c1.681-2.018,4.1-3.06,6.536-3.06
		c1.918,0,3.846,0.645,5.435,1.968c41.52,34.579,65.805,78.246,70.229,126.282c4.396,47.72-10.933,99.135-44.329,148.687
		c-3.178,4.714-19.338,29.781-25.475,60.353c-7.606,37.896,3.226,68.274,32.195,90.291c3.736,2.84,4.464,8.172,1.625,11.909
		l-45.78,60.26c-1.364,1.796-3.385,2.976-5.619,3.28C384.903,557.229,384.519,557.254,384.137,557.254z M154.022,557.229
		c-1.847,0-3.655-0.602-5.143-1.732c-26.148-19.868-45.417-43.539-57.271-70.356c-10.362-23.442-15.089-49.294-14.049-76.836
		c2.311-61.228,31.391-110.625,43.786-129.021c17.824-26.441,27.528-51.504,28.844-74.494c1.685-29.438-10.832-55.503-37.2-77.473
		c-3.606-3.004-4.094-8.364-1.09-11.971l48.43-58.14c1.681-2.018,4.1-3.06,6.535-3.06c1.918,0,3.846,0.645,5.435,1.968
		c41.521,34.579,65.805,78.246,70.227,126.28c4.393,47.72-10.944,99.128-44.354,148.667c-3.175,4.712-19.335,29.781-25.468,60.35
		c-7.603,37.896,3.236,68.274,32.215,90.291c3.737,2.84,4.466,8.171,1.627,11.909l-45.755,60.259
		c-1.364,1.796-3.385,2.976-5.619,3.281C154.789,557.203,154.405,557.229,154.022,557.229z M614.325,557.229
		c-1.847,0-3.655-0.602-5.143-1.732c-26.148-19.868-45.417-43.54-57.27-70.357c-10.361-23.442-15.089-49.295-14.049-76.838
		c2.311-61.225,31.39-110.639,43.785-129.042c17.816-26.452,27.517-51.516,28.832-74.494c1.685-29.439-10.834-55.505-37.21-77.473
		c-1.732-1.443-2.82-3.515-3.025-5.76s0.491-4.479,1.934-6.211l48.429-58.14c1.443-1.732,3.516-2.82,5.761-3.025
		c0.257-0.023,0.515-0.035,0.771-0.035c1.98,0,3.907,0.692,5.44,1.969c41.519,34.59,65.804,78.261,70.232,126.291
		c4.398,47.712-10.923,99.124-44.307,148.677c-3.185,4.709-19.339,29.686-25.495,60.354c-7.606,37.894,3.231,68.272,32.213,90.29
		c3.738,2.84,4.467,8.171,1.628,11.909l-45.757,60.259c-1.363,1.796-3.385,2.976-5.619,3.281
		C615.093,557.203,614.708,557.229,614.325,557.229z"/>
	<path class="st3" d="M627.139,62.619c81.019,67.499,90.099,166.047,24.316,263.688c-7.113,10.518-67.171,104.577,8.627,162.162
		l-45.757,60.259c-106.493-80.918-66.211-204.463-25.626-264.722c30.495-45.276,53.549-110.328-9.989-163.247L627.139,62.619
		 M397,62.646c81.017,67.473,90.098,166.046,24.29,263.687c-7.088,10.518-67.145,104.577,8.627,162.162l-45.781,60.259
		c-106.495-80.917-66.187-204.463-25.602-264.721c30.52-45.277,53.549-110.329-9.964-163.247L397,62.646 M166.86,62.646
		c81.019,67.473,90.098,166.046,24.265,263.662c-7.088,10.518-67.145,104.577,8.652,162.162l-45.756,60.259
		C47.528,467.811,87.81,344.266,128.395,284.033c30.521-45.277,53.549-110.329-9.964-163.247L166.86,62.646 M627.14,45.619
		c-0.513,0-1.027,0.023-1.543,0.07c-4.49,0.409-8.634,2.585-11.52,6.05l-48.429,58.14c-2.886,3.464-4.277,7.933-3.868,12.423
		s2.586,8.634,6.05,11.52c24.533,20.433,35.708,43.479,34.164,70.456c-1.227,21.434-10.444,45.063-27.396,70.232
		c-11.917,17.695-22.275,38.113-29.954,59.049c-9.221,25.141-14.36,50.18-15.275,74.421c-1.089,28.845,3.88,55.961,14.768,80.596
		c12.441,28.148,32.595,52.94,59.902,73.689c2.974,2.26,6.591,3.464,10.285,3.464c0.766,0,1.534-0.052,2.302-0.157
		c4.468-0.611,8.511-2.971,11.238-6.563l45.757-60.259c5.677-7.476,4.22-18.138-3.255-23.817
		c-14.601-11.093-23.849-23.954-28.273-39.319c-3.63-12.609-3.882-26.918-0.748-42.53c5.959-29.689,22.344-54.519,24.193-57.253
		c17.237-25.584,29.868-51.68,37.561-77.586c7.719-25.995,10.47-51.783,8.178-76.646c-4.639-50.32-29.971-95.979-73.255-132.041
		C634.954,47.003,631.099,45.619,627.14,45.619L627.14,45.619z M397.01,45.645c-4.872,0-9.709,2.084-13.071,6.12l-48.43,58.14
		c-6.009,7.213-5.033,17.932,2.18,23.941c24.526,20.435,35.698,43.481,34.154,70.457c-1.227,21.443-10.448,45.071-27.405,70.227
		c-11.921,17.7-22.28,38.118-29.961,59.052c-9.224,25.142-14.366,50.18-15.284,74.42c-1.092,28.846,3.873,55.962,14.759,80.597
		c12.439,28.148,32.592,52.941,59.9,73.69c2.974,2.26,6.591,3.464,10.284,3.464c0.765,0,1.533-0.052,2.3-0.156
		c4.467-0.61,8.51-2.969,11.237-6.56l45.781-60.259c5.679-7.475,4.224-18.139-3.25-23.819
		c-14.595-11.092-23.839-23.953-28.26-39.318c-3.628-12.61-3.878-26.92-0.745-42.533c5.818-28.984,21.171-52.797,24.189-57.276
		c17.226-25.558,29.862-51.655,37.559-77.565c7.723-25.997,10.477-51.786,8.186-76.652c-4.636-50.327-29.967-95.984-73.254-132.034
		C404.702,46.936,400.845,45.645,397.01,45.645L397.01,45.645z M166.869,45.645c-4.872,0-9.709,2.084-13.071,6.12l-48.429,58.14
		c-6.009,7.213-5.033,17.932,2.18,23.941c24.526,20.435,35.698,43.482,34.155,70.457c-1.227,21.443-10.448,45.071-27.405,70.227
		c-11.919,17.69-22.278,38.104-29.957,59.038c-9.221,25.138-14.361,50.174-15.276,74.414c-1.089,28.844,3.88,55.959,14.769,80.593
		c12.441,28.148,32.595,52.94,59.902,73.689c2.974,2.26,6.592,3.464,10.285,3.464c0.766,0,1.534-0.052,2.302-0.157
		c4.468-0.611,8.511-2.971,11.238-6.563l45.756-60.259c5.677-7.476,4.219-18.138-3.255-23.817
		c-14.601-11.093-23.849-23.954-28.273-39.32c-3.63-12.609-3.883-26.919-0.751-42.531c5.815-28.982,21.167-52.795,24.186-57.275
		c17.23-25.548,29.872-51.64,37.573-77.547c7.727-25.994,10.484-51.781,8.195-76.646c-4.633-50.325-29.962-95.981-73.251-132.032
		C174.562,46.937,170.704,45.645,166.869,45.645L166.869,45.645z"/>
</g>
</svg>
