<?xml version="1.0" encoding="utf-8"?>
<!-- Generator: Adobe Illustrator 19.2.0, SVG Export Plug-In . SVG Version: 6.00 Build 0)  -->
<svg version="1.1" id="Calque_1" xmlns="http://www.w3.org/2000/svg" xmlns:xlink="http://www.w3.org/1999/xlink" x="0px" y="0px"
	 viewBox="0 0 674.964 542.617" style="enable-background:new 0 0 674.964 542.617;" xml:space="preserve">
<style type="text/css">
	.st0{fill:#FFFFFF;}
	.st1{fill:#3D3D3D;}
</style>
<g>
	<path class="st0" d="M640.773,421.262H632.4v-176.98c17.395-1.601,31.069-16.064,31.069-33.876v-48.499
		c0-18.882-15.309-34.191-34.191-34.191H439.464L261.157,5.953c-11.787-8.043-27.329-7.93-38.999,0.301L14.975,152.496
		c-9.074,6.407-14.474,16.824-14.474,27.935v53.549c0,12.772,7.12,24.483,18.464,30.36c4.95,2.563,10.342,3.831,15.727,3.831
		c1.09,0,2.171-0.144,3.255-0.248v153.339h-3.756C15.309,421.262,0,436.571,0,455.453v52.973c0,18.882,15.309,34.191,34.191,34.191
		h606.582c18.882,0,34.191-15.309,34.191-34.191v-52.973C674.964,436.571,659.655,421.262,640.773,421.262z"/>
	<g>
		<rect x="34.191" y="455.455" class="st1" width="606.581" height="52.976"/>
		<path class="st1" d="M410.68,440.436h7.9h179.625V237.155H418.581L242.497,116.903L72.138,237.155v203.281h37.444V267.929h85.889
			v172.507H410.68z M469.686,266.86h74.475v93.682h-74.475V266.86z M267.815,266.86h103.749v44.077H267.815V266.86z
			 M267.815,329.416h103.749v44.077H267.815V329.416z"/>
		<polygon class="st1" points="421.781,210.594 456.025,210.594 456.025,210.406 629.277,210.406 629.277,161.907 428.899,161.907 
			241.877,34.187 34.694,180.431 34.694,233.981 241.877,87.729 		"/>
	</g>
</g>
</svg>
