<?xml version="1.0" encoding="utf-8"?>
<!-- Generator: Adobe Illustrator 19.2.0, SVG Export Plug-In . SVG Version: 6.00 Build 0)  -->
<svg version="1.1" id="Layer_1" xmlns="http://www.w3.org/2000/svg" xmlns:xlink="http://www.w3.org/1999/xlink" x="0px" y="0px"
	 viewBox="0 0 621.523 858.435" style="enable-background:new 0 0 621.523 858.435;" xml:space="preserve">
<style type="text/css">
	.st0{fill:#FFFFFF;}
	.st1{fill:url(#SVGID_1_);}
</style>
<path class="st0" d="M615.469,337.646l-5.571-17.838l5.571-17.838c16.867-54.014-2.3-113.001-47.693-146.783l-14.992-11.157
	l-5.977-17.703c-18.099-53.612-68.278-90.07-124.862-90.718l-18.686-0.214l-15.243-10.81C365.337,8.502,338.652,0,310.849,0
	c-27.804,0-54.488,8.501-77.168,24.585l-15.243,10.81l-18.687,0.214C143.17,36.258,92.992,72.714,74.889,126.325l-5.979,17.708
	l-14.99,11.156C8.526,188.97-10.64,247.957,6.227,301.97l5.571,17.84l-5.571,17.84c-16.867,54.01,2.299,112.997,47.691,146.78
	l14.993,11.158l5.978,17.706c10.345,30.638,31.513,56.246,58.918,72.359v203.14v69.642l60.155-35.09l113.365-66.13l116.618,65.611
	l59.614,33.54v-68.401V588.088c9.819-5.283,18.985-11.789,27.219-19.367c16.434-15.124,28.892-34.292,36.028-55.431l5.978-17.704
	l14.993-11.158C613.17,450.646,632.336,391.659,615.469,337.646z"/>
<linearGradient id="SVGID_1_" gradientUnits="userSpaceOnUse" x1="310.6781" y1="791.0779" x2="310.6781" y2="42.287" gradientTransform="matrix(1 0 0 -1 0 831.23)">
	<stop  offset="0" style="stop-color:#FFC708"/>
	<stop  offset="1" style="stop-color:#C62542"/>
</linearGradient>
<path class="st1" d="M567.823,319.961l9.295-29.762c11.809-37.818-1.611-79.117-33.392-102.769l-25.013-18.615l-9.974-29.539
	c-12.672-37.538-47.805-63.063-87.422-63.517l-31.176-0.357l-25.432-18.035c-15.881-11.262-34.564-17.215-54.031-17.215
	c-19.467,0-38.15,5.952-54.029,17.213l-25.432,18.036l-31.178,0.357c-39.615,0.454-74.748,25.979-87.422,63.516l-9.974,29.542
	L77.631,187.43c-31.783,23.652-45.202,64.951-33.392,102.768l9.294,29.763l-9.294,29.763c-11.81,37.815,1.609,79.114,33.391,102.768
	l25.013,18.615l9.974,29.542c9.759,28.903,32.836,50.681,61.02,59.379v228.915l133.16-77.677l136.592,76.849V561.251
	c30.139-7.727,55.096-30.232,65.348-60.603l9.975-29.541l25.013-18.615c31.782-23.653,45.201-64.953,33.392-102.77L567.823,319.961z
	 M306.318,649.71l-79.268,46.24V564.473l4.165,0.048l25.433,18.037c15.879,11.261,34.562,17.214,54.029,17.214
	c19.468,0,38.151-5.953,54.029-17.214l25.27-17.92v132.141L306.318,649.71z M526.133,365.644
	c5.056,16.191-0.689,33.873-14.296,43.999l-38.394,28.573l-15.311,45.345c-5.425,16.07-20.466,26.998-37.426,27.192l-47.856,0.548
	l-39.04,27.686c-6.798,4.821-14.797,7.369-23.131,7.369s-16.333-2.549-23.132-7.37L248.508,511.3l-47.856-0.548
	c-16.961-0.195-32.002-11.123-37.428-27.192l-15.31-45.345l-38.394-28.573c-13.607-10.127-19.352-27.808-14.296-43.999
	l14.266-45.684l-14.266-45.684c-5.056-16.19,0.689-33.872,14.296-43.998l38.394-28.573l15.31-45.346
	c5.426-16.071,20.468-26.999,37.428-27.193l47.857-0.548l39.038-27.685c6.799-4.821,14.797-7.37,23.132-7.37
	c8.334,0,16.333,2.548,23.132,7.37l39.039,27.684l47.855,0.548c16.962,0.195,32.003,11.122,37.429,27.194l15.31,45.344
	l38.394,28.574c13.607,10.126,19.352,27.808,14.296,43.998l-14.267,45.684L526.133,365.644z M351.559,270.062l91.349,13.274
	l-66.101,64.433l15.604,90.98l-81.705-42.955l-81.705,42.955l15.604-90.98l-66.101-64.433l91.349-13.274l40.853-82.776
	L351.559,270.062z"/>
</svg>
