<?xml version="1.0" encoding="utf-8"?>
<!-- Generator: Adobe Illustrator 17.0.2, SVG Export Plug-In . SVG Version: 6.00 Build 0)  -->
<!DOCTYPE svg PUBLIC "-//W3C//DTD SVG 1.1//EN" "http://www.w3.org/Graphics/SVG/1.1/DTD/svg11.dtd">
<svg version="1.1" id="Calque_1" xmlns="http://www.w3.org/2000/svg" xmlns:xlink="http://www.w3.org/1999/xlink" x="0px" y="0px"
	 width="693.378px" height="693.378px" viewBox="0 0 693.378 693.378" enable-background="new 0 0 693.378 693.378"
	 xml:space="preserve">
<g>
	<g>
		<path fill="#010101" d="M346.689,432.044c-47.064,0-85.354-38.29-85.354-85.355s38.29-85.355,85.354-85.355
			s85.354,38.29,85.354,85.355S393.754,432.044,346.689,432.044z"/>
		<path fill="#FFFFFF" d="M346.689,281.334c36.037,0,65.355,29.318,65.355,65.355s-29.318,65.355-65.355,65.355
			c-36.036,0-65.354-29.318-65.354-65.355S310.653,281.334,346.689,281.334 M346.689,365.719c10.493,0,19.031-8.537,19.031-19.03
			c0-10.493-8.537-19.03-19.031-19.03c-10.493,0-19.03,8.537-19.03,19.03C327.659,357.182,336.196,365.719,346.689,365.719
			 M346.689,241.334c-58.093,0-105.354,47.262-105.354,105.355s47.262,105.355,105.354,105.355
			c58.093,0,105.355-47.262,105.355-105.355S404.782,241.334,346.689,241.334L346.689,241.334z"/>
	</g>
</g>
<g>
	<g>
		<path fill="#010101" d="M356.037,332.658c-4.776,0-9.548-0.561-14.181-1.667c-4.652-1.11-11.718-2.126-18.551-3.109
			c-6.827-0.982-13.275-1.91-18.691-3.082c-3.761-0.814-6.678-1.673-9.179-2.703c-10.114-4.164-13.309-11.582-14.312-15.632
			c-2.14-8.632,1.245-17.422,8.834-22.94c2.82-2.051,4.116-4.272,4.472-7.665c1.075-10.237-6.949-26.54-20.443-41.533
			c-4.108-4.565-8.44-8.896-12.629-13.084c-19.677-19.674-40.023-40.018-44.902-87.825c-2.575-25.229,6.204-50.414,24.719-70.914
			C265.568,35.492,302.961,20,343.764,20l0.581,0.001c74.721,0.273,135.51,61.096,135.51,135.583
			c0,50.695-33.334,129.947-81.167,162.616c-14.046,9.594-28.396,14.459-42.648,14.459
			C356.038,332.658,356.038,332.658,356.037,332.658z"/>
		<path fill="#FFFFFF" d="M343.762,40c0.167,0,0.342,0,0.509,0.001c63.655,0.233,115.583,51.748,115.583,115.583
			c0,47.876-32.833,119.045-72.446,146.1c-10.158,6.938-20.76,10.974-31.371,10.974c-3.182,0-6.366-0.363-9.538-1.12
			c-17.184-4.102-53.035-5.835-44.78-11.839c22.647-16.471,13.31-49.665-12.868-78.751c-23.162-25.736-47.354-39.118-52.501-89.56
			C231.452,83.38,280.35,40,343.762,40 M343.762,0c-23.159,0-45.32,4.39-65.866,13.048c-20.074,8.459-37.905,20.925-51.565,36.05
			c-22.356,24.753-32.93,55.42-29.774,86.351c5.601,54.889,30.584,79.867,50.658,99.938c4.19,4.19,8.148,8.147,11.904,12.32
			c9.472,10.524,13.363,18.84,14.743,23.232c-11.042,10.405-15.783,25.69-12.152,40.338c3.257,13.139,12.774,23.823,26.111,29.314
			c3.623,1.492,7.614,2.685,12.561,3.756c6.103,1.321,13.206,2.343,20.075,3.331c6.09,0.876,12.993,1.869,16.755,2.767
			c6.153,1.469,12.487,2.213,18.825,2.213c18.353,0,36.498-6.037,53.93-17.943c24.431-16.686,47.343-45.393,64.515-80.831
			c16.124-33.275,25.371-69.105,25.371-98.3c0-20.996-4.135-41.381-12.289-60.589c-7.854-18.499-19.085-35.111-33.382-49.373
			C439.92,31.395,423.305,20.202,404.8,12.356c-19.154-8.121-39.469-12.278-60.383-12.355L343.762,0L343.762,0z"/>
	</g>
</g>
<g>
	<g>
		<path fill="#010101" d="M124.751,477.365c-24.115,0-47.738-10.382-66.519-29.231c-24.437-24.527-38.372-60.647-38.231-99.101
			c0.272-74.72,61.095-135.509,135.583-135.509c50.695,0,129.947,33.333,162.615,81.166c12.777,18.709,17.201,38.361,12.792,56.832
			c-1.11,4.652-2.126,11.718-3.109,18.551c-1.014,7.051-1.972,13.71-3.199,19.229c-0.882,3.961-1.835,7.014-3.001,9.606
			c-5.825,12.96-17.003,13.967-20.29,13.967c-6.985,0-13.498-3.445-17.867-9.452c-2.358-3.242-5.109-4.565-9.496-4.565
			c-10.415,0-25.628,7.869-39.7,20.535c-4.566,4.108-8.897,8.44-13.086,12.63c-19.674,19.677-40.018,40.023-87.824,44.901
			c-2.871,0.293-5.786,0.441-8.662,0.441C124.754,477.365,124.753,477.365,124.751,477.365z"/>
		<path fill="#FFFFFF" d="M155.584,233.524c47.876,0,119.045,32.832,146.1,72.446c9.018,13.205,13.135,27.162,9.854,40.909
			c-3.688,15.452-5.461,45.996-10.146,45.996c-0.525,0-1.087-0.384-1.692-1.216c-6.425-8.834-15.392-12.801-25.67-12.801
			c-16.07,0-35.341,9.703-53.081,25.669c-25.736,23.162-39.118,47.354-89.56,52.501c-2.224,0.227-4.435,0.338-6.635,0.338
			c-45.42,0-84.973-47.545-84.751-108.259C40.234,285.452,91.749,233.524,155.584,233.524 M155.584,193.524
			c-20.996,0-41.381,4.135-60.589,12.289c-18.499,7.854-35.111,19.085-49.373,33.383c-14.228,14.263-25.421,30.878-33.267,49.382
			c-8.122,19.154-12.278,39.47-12.355,60.383c-0.16,43.732,15.901,85.025,44.064,113.291c22.561,22.644,51.216,35.114,80.686,35.114
			c3.554,0,7.153-0.183,10.696-0.545c54.889-5.601,79.867-30.584,99.938-50.658c4.189-4.19,8.147-8.148,12.32-11.904
			c10.516-9.464,18.828-13.357,23.222-14.74c8.007,8.549,18.844,13.356,30.463,13.356c16.622,0,31.387-9.873,38.532-25.766
			c1.737-3.864,3.098-8.142,4.281-13.464c1.393-6.262,2.45-13.613,3.473-20.723c0.876-6.09,1.869-12.993,2.767-16.755
			c4.013-16.81,4.541-43.077-15.729-72.756c-16.686-24.431-45.392-47.343-80.831-64.515
			C220.609,202.772,184.78,193.524,155.584,193.524L155.584,193.524z"/>
	</g>
</g>
<g>
	<g>
		<path fill="#010101" d="M349.034,673.377c-74.721-0.272-135.51-61.095-135.51-135.583c0-50.695,33.334-129.947,81.166-162.615
			c14.048-9.595,28.397-14.459,42.651-14.459c4.775,0,9.547,0.561,14.181,1.667c4.653,1.11,11.721,2.127,18.555,3.11
			c6.826,0.981,13.274,1.909,18.689,3.081c3.76,0.814,6.676,1.673,9.177,2.703c10.113,4.164,13.309,11.581,14.312,15.632
			c2.14,8.631-1.245,17.422-8.833,22.94c-2.821,2.052-4.117,4.272-4.474,7.665c-1.074,10.237,6.95,26.539,20.443,41.531
			c4.109,4.566,8.441,8.897,12.631,13.086c19.677,19.674,40.023,40.018,44.901,87.824c2.574,25.232-6.206,50.419-24.724,70.921
			c-24.393,27.007-61.782,42.497-102.574,42.497C349.621,673.378,349.034,673.377,349.034,673.377z"/>
		<path fill="#FFFFFF" d="M337.341,380.72c3.182,0,6.366,0.363,9.538,1.12c17.184,4.102,53.035,5.835,44.78,11.839
			c-22.647,16.471-13.31,49.665,12.868,78.751c23.162,25.736,47.354,39.118,52.501,89.56c4.899,48.007-44,91.387-107.412,91.387
			c-0.167,0-0.342,0-0.509-0.001c-63.655-0.233-115.583-51.748-115.583-115.583c0-47.876,32.833-119.045,72.446-146.1
			C316.128,384.757,326.73,380.72,337.341,380.72 M337.341,340.72c-18.353,0-36.498,6.037-53.93,17.943
			c-24.431,16.686-47.343,45.392-64.515,80.831c-16.124,33.275-25.371,69.105-25.371,98.3c0,20.996,4.135,41.381,12.289,60.589
			c7.854,18.499,19.085,35.111,33.383,49.373c14.263,14.228,30.878,25.421,49.382,33.267c19.154,8.121,39.47,12.278,60.383,12.355
			l0.655,0.001c23.159,0,45.32-4.39,65.866-13.048c20.074-8.459,37.906-20.925,51.566-36.05c22.356-24.753,32.93-55.42,29.774-86.35
			c-5.601-54.888-30.584-79.867-50.658-99.938c-4.19-4.189-8.148-8.147-11.905-12.32c-9.472-10.524-13.363-18.84-14.743-23.232
			c11.043-10.405,15.783-25.69,12.152-40.339c-3.257-13.138-12.774-23.823-26.111-29.314c-3.623-1.492-7.615-2.685-12.561-3.756
			c-6.103-1.321-13.206-2.343-20.075-3.331c-6.09-0.876-12.993-1.869-16.755-2.767C350.013,341.465,343.679,340.72,337.341,340.72
			L337.341,340.72z"/>
	</g>
</g>
<g>
	<g>
		<path fill="#010101" d="M537.794,479.854c-50.695,0-129.947-33.334-162.615-81.166c-12.777-18.707-17.2-38.359-12.791-56.832
			c1.11-4.652,2.126-11.718,3.109-18.552c1.014-7.05,1.971-13.708,3.199-19.228c0.881-3.961,1.834-7.014,3-9.607
			c5.825-12.959,17.003-13.967,20.29-13.967c6.985,0,13.498,3.445,17.867,9.453c2.358,3.242,5.108,4.564,9.494,4.564
			c10.417,0,25.63-7.869,39.704-20.535c4.564-4.108,8.896-8.44,13.083-12.629c19.674-19.677,40.018-40.024,87.826-44.903
			c2.872-0.293,5.787-0.442,8.666-0.442c24.114,0,47.737,10.381,66.518,29.23c24.438,24.528,38.373,60.649,38.232,99.102
			C673.104,419.065,612.282,479.854,537.794,479.854z"/>
		<path fill="#FFFFFF" d="M568.626,236.012c45.42,0,84.973,47.545,84.751,108.259c-0.233,63.655-51.748,115.583-115.583,115.583
			c-47.876,0-119.045-32.833-146.1-72.446c-9.018-13.205-13.135-27.162-9.854-40.909c3.688-15.452,5.46-45.999,10.146-45.996
			c0.525,0,1.087,0.384,1.692,1.216c6.425,8.834,15.393,12.801,25.67,12.801c16.07,0,35.341-9.703,53.081-25.669
			c25.736-23.162,39.118-47.354,89.561-52.501C564.215,236.124,566.426,236.012,568.626,236.012 M568.626,196.012
			c-3.554,0-7.153,0.183-10.696,0.545c-54.888,5.601-79.867,30.584-99.938,50.658c-4.19,4.19-8.147,8.148-12.32,11.904
			c-10.516,9.464-18.828,13.357-23.222,14.74c-8-8.541-18.825-13.347-30.433-13.356c-0.009,0-0.018,0-0.028,0
			c-16.626,0-31.388,9.87-38.534,25.763c-1.738,3.865-3.098,8.144-4.282,13.466c-1.393,6.262-2.45,13.615-3.473,20.725
			c-0.876,6.09-1.869,12.993-2.766,16.755c-4.012,16.808-4.541,43.075,15.729,72.755c16.687,24.432,45.393,47.343,80.832,64.515
			c33.275,16.124,69.104,25.371,98.3,25.371c20.996,0,41.381-4.135,60.589-12.289c18.499-7.854,35.111-19.085,49.373-33.382
			c14.228-14.263,25.421-30.878,33.267-49.382c8.121-19.154,12.278-39.47,12.355-60.383c0.16-43.732-15.901-85.025-44.065-113.292
			C626.751,208.483,598.096,196.012,568.626,196.012L568.626,196.012z"/>
	</g>
</g>
<linearGradient id="SVGID_1_" gradientUnits="userSpaceOnUse" x1="346.6891" y1="653.3782" x2="346.6891" y2="40">
	<stop  offset="0.0035" style="stop-color:#29378B"/>
	<stop  offset="1" style="stop-color:#66CDF3"/>
</linearGradient>
<path fill="url(#SVGID_1_)" d="M561.991,236.35c-50.442,5.147-63.825,29.339-89.56,52.501
	c-26.32,23.688-56.001,33.583-73.614,18.471c-2.284-3.016-4.827-5.824-7.589-8.401c37.882-28.872,68.627-97.01,68.627-143.338
	c0-63.835-51.928-115.35-115.583-115.583c-63.655-0.233-112.832,43.253-107.921,91.386c5.147,50.442,29.339,63.825,52.501,89.56
	c23.688,26.32,33.583,56.001,18.472,73.614c-3.017,2.284-5.824,4.827-8.401,7.589c-28.872-37.882-97.01-68.627-143.338-68.627
	c-63.835,0-115.35,51.928-115.583,115.583s43.253,112.832,91.386,107.921c50.442-5.147,63.825-29.339,89.56-52.501
	c26.32-23.688,56.002-33.583,73.614-18.471c2.284,3.016,4.827,5.823,7.589,8.4c-37.882,28.872-68.627,97.01-68.627,143.338
	c0,63.835,51.928,115.35,115.583,115.583s112.832-43.253,107.921-91.386c-5.147-50.442-29.339-63.825-52.501-89.56
	c-23.688-26.32-33.583-56.002-18.471-73.614c3.016-2.284,5.823-4.827,8.4-7.589c28.872,37.882,97.01,68.627,143.338,68.627
	c63.835,0,115.35-51.928,115.583-115.583S610.124,231.439,561.991,236.35z M365.719,346.689c0,10.493-8.537,19.03-19.03,19.03
	s-19.03-8.537-19.03-19.03c0-10.493,8.537-19.03,19.03-19.03S365.719,336.196,365.719,346.689z"/>
<linearGradient id="SVGID_2_" gradientUnits="userSpaceOnUse" x1="1385.1262" y1="777.5381" x2="1385.1262" y2="151.5731" gradientTransform="matrix(1 0 0 1 0 63.926)">
	<stop  offset="0.0035" style="stop-color:#29378B"/>
	<stop  offset="1" style="stop-color:#66CDF3"/>
</linearGradient>
<path fill="url(#SVGID_2_)" d="M1378.791,841.462c-1.056,0-2.12-0.014-3.186-0.042c-33.941-0.904-65.414-23.652-78.317-56.605
	c-12.387-31.636-5.922-64.65,16.872-86.16c14.144-13.348,30.805-20.116,49.521-20.116l0.553,0.002
	c21.305,0.148,37.128,14.108,39.372,34.737c1.978,18.171-11.567,36.04-30.836,40.679c-3.358,0.81-4.736,2.025-5.057,2.468
	c0.129,0.438,0.76,1.604,2.613,3.131c3.32,2.735,8.965,4.799,13.129,4.798c0.464,0,0.897-0.025,1.291-0.077
	c9.701-1.271,17.536-5.892,22.66-13.358c6.01-8.761,7.659-20.434,4.645-32.871c-7.513-30.993-32.24-49.546-66.147-49.628
	c-34.815-0.085-69.77-0.096-96.333-0.096l-77.774,0.011c-19.093,0-38.19-0.006-57.284-0.027
	c-20.067-0.023-34.058-9.094-39.396-25.54c-3.91-12.045-2.097-24.562,4.975-34.344c7.462-10.322,19.705-16.282,33.589-16.352
	c14.562-0.072,30.13-0.105,48.994-0.105c12.963,0,25.926,0.016,38.89,0.031c11.143,0.014,22.286,0.026,33.428,0.03l65.446,0.001
	c15.27,0,30.542,0.003,45.812,0.019c71.458,0.074,126.993,45.102,141.483,114.711c7.012,33.688-1.109,67.938-22.281,93.97
	c-21.055,25.888-52.642,40.735-86.657,40.735C1378.793,841.462,1378.793,841.462,1378.791,841.462z M1469.622,567.618
	c-22.316,0-44.631-0.019-66.946-0.037c-21.774-0.019-43.548-0.036-65.324-0.037c0,0-188.411,0-223.69-0.004
	c-17.591,0-30.448-7.97-37.18-23.049c-6.851-15.344-4.116-30.931,7.139-40.677c8.325-7.212,20.062-11.954,29.899-12.08
	c37.698-0.481,75.184-0.543,103.631-0.543c14.833,0,29.665,0.019,44.496,0.038c14.463,0.019,28.926,0.037,43.391,0.038
	c25.697,0.001,51.395,0.02,77.093,0.039c26.209,0.02,52.417,0.039,78.624,0.039c35.423,0,64.793-0.036,92.431-0.113
	c18.983-0.054,36.156-6.346,48.356-17.717c12.018-11.201,18.768-26.946,19.008-44.336c0.257-18.613-12.59-33.218-29.884-33.972
	c-0.094-0.004-0.189-0.006-0.287-0.006c-3.994,0-10.415,3.135-14.021,6.846c-0.75,0.771-1.153,1.38-1.351,1.761
	c0.533,0.425,1.753,1.118,3.937,1.6c20.35,4.493,34.126,22.113,32.046,40.984c-2.28,20.716-18.452,34.636-40.243,34.637l-0.49-0.002
	c-24.427-0.226-46.058-12.183-59.344-32.807c-14.51-22.524-16.36-51.353-4.948-77.117c14.484-32.703,46.482-53.018,83.507-53.018
	c19.381,0,38.62,5.695,55.64,16.469c48.4,30.643,65.31,89.151,42.076,145.59c-10.704,26-28.46,47.93-51.349,63.417
	c-22.977,15.546-49.983,23.816-78.1,23.919C1531.654,567.574,1503.655,567.618,1469.622,567.618z M1305.144,465.205
	c-11.387,0-22.774-0.023-34.161-0.046c-11.376-0.023-22.752-0.046-34.127-0.046h-2.781c-11.078,0.004-22.155,0.019-33.232,0.034
	c-12.713,0.018-25.426,0.036-38.141,0.036c-18.392,0-33.576-0.038-47.785-0.118c-14.365-0.083-26.46-5.491-34.058-15.229
	c-7.026-9.005-9.263-20.64-6.298-32.76c4.299-17.57,18.419-28.132,37.771-28.252c24.006-0.152,47.695-0.183,75.878-0.183
	l43.225,0.001c12.098,0,24.196,0.033,36.294,0.066c12.084,0.033,24.168,0.066,36.253,0.066c16.114,0,29.482-0.059,42.069-0.186
	c34.245-0.347,58.951-18.941,66.089-49.739c2.775-11.981,1.234-23.301-4.34-31.874c-4.982-7.663-12.824-12.716-22.679-14.613
	c-1.444-0.278-2.824-0.419-4.104-0.419c-4.646,0-8.188,1.836-11.146,5.778c-1.466,1.953-1.906,3.184-2.037,3.734
	c0.456,0.318,1.573,0.93,3.887,1.408c20.119,4.158,34.058,22.323,31.733,41.355c-2.549,20.843-18.07,34.311-39.543,34.311h-0.109
	c-22.464-0.049-43.163-10.237-56.791-27.952c-14.654-19.049-19.376-43.979-12.955-68.395c10.49-39.884,45.874-66.683,88.049-66.683
	c19.033,0,38.049,5.568,54.992,16.103c48.35,30.062,65.835,88.06,43.51,144.317c-10.491,26.435-28.261,48.755-51.388,64.549
	c-23.171,15.823-50.595,24.318-79.307,24.567C1336.652,465.151,1322.426,465.205,1305.144,465.205z"/>
</svg>
