<?xml version="1.0" encoding="utf-8"?>
<!-- Generator: Adobe Illustrator 19.2.0, SVG Export Plug-In . SVG Version: 6.00 Build 0)  -->
<svg version="1.1" id="Layer_1" xmlns="http://www.w3.org/2000/svg" xmlns:xlink="http://www.w3.org/1999/xlink" x="0px" y="0px"
	 viewBox="0 0 769.341 706.465" style="enable-background:new 0 0 769.341 706.465;" xml:space="preserve">
<style type="text/css">
	.st0{fill:#FFFFFF;stroke:#FFFFFF;stroke-width:68;stroke-miterlimit:10;}
	.st1{fill:url(#SVGID_1_);}
	.st2{fill:url(#SVGID_2_);}
	.st3{fill:url(#SVGID_3_);}
	.st4{fill:url(#SVGID_4_);}
	.st5{fill:url(#SVGID_5_);}
	.st6{fill:url(#SVGID_6_);}
	.st7{fill:url(#SVGID_7_);}
	.st8{fill:url(#SVGID_8_);}
</style>
<g>
	<path class="st0" d="M732.9,455.032c-0.254-6.714-3.106-12.927-8.034-17.494c-13.975-12.956-29.548-21.082-46.289-24.152
		c-13.551-2.483-27.522-1.592-41.522,2.655c-21.748,6.6-36.546,19.332-38.649,21.21c-0.444,0.377-8.604,7.199-19.688,10.574
		c-14.348,4.372-26.727,1.12-38.961-10.225c-13.967-12.949-29.521-21.077-46.229-24.157c-13.541-2.496-27.492-1.61-41.467,2.63
		c-21.426,6.504-35.684,18.622-38.511,21.162c-0.611,0.514-8.787,7.263-19.82,10.621c-14.146,4.303-26.334,1.28-38.342-9.521
		c-0.178-0.178-0.358-0.354-0.55-0.532c-13.975-12.956-29.549-21.082-46.289-24.151c-13.554-2.486-27.524-1.593-41.523,2.655
		c-21.772,6.606-36.551,19.335-38.649,21.21c-0.443,0.376-8.603,7.198-19.688,10.573c-14.344,4.37-26.725,1.12-38.96-10.224
		c-13.967-12.949-29.521-21.077-46.229-24.158c-13.54-2.495-27.491-1.611-41.467,2.63c-22.139,6.721-37.001,19.795-38.623,21.264
		l-4.334,6.378c-4.57,9.148-3.229,20.581,4.018,28.397c9.372,10.106,25.18,10.764,35.359,1.514
		c2.944-2.237,10.062-7.12,19.044-9.666c13.937-3.947,26.021-0.604,38.031,10.531c13.978,12.959,29.554,21.082,46.295,24.144
		c4.943,0.904,10.011,1.362,15.062,1.362c8.732,0,17.634-1.362,26.459-4.049c21.362-6.506,35.703-18.64,38.527-21.163
		c0.564-0.479,9.101-7.593,20.613-10.856c13.735-3.895,25.627-0.772,37.411,9.826c0.18,0.18,0.362,0.356,0.553,0.534
		c13.982,12.965,29.579,21.086,46.353,24.138c13.486,2.453,27.626,1.536,41.579-2.712c21.651-6.59,36.054-18.866,38.646-21.194
		c0.086-0.075,8.727-7.49,20.5-10.826c13.938-3.947,26.021-0.604,38.031,10.531c13.978,12.959,29.554,21.082,46.295,24.144
		c13.487,2.465,27.596,1.555,41.521-2.688c21.873-6.66,36.668-19.494,38.595-21.224c0.563-0.475,8.697-7.209,19.695-10.547
		c14.366-4.357,26.76-1.102,39.004,10.249c10.173,9.429,26.115,8.824,35.545-1.343C730.777,468.156,733.154,461.745,732.9,455.032z"
		/>
	<path class="st0" d="M193.395,431.548L193.395,431.548c3.052,1.251,6.26,1.885,9.536,1.885c10.252,0,19.39-6.13,23.28-15.616
		l66.87-163.098l60.459,26.871l61.643-105.505L539.65,418.697c6.328,12.339,21.519,17.229,33.86,10.899
		c5.978-3.066,10.402-8.278,12.461-14.674s1.504-13.21-1.563-19.188L418.048,71.463l-85.227,145.869l-66.639-29.618l-86.516,211.019
		C174.404,411.565,180.563,426.285,193.395,431.548z"/>
	<path class="st0" d="M169.144,505.015l-0.001-0.001c-12.686-5.6-27.567,0.163-33.17,12.848L83.717,636.183
		c-2.715,6.146-2.873,12.98-0.447,19.246c2.427,6.265,7.147,11.21,13.292,13.924c3.229,1.426,6.645,2.149,10.153,2.149
		c9.96,0,18.995-5.886,23.018-14.995l52.256-118.32c2.715-6.146,2.874-12.981,0.448-19.247
		C180.011,512.675,175.29,507.73,169.144,505.015z"/>
	<path class="st0" d="M636.83,516.529L636.83,516.529c-3.07-5.976-8.284-10.398-14.681-12.453s-13.211-1.494-19.188,1.576
		c-12.335,6.339-17.215,21.531-10.877,33.867l59.706,116.202c4.329,8.427,12.907,13.662,22.387,13.662
		c3.966,0,7.936-0.963,11.48-2.784c12.334-6.338,17.215-21.53,10.878-33.867L636.83,516.529z"/>
</g>
<g>
	<path d="M732.9,455.032c-0.254-6.714-3.106-12.927-8.034-17.494c-13.975-12.956-29.548-21.082-46.289-24.152
		c-13.551-2.483-27.522-1.592-41.522,2.655c-21.748,6.6-36.546,19.332-38.649,21.21c-0.444,0.377-8.604,7.199-19.688,10.574
		c-14.348,4.372-26.727,1.12-38.961-10.225c-13.967-12.949-29.521-21.077-46.229-24.157c-13.541-2.496-27.492-1.61-41.467,2.63
		c-21.426,6.504-35.684,18.622-38.511,21.162c-0.611,0.514-8.787,7.263-19.82,10.621c-14.146,4.303-26.334,1.28-38.342-9.521
		c-0.178-0.178-0.358-0.354-0.55-0.532c-13.975-12.956-29.549-21.082-46.289-24.151c-13.554-2.486-27.524-1.593-41.523,2.655
		c-21.772,6.606-36.551,19.335-38.649,21.21c-0.443,0.376-8.603,7.198-19.688,10.573c-14.344,4.37-26.725,1.12-38.96-10.224
		c-13.967-12.949-29.521-21.077-46.229-24.158c-13.54-2.495-27.491-1.611-41.467,2.63c-22.139,6.721-37.001,19.795-38.623,21.264
		l-4.334,6.378c-4.57,9.148-3.229,20.581,4.018,28.397c9.372,10.106,25.18,10.764,35.359,1.514
		c2.944-2.237,10.062-7.12,19.044-9.666c13.937-3.947,26.021-0.604,38.031,10.531c13.978,12.959,29.554,21.082,46.295,24.144
		c4.943,0.904,10.011,1.362,15.062,1.362c8.732,0,17.634-1.362,26.459-4.049c21.362-6.506,35.703-18.64,38.527-21.163
		c0.564-0.479,9.101-7.593,20.613-10.856c13.735-3.895,25.627-0.772,37.411,9.826c0.18,0.18,0.362,0.356,0.553,0.534
		c13.982,12.965,29.579,21.086,46.353,24.138c13.486,2.453,27.626,1.536,41.579-2.712c21.651-6.59,36.054-18.866,38.646-21.194
		c0.086-0.075,8.727-7.49,20.5-10.826c13.938-3.947,26.021-0.604,38.031,10.531c13.978,12.959,29.554,21.082,46.295,24.144
		c13.487,2.465,27.596,1.555,41.521-2.688c21.873-6.66,36.668-19.494,38.595-21.224c0.563-0.475,8.697-7.209,19.695-10.547
		c14.366-4.357,26.76-1.102,39.004,10.249c10.173,9.429,26.115,8.824,35.545-1.343C730.777,468.156,733.154,461.745,732.9,455.032z"
		/>
	<path d="M193.395,431.548L193.395,431.548c3.052,1.251,6.26,1.885,9.536,1.885c10.252,0,19.39-6.13,23.28-15.616l66.87-163.098
		l60.459,26.871l61.643-105.505L539.65,418.697c6.328,12.339,21.519,17.229,33.86,10.899c5.978-3.066,10.402-8.278,12.461-14.674
		s1.504-13.21-1.563-19.188L418.048,71.463l-85.227,145.869l-66.639-29.618l-86.516,211.019
		C174.404,411.565,180.563,426.285,193.395,431.548z"/>
	<path d="M169.144,505.015l-0.001-0.001c-12.686-5.6-27.567,0.163-33.17,12.848L83.717,636.183
		c-2.715,6.146-2.873,12.98-0.447,19.246c2.427,6.265,7.147,11.21,13.292,13.924c3.229,1.426,6.645,2.149,10.153,2.149
		c9.96,0,18.995-5.886,23.018-14.995l52.256-118.32c2.715-6.146,2.874-12.981,0.448-19.247
		C180.011,512.675,175.29,507.73,169.144,505.015z"/>
	<path d="M636.83,516.529L636.83,516.529c-3.07-5.976-8.284-10.398-14.681-12.453s-13.211-1.494-19.188,1.576
		c-12.335,6.339-17.215,21.531-10.877,33.867l59.706,116.202c4.329,8.427,12.907,13.662,22.387,13.662
		c3.966,0,7.936-0.963,11.48-2.784c12.334-6.338,17.215-21.53,10.878-33.867L636.83,516.529z"/>
</g>
<g>
	<path class="st0" d="M732.9,455.032c-0.254-6.714-3.106-12.927-8.034-17.494c-13.975-12.956-29.548-21.082-46.289-24.152
		c-13.551-2.483-27.522-1.592-41.522,2.655c-21.748,6.6-36.546,19.332-38.649,21.21c-0.444,0.377-8.604,7.199-19.688,10.574
		c-14.348,4.372-26.727,1.12-38.961-10.225c-13.967-12.949-29.521-21.077-46.229-24.157c-13.541-2.496-27.492-1.61-41.467,2.63
		c-21.426,6.504-35.684,18.622-38.511,21.162c-0.611,0.514-8.787,7.263-19.82,10.621c-14.146,4.303-26.334,1.28-38.342-9.521
		c-0.178-0.178-0.358-0.354-0.55-0.532c-13.975-12.956-29.549-21.082-46.289-24.151c-13.554-2.486-27.524-1.593-41.523,2.655
		c-21.772,6.606-36.551,19.335-38.649,21.21c-0.443,0.376-8.603,7.198-19.688,10.573c-14.344,4.37-26.725,1.12-38.96-10.224
		c-13.967-12.949-29.521-21.077-46.229-24.158c-13.54-2.495-27.491-1.611-41.467,2.63c-22.139,6.721-37.001,19.795-38.623,21.264
		l-4.334,6.378c-4.57,9.148-3.229,20.581,4.018,28.397c9.372,10.106,25.18,10.764,35.359,1.514
		c2.944-2.237,10.062-7.12,19.044-9.666c13.937-3.947,26.021-0.604,38.031,10.531c13.978,12.959,29.554,21.082,46.295,24.144
		c4.943,0.904,10.011,1.362,15.062,1.362c8.732,0,17.634-1.362,26.459-4.049c21.362-6.506,35.703-18.64,38.527-21.163
		c0.564-0.479,9.101-7.593,20.613-10.856c13.735-3.895,25.627-0.772,37.411,9.826c0.18,0.18,0.362,0.356,0.553,0.534
		c13.982,12.965,29.579,21.086,46.353,24.138c13.486,2.453,27.626,1.536,41.579-2.712c21.651-6.59,36.054-18.866,38.646-21.194
		c0.086-0.075,8.727-7.49,20.5-10.826c13.938-3.947,26.021-0.604,38.031,10.531c13.978,12.959,29.554,21.082,46.295,24.144
		c13.487,2.465,27.596,1.555,41.521-2.688c21.873-6.66,36.668-19.494,38.595-21.224c0.563-0.475,8.697-7.209,19.695-10.547
		c14.366-4.357,26.76-1.102,39.004,10.249c10.173,9.429,26.115,8.824,35.545-1.343C730.777,468.156,733.154,461.745,732.9,455.032z"
		/>
	<path class="st0" d="M193.395,431.548L193.395,431.548c3.052,1.251,6.26,1.885,9.536,1.885c10.252,0,19.39-6.13,23.28-15.616
		l66.87-163.098l60.459,26.871l61.643-105.505L539.65,418.697c6.328,12.339,21.519,17.229,33.86,10.899
		c5.978-3.066,10.402-8.278,12.461-14.674s1.504-13.21-1.563-19.188L418.048,71.463l-85.227,145.869l-66.639-29.618l-86.516,211.019
		C174.404,411.565,180.563,426.285,193.395,431.548z"/>
	<path class="st0" d="M169.144,505.015l-0.001-0.001c-12.686-5.6-27.567,0.163-33.17,12.848L83.717,636.183
		c-2.715,6.146-2.873,12.98-0.447,19.246c2.427,6.265,7.147,11.21,13.292,13.924c3.229,1.426,6.645,2.149,10.153,2.149
		c9.96,0,18.995-5.886,23.018-14.995l52.256-118.32c2.715-6.146,2.874-12.981,0.448-19.247
		C180.011,512.675,175.29,507.73,169.144,505.015z"/>
	<path class="st0" d="M636.83,516.529L636.83,516.529c-3.07-5.976-8.284-10.398-14.681-12.453s-13.211-1.494-19.188,1.576
		c-12.335,6.339-17.215,21.531-10.877,33.867l59.706,116.202c4.329,8.427,12.907,13.662,22.387,13.662
		c3.966,0,7.936-0.963,11.48-2.784c12.334-6.338,17.215-21.53,10.878-33.867L636.83,516.529z"/>
</g>
<g>
	<path d="M732.9,455.032c-0.254-6.714-3.106-12.927-8.034-17.494c-13.975-12.956-29.548-21.082-46.289-24.152
		c-13.551-2.483-27.522-1.592-41.522,2.655c-21.748,6.6-36.546,19.332-38.649,21.21c-0.444,0.377-8.604,7.199-19.688,10.574
		c-14.348,4.372-26.727,1.12-38.961-10.225c-13.967-12.949-29.521-21.077-46.229-24.157c-13.541-2.496-27.492-1.61-41.467,2.63
		c-21.426,6.504-35.684,18.622-38.511,21.162c-0.611,0.514-8.787,7.263-19.82,10.621c-14.146,4.303-26.334,1.28-38.342-9.521
		c-0.178-0.178-0.358-0.354-0.55-0.532c-13.975-12.956-29.549-21.082-46.289-24.151c-13.554-2.486-27.524-1.593-41.523,2.655
		c-21.772,6.606-36.551,19.335-38.649,21.21c-0.443,0.376-8.603,7.198-19.688,10.573c-14.344,4.37-26.725,1.12-38.96-10.224
		c-13.967-12.949-29.521-21.077-46.229-24.158c-13.54-2.495-27.491-1.611-41.467,2.63c-22.139,6.721-37.001,19.795-38.623,21.264
		l-4.334,6.378c-4.57,9.148-3.229,20.581,4.018,28.397c9.372,10.106,25.18,10.764,35.359,1.514
		c2.944-2.237,10.062-7.12,19.044-9.666c13.937-3.947,26.021-0.604,38.031,10.531c13.978,12.959,29.554,21.082,46.295,24.144
		c4.943,0.904,10.011,1.362,15.062,1.362c8.732,0,17.634-1.362,26.459-4.049c21.362-6.506,35.703-18.64,38.527-21.163
		c0.564-0.479,9.101-7.593,20.613-10.856c13.735-3.895,25.627-0.772,37.411,9.826c0.18,0.18,0.362,0.356,0.553,0.534
		c13.982,12.965,29.579,21.086,46.353,24.138c13.486,2.453,27.626,1.536,41.579-2.712c21.651-6.59,36.054-18.866,38.646-21.194
		c0.086-0.075,8.727-7.49,20.5-10.826c13.938-3.947,26.021-0.604,38.031,10.531c13.978,12.959,29.554,21.082,46.295,24.144
		c13.487,2.465,27.596,1.555,41.521-2.688c21.873-6.66,36.668-19.494,38.595-21.224c0.563-0.475,8.697-7.209,19.695-10.547
		c14.366-4.357,26.76-1.102,39.004,10.249c10.173,9.429,26.115,8.824,35.545-1.343C730.777,468.156,733.154,461.745,732.9,455.032z"
		/>
	<path d="M193.395,431.548L193.395,431.548c3.052,1.251,6.26,1.885,9.536,1.885c10.252,0,19.39-6.13,23.28-15.616l66.87-163.098
		l60.459,26.871l61.643-105.505L539.65,418.697c6.328,12.339,21.519,17.229,33.86,10.899c5.978-3.066,10.402-8.278,12.461-14.674
		s1.504-13.21-1.563-19.188L418.048,71.463l-85.227,145.869l-66.639-29.618l-86.516,211.019
		C174.404,411.565,180.563,426.285,193.395,431.548z"/>
	<path d="M169.144,505.015l-0.001-0.001c-12.686-5.6-27.567,0.163-33.17,12.848L83.717,636.183
		c-2.715,6.146-2.873,12.98-0.447,19.246c2.427,6.265,7.147,11.21,13.292,13.924c3.229,1.426,6.645,2.149,10.153,2.149
		c9.96,0,18.995-5.886,23.018-14.995l52.256-118.32c2.715-6.146,2.874-12.981,0.448-19.247
		C180.011,512.675,175.29,507.73,169.144,505.015z"/>
	<path d="M636.83,516.529L636.83,516.529c-3.07-5.976-8.284-10.398-14.681-12.453s-13.211-1.494-19.188,1.576
		c-12.335,6.339-17.215,21.531-10.877,33.867l59.706,116.202c4.329,8.427,12.907,13.662,22.387,13.662
		c3.966,0,7.936-0.963,11.48-2.784c12.334-6.338,17.215-21.53,10.878-33.867L636.83,516.529z"/>
</g>
<g>
	<g>
		
			<linearGradient id="SVGID_1_" gradientUnits="userSpaceOnUse" x1="74.876" y1="249.7517" x2="611.8513" y2="249.7517" gradientTransform="matrix(1 0 0 -1 0 705.89)">
			<stop  offset="0.0035" style="stop-color:#001F99"/>
			<stop  offset="1" style="stop-color:#64CDF4"/>
		</linearGradient>
		<path class="st1" d="M732.9,455.032c-0.254-6.714-3.106-12.927-8.034-17.494c-13.975-12.956-29.548-21.082-46.289-24.152
			c-13.551-2.483-27.522-1.592-41.522,2.655c-21.748,6.6-36.546,19.332-38.649,21.21c-0.444,0.377-8.604,7.199-19.688,10.574
			c-14.348,4.372-26.727,1.12-38.961-10.225c-13.967-12.949-29.521-21.077-46.229-24.157c-13.541-2.496-27.492-1.61-41.467,2.63
			c-21.426,6.504-35.684,18.622-38.511,21.162c-0.611,0.514-8.787,7.263-19.82,10.621c-14.146,4.303-26.334,1.28-38.342-9.521
			c-0.178-0.178-0.358-0.354-0.55-0.532c-13.975-12.956-29.549-21.082-46.289-24.151c-13.554-2.486-27.524-1.593-41.523,2.655
			c-21.772,6.606-36.551,19.335-38.649,21.21c-0.443,0.376-8.603,7.198-19.688,10.573c-14.344,4.37-26.725,1.12-38.96-10.224
			c-13.967-12.949-29.521-21.077-46.229-24.158c-13.54-2.495-27.491-1.611-41.467,2.63c-22.139,6.721-37.001,19.795-38.623,21.264
			l-4.334,6.378c-4.57,9.148-3.229,20.581,4.018,28.397c9.372,10.106,25.18,10.764,35.359,1.514
			c2.944-2.237,10.062-7.12,19.044-9.666c13.937-3.947,26.021-0.604,38.031,10.531c13.978,12.959,29.554,21.082,46.295,24.144
			c4.943,0.904,10.011,1.362,15.062,1.362c8.732,0,17.634-1.362,26.459-4.049c21.362-6.506,35.703-18.64,38.527-21.163
			c0.564-0.479,9.101-7.593,20.613-10.856c13.735-3.895,25.627-0.772,37.411,9.826c0.18,0.18,0.362,0.356,0.553,0.534
			c13.982,12.965,29.579,21.086,46.353,24.138c13.486,2.453,27.626,1.536,41.579-2.712c21.651-6.59,36.054-18.866,38.646-21.194
			c0.086-0.075,8.727-7.49,20.5-10.826c13.938-3.947,26.021-0.604,38.031,10.531c13.978,12.959,29.554,21.082,46.295,24.144
			c13.487,2.465,27.596,1.555,41.521-2.688c21.873-6.66,36.668-19.494,38.595-21.224c0.563-0.475,8.697-7.209,19.695-10.547
			c14.366-4.357,26.76-1.102,39.004,10.249c10.173,9.429,26.115,8.824,35.545-1.343C730.777,468.156,733.154,461.745,732.9,455.032z
			"/>
		
			<linearGradient id="SVGID_2_" gradientUnits="userSpaceOnUse" x1="74.876" y1="453.442" x2="611.8513" y2="453.442" gradientTransform="matrix(1 0 0 -1 0 705.89)">
			<stop  offset="0.0035" style="stop-color:#001F99"/>
			<stop  offset="1" style="stop-color:#64CDF4"/>
		</linearGradient>
		<path class="st2" d="M193.395,431.548L193.395,431.548c3.052,1.251,6.26,1.885,9.536,1.885c10.252,0,19.39-6.13,23.28-15.616
			l66.87-163.098l60.459,26.871l61.643-105.505L539.65,418.697c6.328,12.339,21.519,17.229,33.86,10.899
			c5.978-3.066,10.402-8.278,12.461-14.674s1.504-13.21-1.563-19.188L418.048,71.463l-85.227,145.869l-66.639-29.618
			l-86.516,211.019C174.404,411.565,180.563,426.285,193.395,431.548z"/>
		
			<linearGradient id="SVGID_3_" gradientUnits="userSpaceOnUse" x1="74.876" y1="118.7028" x2="611.8513" y2="118.7028" gradientTransform="matrix(1 0 0 -1 0 705.89)">
			<stop  offset="0.0035" style="stop-color:#001F99"/>
			<stop  offset="1" style="stop-color:#64CDF4"/>
		</linearGradient>
		<path class="st3" d="M169.144,505.015l-0.001-0.001c-12.686-5.6-27.567,0.163-33.17,12.848L83.717,636.183
			c-2.715,6.146-2.873,12.98-0.447,19.246c2.427,6.265,7.147,11.21,13.292,13.924c3.229,1.426,6.645,2.149,10.153,2.149
			c9.96,0,18.995-5.886,23.018-14.995l52.256-118.32c2.715-6.146,2.874-12.981,0.448-19.247
			C180.011,512.675,175.29,507.73,169.144,505.015z"/>
		
			<linearGradient id="SVGID_4_" gradientUnits="userSpaceOnUse" x1="74.876" y1="119.7691" x2="611.8513" y2="119.7691" gradientTransform="matrix(1 0 0 -1 0 705.89)">
			<stop  offset="0.0035" style="stop-color:#001F99"/>
			<stop  offset="1" style="stop-color:#64CDF4"/>
		</linearGradient>
		<path class="st4" d="M636.83,516.529L636.83,516.529c-3.07-5.976-8.284-10.398-14.681-12.453s-13.211-1.494-19.188,1.576
			c-12.335,6.339-17.215,21.531-10.877,33.867l59.706,116.202c4.329,8.427,12.907,13.662,22.387,13.662
			c3.966,0,7.936-0.963,11.48-2.784c12.334-6.338,17.215-21.53,10.878-33.867L636.83,516.529z"/>
	</g>
	<g>
		
			<linearGradient id="SVGID_5_" gradientUnits="userSpaceOnUse" x1="74.876" y1="249.7517" x2="611.8513" y2="249.7517" gradientTransform="matrix(1 0 0 -1 0 705.89)">
			<stop  offset="0.0035" style="stop-color:#001F99"/>
			<stop  offset="1" style="stop-color:#64CDF4"/>
		</linearGradient>
		<path class="st5" d="M732.9,455.032c-0.254-6.714-3.106-12.927-8.034-17.494c-13.975-12.956-29.548-21.082-46.289-24.152
			c-13.551-2.483-27.522-1.592-41.522,2.655c-21.748,6.6-36.546,19.332-38.649,21.21c-0.444,0.377-8.604,7.199-19.688,10.574
			c-14.348,4.372-26.727,1.12-38.961-10.225c-13.967-12.949-29.521-21.077-46.229-24.157c-13.541-2.496-27.492-1.61-41.467,2.63
			c-21.426,6.504-35.684,18.622-38.511,21.162c-0.611,0.514-8.787,7.263-19.82,10.621c-14.146,4.303-26.334,1.28-38.342-9.521
			c-0.178-0.178-0.358-0.354-0.55-0.532c-13.975-12.956-29.549-21.082-46.289-24.151c-13.554-2.486-27.524-1.593-41.523,2.655
			c-21.772,6.606-36.551,19.335-38.649,21.21c-0.443,0.376-8.603,7.198-19.688,10.573c-14.344,4.37-26.725,1.12-38.96-10.224
			c-13.967-12.949-29.521-21.077-46.229-24.158c-13.54-2.495-27.491-1.611-41.467,2.63c-22.139,6.721-37.001,19.795-38.623,21.264
			l-4.334,6.378c-4.57,9.148-3.229,20.581,4.018,28.397c9.372,10.106,25.18,10.764,35.359,1.514
			c2.944-2.237,10.062-7.12,19.044-9.666c13.937-3.947,26.021-0.604,38.031,10.531c13.978,12.959,29.554,21.082,46.295,24.144
			c4.943,0.904,10.011,1.362,15.062,1.362c8.732,0,17.634-1.362,26.459-4.049c21.362-6.506,35.703-18.64,38.527-21.163
			c0.564-0.479,9.101-7.593,20.613-10.856c13.735-3.895,25.627-0.772,37.411,9.826c0.18,0.18,0.362,0.356,0.553,0.534
			c13.982,12.965,29.579,21.086,46.353,24.138c13.486,2.453,27.626,1.536,41.579-2.712c21.651-6.59,36.054-18.866,38.646-21.194
			c0.086-0.075,8.727-7.49,20.5-10.826c13.938-3.947,26.021-0.604,38.031,10.531c13.978,12.959,29.554,21.082,46.295,24.144
			c13.487,2.465,27.596,1.555,41.521-2.688c21.873-6.66,36.668-19.494,38.595-21.224c0.563-0.475,8.697-7.209,19.695-10.547
			c14.366-4.357,26.76-1.102,39.004,10.249c10.173,9.429,26.115,8.824,35.545-1.343C730.777,468.156,733.154,461.745,732.9,455.032z
			"/>
		
			<linearGradient id="SVGID_6_" gradientUnits="userSpaceOnUse" x1="74.876" y1="453.442" x2="611.8513" y2="453.442" gradientTransform="matrix(1 0 0 -1 0 705.89)">
			<stop  offset="0.0035" style="stop-color:#001F99"/>
			<stop  offset="1" style="stop-color:#64CDF4"/>
		</linearGradient>
		<path class="st6" d="M193.395,431.548L193.395,431.548c3.052,1.251,6.26,1.885,9.536,1.885c10.252,0,19.39-6.13,23.28-15.616
			l66.87-163.098l60.459,26.871l61.643-105.505L539.65,418.697c6.328,12.339,21.519,17.229,33.86,10.899
			c5.978-3.066,10.402-8.278,12.461-14.674s1.504-13.21-1.563-19.188L418.048,71.463l-85.227,145.869l-66.639-29.618
			l-86.516,211.019C174.404,411.565,180.563,426.285,193.395,431.548z"/>
		
			<linearGradient id="SVGID_7_" gradientUnits="userSpaceOnUse" x1="74.876" y1="118.7028" x2="611.8513" y2="118.7028" gradientTransform="matrix(1 0 0 -1 0 705.89)">
			<stop  offset="0.0035" style="stop-color:#001F99"/>
			<stop  offset="1" style="stop-color:#64CDF4"/>
		</linearGradient>
		<path class="st7" d="M169.144,505.015l-0.001-0.001c-12.686-5.6-27.567,0.163-33.17,12.848L83.717,636.183
			c-2.715,6.146-2.873,12.98-0.447,19.246c2.427,6.265,7.147,11.21,13.292,13.924c3.229,1.426,6.645,2.149,10.153,2.149
			c9.96,0,18.995-5.886,23.018-14.995l52.256-118.32c2.715-6.146,2.874-12.981,0.448-19.247
			C180.011,512.675,175.29,507.73,169.144,505.015z"/>
		
			<linearGradient id="SVGID_8_" gradientUnits="userSpaceOnUse" x1="74.876" y1="119.7691" x2="611.8513" y2="119.7691" gradientTransform="matrix(1 0 0 -1 0 705.89)">
			<stop  offset="0.0035" style="stop-color:#001F99"/>
			<stop  offset="1" style="stop-color:#64CDF4"/>
		</linearGradient>
		<path class="st8" d="M636.83,516.529L636.83,516.529c-3.07-5.976-8.284-10.398-14.681-12.453s-13.211-1.494-19.188,1.576
			c-12.335,6.339-17.215,21.531-10.877,33.867l59.706,116.202c4.329,8.427,12.907,13.662,22.387,13.662
			c3.966,0,7.936-0.963,11.48-2.784c12.334-6.338,17.215-21.53,10.878-33.867L636.83,516.529z"/>
	</g>
</g>
</svg>
