<?xml version="1.0" encoding="utf-8"?>
<!-- Generator: Adobe Illustrator 17.0.2, SVG Export Plug-In . SVG Version: 6.00 Build 0)  -->
<!DOCTYPE svg PUBLIC "-//W3C//DTD SVG 1.1//EN" "http://www.w3.org/Graphics/SVG/1.1/DTD/svg11.dtd">
<svg version="1.1" id="Layer_1" xmlns="http://www.w3.org/2000/svg" xmlns:xlink="http://www.w3.org/1999/xlink" x="0px" y="0px"
	 width="381.987px" height="698.714px" viewBox="943.004 2654 381.987 698.714"
	 style="enable-background:new 943.004 2654 381.987 698.714;" xml:space="preserve">
<style type="text/css">
	.st0{fill:url(#SVGID_1_);stroke:#FFFFFF;stroke-width:40;stroke-miterlimit:10;}
	.st1{fill:#FFFFFF;stroke:#FFFFFF;stroke-width:40;stroke-miterlimit:10;}
	.st2{fill:url(#SVGID_2_);}
	.st3{fill:#FFFFFF;}
</style>
<g>
	<g>
		
			<linearGradient id="SVGID_1_" gradientUnits="userSpaceOnUse" x1="1134.0006" y1="-2616.7871" x2="1134.0006" y2="-1975.0732" gradientTransform="matrix(1 0 0 -1 0 707.427)">
			<stop  offset="0.0035" style="stop-color:#001F99"/>
			<stop  offset="1" style="stop-color:#64CDF4"/>
		</linearGradient>
		<path class="st0" d="M1110.883,3324.214c-49.026,0-84.609-37.87-84.609-90.047c0-25.495,8.413-48.492,23.689-64.756
			c15.335-16.325,36.979-25.316,60.945-25.316c50.179,0,84.537,36.137,85.496,89.921c0.001,0.051,0.001,0.101,0.001,0.151
			c0,53.019-35.157,90.047-85.497,90.047L1110.883,3324.214L1110.883,3324.214z M1056.99,3118.094c-4.574,0-8.328-3.62-8.495-8.19
			l-0.846-23.239c-2.791-50.249,14.813-99.203,52.327-145.514c27.972-35.743,47.767-63.041,47.767-88.809
			c0-36.442-29.369-44.746-54.047-45.285c-26.39,0.023-59.119,10.407-79.627,25.269c-1.47,1.065-3.22,1.617-4.988,1.617
			c-0.917,0-1.84-0.148-2.731-0.451c-2.61-0.886-4.629-2.982-5.415-5.625l-29.074-97.702c-1.111-3.733,0.458-7.743,3.806-9.732
			c19.199-11.406,71.977-37.933,147.206-37.933c54.831,0,100.043,15.331,130.75,44.334c27.646,26.112,42.871,63.04,42.871,103.98
			c0,68.796-39.937,114.917-72.025,151.974l-3.576,4.134c-29.583,35.319-42.418,68.123-41.613,106.35
			c0.001,0.06,0.002,16.321,0.002,16.321c0,4.694-3.806,8.5-8.5,8.5L1056.99,3118.094L1056.99,3118.094z"/>
		<path class="st1" d="M1122.872,2691c112.941,0,165.121,65.431,165.121,139.814c0,68.136-41.065,112.955-73.575,150.598
			c-30.799,36.754-44.487,71.704-43.638,112.04v16.142h-113.79l-0.849-23.318c-2.56-45.72,11.991-92.33,50.482-139.827
			c27.363-34.964,49.62-64.542,49.62-94.107c0-31.369-19.67-52.883-62.459-53.785c-28.226,0-62.446,10.757-84.703,26.886
			l-29.074-97.701C1011.668,2708.933,1062.123,2691,1122.872,2691 M1110.908,3152.595c46.198,0,76.134,33.173,76.996,81.573
			c0,46.609-29.95,81.546-76.996,81.546c-0.008,0-0.018,0-0.026,0c-45.336,0-76.108-34.945-76.108-81.546
			C1034.773,3185.768,1066.421,3152.595,1110.908,3152.595 M1122.872,2674c-29.648,0-58.908,4.024-86.967,11.959
			c-23.537,6.657-45.869,16.051-64.581,27.166c-6.697,3.978-9.833,11.999-7.612,19.465l29.074,97.701
			c1.572,5.284,5.609,9.477,10.83,11.249c1.783,0.605,3.628,0.902,5.463,0.902c3.538,0,7.037-1.104,9.977-3.235
			c19.171-13.892,49.798-23.605,74.549-23.651c16.081,0.365,28.515,4.167,35.965,10.998c6.418,5.884,9.672,14.56,9.672,25.787
			c0,23.037-19.028,49.153-45.923,83.521c-19.849,24.517-34.445,49.939-43.384,75.566c-8.565,24.554-12.191,49.998-10.778,75.628
			l0.843,23.155c0.333,9.142,7.841,16.381,16.989,16.381h113.791c9.389,0,17-7.611,17-17v-16.142c0-0.119-0.001-0.239-0.004-0.358
			c-0.758-36.005,11.454-67.057,39.59-100.666c1.165-1.349,2.341-2.707,3.526-4.075c33.014-38.125,74.1-85.573,74.1-157.539
			c0-21.091-3.748-41.128-11.14-59.556c-7.764-19.355-19.336-36.381-34.395-50.604c-15.782-14.906-35.13-26.449-57.506-34.308
			C1178.627,2678.154,1152.021,2674,1122.872,2674L1122.872,2674z M1110.908,3135.595c-26.338,0-50.182,9.943-67.141,27.998
			c-16.762,17.845-25.994,42.909-25.994,70.575c0,27.032,9.066,51.8,25.527,69.741c17.043,18.575,41.043,28.805,67.581,28.805
			c27.254,0,51.64-10.227,68.689-28.797c16.336-17.793,25.333-42.563,25.333-69.749c0-0.101-0.001-0.202-0.003-0.303
			c-0.502-28.187-9.513-52.469-26.058-70.223C1161.745,3145.293,1138.253,3135.595,1110.908,3135.595L1110.908,3135.595z"/>
	</g>
</g>
<g>
	<g>
		
			<linearGradient id="SVGID_2_" gradientUnits="userSpaceOnUse" x1="1134.0006" y1="-2616.7871" x2="1134.0006" y2="-1975.0732" gradientTransform="matrix(1 0 0 -1 0 707.427)">
			<stop  offset="0.0035" style="stop-color:#001F99"/>
			<stop  offset="1" style="stop-color:#64CDF4"/>
		</linearGradient>
		<path class="st2" d="M1110.883,3324.214c-49.026,0-84.609-37.87-84.609-90.047c0-25.495,8.413-48.492,23.689-64.756
			c15.335-16.325,36.979-25.316,60.945-25.316c50.179,0,84.537,36.137,85.496,89.921c0.001,0.051,0.001,0.101,0.001,0.151
			c0,53.019-35.157,90.047-85.497,90.047L1110.883,3324.214L1110.883,3324.214z M1056.99,3118.094c-4.574,0-8.328-3.62-8.495-8.19
			l-0.846-23.239c-2.791-50.249,14.813-99.203,52.327-145.514c27.972-35.743,47.767-63.041,47.767-88.809
			c0-36.442-29.369-44.746-54.047-45.285c-26.39,0.023-59.119,10.407-79.627,25.269c-1.47,1.065-3.22,1.617-4.988,1.617
			c-0.917,0-1.84-0.148-2.731-0.451c-2.61-0.886-4.629-2.982-5.415-5.625l-29.074-97.702c-1.111-3.733,0.458-7.743,3.806-9.732
			c19.199-11.406,71.977-37.933,147.206-37.933c54.831,0,100.043,15.331,130.75,44.334c27.646,26.112,42.871,63.04,42.871,103.98
			c0,68.796-39.937,114.917-72.025,151.974l-3.576,4.134c-29.583,35.319-42.418,68.123-41.613,106.35
			c0.001,0.06,0.002,16.321,0.002,16.321c0,4.694-3.806,8.5-8.5,8.5L1056.99,3118.094L1056.99,3118.094z"/>
		<path class="st3" d="M1122.872,2691c112.941,0,165.121,65.431,165.121,139.814c0,68.136-41.065,112.955-73.575,150.598
			c-30.799,36.754-44.487,71.704-43.638,112.04v16.142h-113.79l-0.849-23.318c-2.56-45.72,11.991-92.33,50.482-139.827
			c27.363-34.964,49.62-64.542,49.62-94.107c0-31.369-19.67-52.883-62.459-53.785c-28.226,0-62.446,10.757-84.703,26.886
			l-29.074-97.701C1011.668,2708.933,1062.123,2691,1122.872,2691 M1110.908,3152.595c46.198,0,76.134,33.173,76.996,81.573
			c0,46.609-29.95,81.546-76.996,81.546c-0.008,0-0.018,0-0.026,0c-45.336,0-76.108-34.945-76.108-81.546
			C1034.773,3185.768,1066.421,3152.595,1110.908,3152.595 M1122.872,2674c-29.648,0-58.908,4.024-86.967,11.959
			c-23.537,6.657-45.869,16.051-64.581,27.166c-6.697,3.978-9.833,11.999-7.612,19.465l29.074,97.701
			c1.572,5.284,5.609,9.477,10.83,11.249c1.783,0.605,3.628,0.902,5.463,0.902c3.538,0,7.037-1.104,9.977-3.235
			c19.171-13.892,49.798-23.605,74.549-23.651c16.081,0.365,28.515,4.167,35.965,10.998c6.418,5.884,9.672,14.56,9.672,25.787
			c0,23.037-19.028,49.153-45.923,83.521c-19.849,24.517-34.445,49.939-43.384,75.566c-8.565,24.554-12.191,49.998-10.778,75.628
			l0.843,23.155c0.333,9.142,7.841,16.381,16.989,16.381h113.791c9.389,0,17-7.611,17-17v-16.142c0-0.119-0.001-0.239-0.004-0.358
			c-0.758-36.005,11.454-67.057,39.59-100.666c1.165-1.349,2.341-2.707,3.526-4.075c33.014-38.125,74.1-85.573,74.1-157.539
			c0-21.091-3.748-41.128-11.14-59.556c-7.764-19.355-19.336-36.381-34.395-50.604c-15.782-14.906-35.13-26.449-57.506-34.308
			C1178.627,2678.154,1152.021,2674,1122.872,2674L1122.872,2674z M1110.908,3135.595c-26.338,0-50.182,9.943-67.141,27.998
			c-16.762,17.845-25.994,42.909-25.994,70.575c0,27.032,9.066,51.8,25.527,69.741c17.043,18.575,41.043,28.805,67.581,28.805
			c27.254,0,51.64-10.227,68.689-28.797c16.336-17.793,25.333-42.563,25.333-69.749c0-0.101-0.001-0.202-0.003-0.303
			c-0.502-28.187-9.513-52.469-26.058-70.223C1161.745,3145.293,1138.253,3135.595,1110.908,3135.595L1110.908,3135.595z"/>
	</g>
</g>
</svg>
