<?xml version="1.0" encoding="utf-8"?>
<!-- Generator: Adobe Illustrator 19.2.0, SVG Export Plug-In . SVG Version: 6.00 Build 0)  -->
<svg version="1.1" id="Layer_1" xmlns="http://www.w3.org/2000/svg" xmlns:xlink="http://www.w3.org/1999/xlink" x="0px" y="0px"
	 viewBox="0 0 461.241 854.805" style="enable-background:new 0 0 461.241 854.805;" xml:space="preserve">
<style type="text/css">
	.st0{fill:#FFFFFF;}
</style>
<g>
	<path class="st0" d="M366.651,273.067c-13.735-18.69-31.444-33.515-51.898-43.578V79.1v-0.681c0-2.614-0.259-5.167-0.737-7.642
		c0.388-2.238,0.602-4.535,0.602-6.884V42.104c0-22.091-17.908-40-40-40h-88.089c-22.091,0-40,17.909-40,40v21.788
		c0,2.442,0.231,4.829,0.65,7.151c-0.446,2.392-0.69,4.854-0.69,7.375v151.254c-12.898,6.4-24.719,14.733-35.294,24.896
		c-24.911,23.94-40.202,55.898-43.203,90.193c-0.672,4.235-1.012,8.537-1.012,12.823v413.349c0,45.086,36.681,81.767,81.767,81.767
		h163.622c45.086,0,81.767-36.68,81.767-81.767V529.565c0.084-2.007,0.126-3.997,0.126-5.931V357.285
		C394.261,326.77,384.714,297.648,366.651,273.067z"/>
	<g>
		<path d="M281.994,260.019c-3.166-2.003-7.835-6.133-9.242-13.598V79.099v-0.681h-0.422h-87.42h-0.422v168.003
			c-1.474,7.825-6.534,11.986-9.688,13.874c-14.021,4.775-26.94,12.592-37.889,23.115c-18.356,17.641-29.36,41.104-31.194,66.36
			c-0.491,2.572-0.738,5.186-0.738,7.815v413.349c0,23.03,18.737,41.767,41.767,41.767h163.623c23.03,0,41.767-18.736,41.767-41.767
			v-242.27c0.084-1.713,0.126-3.401,0.126-5.03V357.285C352.261,312.032,322.767,273.543,281.994,260.019z"/>
		<rect x="184.528" y="42.104" width="88.089" height="21.788"/>
	</g>
</g>
</svg>
