<?xml version="1.0" encoding="utf-8"?>
<!-- Generator: Adobe Illustrator 17.0.2, SVG Export Plug-In . SVG Version: 6.00 Build 0)  -->
<!DOCTYPE svg PUBLIC "-//W3C//DTD SVG 1.1//EN" "http://www.w3.org/Graphics/SVG/1.1/DTD/svg11.dtd">
<svg version="1.1" id="Layer_1" xmlns="http://www.w3.org/2000/svg" xmlns:xlink="http://www.w3.org/1999/xlink" x="0px" y="0px"
	 width="381.987px" height="698.714px" viewBox="-20 -20.001 381.987 698.714"
	 style="enable-background:new -20 -20.001 381.987 698.714;" xml:space="preserve">
<style type="text/css">
	.st0{stroke:#FFFFFF;stroke-width:40;stroke-miterlimit:10;}
	.st1{fill:#FFFFFF;stroke:#FFFFFF;stroke-width:40;stroke-miterlimit:10;}
	.st2{fill:#FFFFFF;}
</style>
<g>
	<g>
		<path class="st0" d="M147.879,650.213c-49.026,0-84.609-37.87-84.609-90.047c0-25.495,8.413-48.492,23.689-64.756
			c15.335-16.325,36.979-25.316,60.945-25.316c50.179,0,84.537,36.137,85.496,89.921c0.001,0.051,0.001,0.101,0.001,0.151
			c0,53.019-35.157,90.047-85.497,90.047H147.879L147.879,650.213z M93.986,444.093c-4.574,0-8.328-3.62-8.495-8.19l-0.846-23.239
			c-2.791-50.249,14.813-99.203,52.327-145.514c27.972-35.743,47.767-63.041,47.767-88.809c0-36.442-29.369-44.746-54.047-45.285
			c-26.39,0.023-59.119,10.407-79.627,25.269c-1.47,1.065-3.22,1.617-4.988,1.617c-0.917,0-1.84-0.148-2.731-0.451
			c-2.61-0.886-4.629-2.982-5.415-5.625L8.857,56.164c-1.111-3.733,0.458-7.743,3.806-9.732
			C31.862,35.026,84.64,8.499,159.869,8.499c54.831,0,100.043,15.331,130.75,44.334c27.646,26.112,42.871,63.04,42.871,103.98
			c0,68.796-39.937,114.917-72.025,151.974l-3.576,4.134c-29.583,35.319-42.418,68.123-41.613,106.35
			c0.001,0.06,0.002,16.321,0.002,16.321c0,4.694-3.806,8.5-8.5,8.5L93.986,444.093L93.986,444.093z"/>
		<path class="st1" d="M159.868,16.999c112.941,0,165.121,65.431,165.121,139.814c0,68.136-41.065,112.955-73.575,150.598
			c-30.799,36.754-44.487,71.704-43.638,112.04v16.142H93.986l-0.849-23.318c-2.56-45.72,11.991-92.33,50.482-139.827
			c27.363-34.964,49.62-64.542,49.62-94.107c0-31.369-19.67-52.883-62.459-53.785c-28.226,0-62.446,10.757-84.703,26.886
			L17.003,53.741C48.664,34.932,99.119,16.999,159.868,16.999 M147.904,478.594c46.198,0,76.134,33.173,76.996,81.573
			c0,46.609-29.95,81.546-76.996,81.546c-0.008,0-0.018,0-0.026,0c-45.336,0-76.108-34.945-76.108-81.546
			C71.769,511.767,103.417,478.594,147.904,478.594 M159.868-0.001c-29.648,0-58.908,4.024-86.967,11.959
			C49.364,18.615,27.031,28.009,8.32,39.124c-6.697,3.978-9.833,11.999-7.612,19.465l29.074,97.701
			c1.572,5.284,5.609,9.477,10.83,11.249c1.783,0.605,3.628,0.902,5.463,0.902c3.538,0,7.037-1.104,9.977-3.235
			c19.171-13.892,49.798-23.605,74.549-23.651c16.081,0.365,28.515,4.167,35.965,10.998c6.418,5.884,9.672,14.56,9.672,25.787
			c0,23.037-19.028,49.153-45.923,83.521c-19.85,24.517-34.445,49.939-43.385,75.566c-8.565,24.554-12.191,49.998-10.778,75.628
			l0.843,23.155c0.333,9.142,7.841,16.381,16.989,16.381h113.791c9.389,0,17-7.611,17-17v-16.142c0-0.119-0.001-0.239-0.004-0.358
			c-0.758-36.005,11.454-67.057,39.59-100.666c1.165-1.349,2.341-2.707,3.526-4.075c33.014-38.125,74.1-85.573,74.1-157.539
			c0-21.091-3.748-41.128-11.14-59.556c-7.764-19.355-19.336-36.381-34.395-50.604c-15.782-14.906-35.13-26.449-57.506-34.308
			C215.623,4.153,189.017-0.001,159.868-0.001L159.868-0.001z M147.904,461.594c-26.338,0-50.182,9.943-67.141,27.998
			c-16.762,17.845-25.994,42.909-25.994,70.575c0,27.032,9.066,51.8,25.527,69.741c17.043,18.575,41.043,28.805,67.581,28.805
			c27.254,0,51.64-10.227,68.689-28.797c16.336-17.793,25.333-42.563,25.333-69.749c0-0.101-0.001-0.202-0.003-0.303
			c-0.502-28.187-9.513-52.469-26.058-70.223C198.741,471.292,175.249,461.594,147.904,461.594L147.904,461.594z"/>
	</g>
</g>
<g>
	<g>
		<path d="M147.879,650.213c-49.026,0-84.609-37.87-84.609-90.047c0-25.495,8.413-48.492,23.689-64.756
			c15.335-16.325,36.979-25.316,60.945-25.316c50.179,0,84.537,36.137,85.496,89.921c0.001,0.051,0.001,0.101,0.001,0.151
			c0,53.019-35.157,90.047-85.497,90.047H147.879L147.879,650.213z M93.986,444.093c-4.574,0-8.328-3.62-8.495-8.19l-0.846-23.239
			c-2.791-50.249,14.813-99.203,52.327-145.514c27.972-35.743,47.767-63.041,47.767-88.809c0-36.442-29.369-44.746-54.047-45.285
			c-26.39,0.023-59.119,10.407-79.627,25.269c-1.47,1.065-3.22,1.617-4.988,1.617c-0.917,0-1.84-0.148-2.731-0.451
			c-2.61-0.886-4.629-2.982-5.415-5.625L8.857,56.164c-1.111-3.733,0.458-7.743,3.806-9.732
			C31.862,35.026,84.64,8.499,159.869,8.499c54.831,0,100.043,15.331,130.75,44.334c27.646,26.112,42.871,63.04,42.871,103.98
			c0,68.796-39.937,114.917-72.025,151.974l-3.576,4.134c-29.583,35.319-42.418,68.123-41.613,106.35
			c0.001,0.06,0.002,16.321,0.002,16.321c0,4.694-3.806,8.5-8.5,8.5L93.986,444.093L93.986,444.093z"/>
		<path class="st2" d="M159.868,16.999c112.941,0,165.121,65.431,165.121,139.814c0,68.136-41.065,112.955-73.575,150.598
			c-30.799,36.754-44.487,71.704-43.638,112.04v16.142H93.986l-0.849-23.318c-2.56-45.72,11.991-92.33,50.482-139.827
			c27.363-34.964,49.62-64.542,49.62-94.107c0-31.369-19.67-52.883-62.459-53.785c-28.226,0-62.446,10.757-84.703,26.886
			L17.003,53.741C48.664,34.932,99.119,16.999,159.868,16.999 M147.904,478.594c46.198,0,76.134,33.173,76.996,81.573
			c0,46.609-29.95,81.546-76.996,81.546c-0.008,0-0.018,0-0.026,0c-45.336,0-76.108-34.945-76.108-81.546
			C71.769,511.767,103.417,478.594,147.904,478.594 M159.868-0.001c-29.648,0-58.908,4.024-86.967,11.959
			C49.364,18.615,27.031,28.009,8.32,39.124c-6.697,3.978-9.833,11.999-7.612,19.465l29.074,97.701
			c1.572,5.284,5.609,9.477,10.83,11.249c1.783,0.605,3.628,0.902,5.463,0.902c3.538,0,7.037-1.104,9.977-3.235
			c19.171-13.892,49.798-23.605,74.549-23.651c16.081,0.365,28.515,4.167,35.965,10.998c6.418,5.884,9.672,14.56,9.672,25.787
			c0,23.037-19.028,49.153-45.923,83.521c-19.85,24.517-34.445,49.939-43.385,75.566c-8.565,24.554-12.191,49.998-10.778,75.628
			l0.843,23.155c0.333,9.142,7.841,16.381,16.989,16.381h113.791c9.389,0,17-7.611,17-17v-16.142c0-0.119-0.001-0.239-0.004-0.358
			c-0.758-36.005,11.454-67.057,39.59-100.666c1.165-1.349,2.341-2.707,3.526-4.075c33.014-38.125,74.1-85.573,74.1-157.539
			c0-21.091-3.748-41.128-11.14-59.556c-7.764-19.355-19.336-36.381-34.395-50.604c-15.782-14.906-35.13-26.449-57.506-34.308
			C215.623,4.153,189.017-0.001,159.868-0.001L159.868-0.001z M147.904,461.594c-26.338,0-50.182,9.943-67.141,27.998
			c-16.762,17.845-25.994,42.909-25.994,70.575c0,27.032,9.066,51.8,25.527,69.741c17.043,18.575,41.043,28.805,67.581,28.805
			c27.254,0,51.64-10.227,68.689-28.797c16.336-17.793,25.333-42.563,25.333-69.749c0-0.101-0.001-0.202-0.003-0.303
			c-0.502-28.187-9.513-52.469-26.058-70.223C198.741,471.292,175.249,461.594,147.904,461.594L147.904,461.594z"/>
	</g>
</g>
</svg>
