<?xml version="1.0" encoding="utf-8"?>
<!-- Generator: Adobe Illustrator 17.0.2, SVG Export Plug-In . SVG Version: 6.00 Build 0)  -->
<!DOCTYPE svg PUBLIC "-//W3C//DTD SVG 1.1//EN" "http://www.w3.org/Graphics/SVG/1.1/DTD/svg11.dtd">
<svg version="1.1" id="Calque_1" xmlns="http://www.w3.org/2000/svg" xmlns:xlink="http://www.w3.org/1999/xlink" x="0px" y="0px"
	 width="444.241px" height="748.829px" viewBox="-11.501 -11.499 444.241 748.829"
	 style="enable-background:new -11.501 -11.499 444.241 748.829;" xml:space="preserve">
<style type="text/css">
	.st0{fill:url(#SVGID_1_);stroke:#FFFFFF;stroke-width:40;stroke-miterlimit:10;}
	.st1{fill:url(#SVGID_2_);stroke:#FFFFFF;stroke-width:40;stroke-miterlimit:10;}
	.st2{fill:url(#SVGID_3_);stroke:#FFFFFF;stroke-width:40;stroke-miterlimit:10;}
	.st3{fill:url(#SVGID_4_);stroke:#FFFFFF;stroke-width:40;stroke-miterlimit:10;}
	.st4{fill:url(#SVGID_5_);stroke:#FFFFFF;stroke-width:40;stroke-miterlimit:10;}
	.st5{fill:url(#SVGID_6_);}
	.st6{fill:url(#SVGID_7_);}
	.st7{fill:url(#SVGID_8_);}
	.st8{fill:url(#SVGID_9_);}
	.st9{fill:url(#SVGID_10_);}
	.st10{fill:#FFFFFF;}
</style>
<g id="Calque_2_1_">
	<g>
		
			<linearGradient id="SVGID_1_" gradientUnits="userSpaceOnUse" x1="8.499" y1="161.517" x2="412.74" y2="161.517" gradientTransform="matrix(1 0 0 1 0 114.829)">
			<stop  offset="0" style="stop-color:#FFC708"/>
			<stop  offset="1" style="stop-color:#C62542"/>
		</linearGradient>
		<path class="st0" d="M155.71,544.191c-34.271,0-46.245-12.379-53.383-55.188c-6.869-41.209-17.698-88.867-66.956-177.6
			C17.539,279.231,8.499,245.326,8.499,210.626C8.499,99.173,99.168,8.501,210.615,8.501c111.453,0,202.125,90.673,202.125,202.125
			c0,34.726-9.044,68.631-26.88,100.775c-49.256,88.754-60.081,136.403-66.947,177.601c-7.149,42.812-19.128,55.189-53.401,55.189
			L155.71,544.191L155.71,544.191z"/>
		
			<linearGradient id="SVGID_2_" gradientUnits="userSpaceOnUse" x1="122.559" y1="448.715" x2="298.682" y2="448.715" gradientTransform="matrix(1 0 0 1 0 114.829)">
			<stop  offset="0" style="stop-color:#FFC708"/>
			<stop  offset="1" style="stop-color:#C62542"/>
		</linearGradient>
		<path class="st1" d="M141.436,585.881c-10.409,0-18.877-8.468-18.877-18.877v-6.921c0-10.408,8.468-18.876,18.877-18.876h138.37
			c10.408,0,18.876,8.468,18.876,18.876v6.921c0,10.409-8.468,18.877-18.876,18.877H141.436z"/>
		
			<linearGradient id="SVGID_3_" gradientUnits="userSpaceOnUse" x1="122.559" y1="490.221" x2="298.682" y2="490.221" gradientTransform="matrix(1 0 0 1 0 114.829)">
			<stop  offset="0" style="stop-color:#FFC708"/>
			<stop  offset="1" style="stop-color:#C62542"/>
		</linearGradient>
		<path class="st2" d="M141.436,627.387c-10.409,0-18.877-8.468-18.877-18.877v-6.911c0-10.414,8.468-18.886,18.877-18.886h138.37
			c10.408,0,18.876,8.472,18.876,18.886v6.911c0,10.409-8.468,18.877-18.876,18.877H141.436z"/>
		
			<linearGradient id="SVGID_4_" gradientUnits="userSpaceOnUse" x1="122.559" y1="531.7371" x2="298.682" y2="531.7371" gradientTransform="matrix(1 0 0 1 0 114.829)">
			<stop  offset="0" style="stop-color:#FFC708"/>
			<stop  offset="1" style="stop-color:#C62542"/>
		</linearGradient>
		<path class="st3" d="M141.436,668.903c-10.409,0-18.877-8.468-18.877-18.877v-6.92c0-10.409,8.468-18.877,18.877-18.877h138.37
			c10.408,0,18.876,8.468,18.876,18.877v6.92c0,10.409-8.468,18.877-18.876,18.877H141.436z"/>
		
			<linearGradient id="SVGID_5_" gradientUnits="userSpaceOnUse" x1="150.233" y1="576.7035" x2="271.008" y2="576.7035" gradientTransform="matrix(1 0 0 1 0 114.829)">
			<stop  offset="0" style="stop-color:#FFC708"/>
			<stop  offset="1" style="stop-color:#C62542"/>
		</linearGradient>
		<path class="st4" d="M210.616,717.33c-29.161,0-60.383-17.316-60.383-43.095c0-4.694,3.806-8.5,8.5-8.5h103.775
			c4.694,0,8.5,3.806,8.5,8.5C271.008,700.013,239.781,717.33,210.616,717.33z"/>
	</g>
</g>
<g id="Calque_2">
	<g>
		
			<linearGradient id="SVGID_6_" gradientUnits="userSpaceOnUse" x1="8.499" y1="161.517" x2="412.74" y2="161.517" gradientTransform="matrix(1 0 0 1 0 114.829)">
			<stop  offset="0" style="stop-color:#FFC708"/>
			<stop  offset="1" style="stop-color:#C62542"/>
		</linearGradient>
		<path class="st5" d="M155.71,544.191c-34.271,0-46.245-12.379-53.383-55.188c-6.869-41.209-17.698-88.867-66.956-177.6
			C17.539,279.231,8.499,245.326,8.499,210.626C8.499,99.173,99.168,8.501,210.615,8.501c111.453,0,202.125,90.673,202.125,202.125
			c0,34.726-9.044,68.631-26.88,100.775c-49.256,88.754-60.081,136.403-66.947,177.601c-7.149,42.812-19.128,55.189-53.401,55.189
			L155.71,544.191L155.71,544.191z"/>
		
			<linearGradient id="SVGID_7_" gradientUnits="userSpaceOnUse" x1="122.559" y1="448.715" x2="298.682" y2="448.715" gradientTransform="matrix(1 0 0 1 0 114.829)">
			<stop  offset="0" style="stop-color:#FFC708"/>
			<stop  offset="1" style="stop-color:#C62542"/>
		</linearGradient>
		<path class="st6" d="M141.436,585.881c-10.409,0-18.877-8.468-18.877-18.877v-6.921c0-10.408,8.468-18.876,18.877-18.876h138.37
			c10.408,0,18.876,8.468,18.876,18.876v6.921c0,10.409-8.468,18.877-18.876,18.877H141.436z"/>
		
			<linearGradient id="SVGID_8_" gradientUnits="userSpaceOnUse" x1="122.559" y1="490.221" x2="298.682" y2="490.221" gradientTransform="matrix(1 0 0 1 0 114.829)">
			<stop  offset="0" style="stop-color:#FFC708"/>
			<stop  offset="1" style="stop-color:#C62542"/>
		</linearGradient>
		<path class="st7" d="M141.436,627.387c-10.409,0-18.877-8.468-18.877-18.877v-6.911c0-10.414,8.468-18.886,18.877-18.886h138.37
			c10.408,0,18.876,8.472,18.876,18.886v6.911c0,10.409-8.468,18.877-18.876,18.877H141.436z"/>
		
			<linearGradient id="SVGID_9_" gradientUnits="userSpaceOnUse" x1="122.559" y1="531.7371" x2="298.682" y2="531.7371" gradientTransform="matrix(1 0 0 1 0 114.829)">
			<stop  offset="0" style="stop-color:#FFC708"/>
			<stop  offset="1" style="stop-color:#C62542"/>
		</linearGradient>
		<path class="st8" d="M141.436,668.903c-10.409,0-18.877-8.468-18.877-18.877v-6.92c0-10.409,8.468-18.877,18.877-18.877h138.37
			c10.408,0,18.876,8.468,18.876,18.877v6.92c0,10.409-8.468,18.877-18.876,18.877H141.436z"/>
		
			<linearGradient id="SVGID_10_" gradientUnits="userSpaceOnUse" x1="150.233" y1="576.7035" x2="271.008" y2="576.7035" gradientTransform="matrix(1 0 0 1 0 114.829)">
			<stop  offset="0" style="stop-color:#FFC708"/>
			<stop  offset="1" style="stop-color:#C62542"/>
		</linearGradient>
		<path class="st9" d="M210.616,717.33c-29.161,0-60.383-17.316-60.383-43.095c0-4.694,3.806-8.5,8.5-8.5h103.775
			c4.694,0,8.5,3.806,8.5,8.5C271.008,700.013,239.781,717.33,210.616,717.33z"/>
	</g>
</g>
<g id="Layer_1">
	<g>
		<path class="st10" d="M210.616,17c106.936,0,193.625,86.68,193.625,193.625c0,35.203-9.879,67.936-25.812,96.651
			c-47.542,85.667-60.14,133.771-67.899,180.327c-6.515,39.009-15.518,48.086-45.017,48.086c-12.515,0-33.047,0-54.896,0
			c-21.85,0-42.373,0-54.905,0c-29.48,0-38.493-9.068-44.999-48.086c-7.76-46.547-20.348-94.652-67.908-180.328
			c-15.915-28.715-25.803-61.448-25.803-96.651C17,103.681,103.689,17,210.616,17 M210.616,0c-28.425,0-56.008,5.571-81.984,16.558
			C103.55,27.167,81.027,42.35,61.69,61.688c-19.338,19.338-34.522,41.861-45.131,66.944C5.571,154.611,0,182.197,0,210.626
			c0,36.158,9.398,71.449,27.934,104.892C76.54,403.078,87.195,449.922,93.943,490.4c3.427,20.55,7.849,36.5,18.297,47.556
			c12.271,12.984,28.86,14.735,43.471,14.735h54.905h54.896c14.615,0,31.21-1.751,43.483-14.738
			c10.445-11.052,14.87-27.001,18.302-47.547c6.745-40.472,17.397-87.307,65.996-174.878
			c18.545-33.422,27.948-68.715,27.948-104.901c0-28.429-5.571-56.015-16.559-81.994c-10.609-25.083-25.794-47.607-45.132-66.945
			c-19.338-19.337-41.861-34.521-66.945-45.13C266.628,5.571,239.043,0,210.616,0L210.616,0z"/>
	</g>
	<g>
		<path class="st10" d="M279.805,549.707c5.723,0,10.376,4.635,10.376,10.376v6.921c0,5.732-4.654,10.377-10.376,10.377h-138.37
			c-5.723,0-10.377-4.645-10.377-10.377v-6.921c0-5.741,4.654-10.376,10.377-10.376H279.805 M279.805,532.707h-138.37
			c-15.096,0-27.377,12.281-27.377,27.376v6.921c0,15.095,12.281,27.377,27.377,27.377h138.37c15.095,0,27.376-12.281,27.376-27.377
			v-6.921C307.182,544.988,294.901,532.707,279.805,532.707L279.805,532.707z"/>
	</g>
	<g>
		<path class="st10" d="M279.805,591.213c5.723,0,10.376,4.645,10.376,10.386v6.912c0,5.741-4.654,10.377-10.376,10.377h-138.37
			c-5.723,0-10.377-4.635-10.377-10.377v-6.912c0-5.741,4.654-10.386,10.377-10.386H279.805 M279.805,574.213h-138.37
			c-15.096,0-27.377,12.285-27.377,27.386v6.912c0,15.095,12.281,27.377,27.377,27.377h138.37c15.095,0,27.376-12.281,27.376-27.377
			v-6.912C307.182,586.499,294.901,574.213,279.805,574.213L279.805,574.213z"/>
	</g>
	<g>
		<path class="st10" d="M279.805,632.729c5.723,0,10.376,4.635,10.376,10.377v6.921c0,5.732-4.654,10.376-10.376,10.376h-138.37
			c-5.723,0-10.377-4.645-10.377-10.376v-6.921c0-5.741,4.654-10.377,10.377-10.377H279.805 M279.805,615.729h-138.37
			c-15.096,0-27.377,12.281-27.377,27.377v6.921c0,15.095,12.281,27.376,27.377,27.376h138.37c15.095,0,27.376-12.281,27.376-27.376
			v-6.921C307.182,628.01,294.901,615.729,279.805,615.729L279.805,615.729z"/>
	</g>
	<g>
		<path class="st10" d="M262.508,674.235c0,20.762-27.674,34.595-51.892,34.595c-24.209,0-51.883-13.832-51.883-34.595H262.508
			 M262.508,657.235H158.733c-9.389,0-17,7.611-17,17c0,15.717,8.887,29.782,25.024,39.604c12.518,7.62,28.504,11.99,43.859,11.99
			c15.359,0,31.347-4.37,43.866-11.99c16.138-9.822,25.026-23.887,25.026-39.605C279.508,664.846,271.897,657.235,262.508,657.235
			L262.508,657.235z"/>
	</g>
</g>
</svg>
