<?xml version="1.0" encoding="utf-8"?>
<!-- Generator: Adobe Illustrator 17.0.2, SVG Export Plug-In . SVG Version: 6.00 Build 0)  -->
<!DOCTYPE svg PUBLIC "-//W3C//DTD SVG 1.1//EN" "http://www.w3.org/Graphics/SVG/1.1/DTD/svg11.dtd">
<svg version="1.1" id="Layer_1" xmlns="http://www.w3.org/2000/svg" xmlns:xlink="http://www.w3.org/1999/xlink" x="0px" y="0px"
	 width="615.513px" height="683.328px" viewBox="-20 -20 615.513 683.328" style="enable-background:new -20 -20 615.513 683.328;"
	 xml:space="preserve">
<style type="text/css">
	.st0{stroke:#FFFFFF;stroke-width:40;stroke-linecap:round;stroke-linejoin:round;stroke-miterlimit:10;}
	.st1{fill:#FFFFFF;stroke:#FFFFFF;stroke-width:40;stroke-linecap:round;stroke-linejoin:round;stroke-miterlimit:10;}
	.st2{fill:#FFFFFF;}
</style>
<g>
	<path class="st0" d="M289.204,634.828c-14.269,0-25.876-11.518-25.876-25.674v-68.972l-59.541,33.975
		c-3.921,2.237-8.376,3.42-12.883,3.42c-9.207,0.001-17.792-4.904-22.405-12.801c-3.465-5.932-4.396-12.847-2.621-19.471
		c1.785-6.662,6.085-12.223,12.108-15.659l85.342-48.7V366.047l-101.024,57.647v92.777c0,14.156-11.608,25.674-25.877,25.674
		s-25.876-11.518-25.876-25.674v-63.247l-60.358,34.438c-3.917,2.238-8.375,3.422-12.886,3.422c-9.204,0-17.789-4.905-22.404-12.8
		c-3.465-5.934-4.395-12.848-2.619-19.473c1.785-6.662,6.085-12.224,12.107-15.66l60.175-34.335l-63.074-35.99
		c-6.024-3.438-10.324-9.002-12.108-15.666c-1.773-6.624-0.843-13.537,2.622-19.466c4.616-7.896,13.202-12.801,22.407-12.801
		c4.505,0,8.959,1.182,12.881,3.419l89.177,50.885l100.83-57.533l-98.2-56.033l-88.908,50.73c-3.92,2.238-8.376,3.421-12.886,3.421
		c-9.204,0-17.789-4.905-22.404-12.8c-3.466-5.938-4.395-12.854-2.618-19.479c1.787-6.66,6.086-12.22,12.108-15.654l62.804-35.837
		L24.39,200.175c-6.019-3.433-10.319-8.992-12.106-15.652c-1.777-6.626-0.848-13.542,2.615-19.476
		c4.617-7.898,13.203-12.803,22.41-12.803c4.508,0,8.963,1.183,12.884,3.421l63.253,36.092v-63.55
		c0-14.157,11.608-25.674,25.877-25.674S165.2,114.05,165.2,128.207v93.082l98.128,55.992v-115.2l-84.813-48.396
		c-6.024-3.438-10.325-9-12.11-15.662c-1.774-6.624-0.844-13.538,2.62-19.468c4.615-7.897,13.2-12.802,22.406-12.802
		c4.507,0,8.962,1.183,12.885,3.42l59.011,33.672V34.174c0-14.157,11.608-25.674,25.876-25.674s25.877,11.517,25.877,25.674v68.671
		l59.015-33.672c3.919-2.238,8.376-3.422,12.884-3.422c9.207,0,17.793,4.906,22.406,12.803c3.465,5.934,4.394,12.849,2.618,19.473
		c-1.785,6.66-6.085,12.221-12.106,15.657l-84.816,48.397v115.2l105.415-60.149v-93.276c0-14.157,11.608-25.674,25.877-25.674
		s25.877,11.517,25.877,25.674v63.745l55.97-31.937c3.921-2.238,8.377-3.421,12.885-3.421c9.209,0,17.794,4.906,22.405,12.804
		c3.465,5.931,4.395,12.848,2.618,19.474c-1.785,6.661-6.086,12.221-12.107,15.655l-55.755,31.815l55.757,31.814
		c6.022,3.437,10.322,8.999,12.106,15.66c1.775,6.625,0.844,13.539-2.62,19.47c-4.611,7.896-13.196,12.803-22.402,12.803
		c-4.511,0-8.968-1.184-12.889-3.423l-81.856-46.707l-105.25,60.057l105.25,60.058l81.858-46.709
		c3.921-2.238,8.377-3.421,12.885-3.421c9.209,0,17.794,4.906,22.405,12.805c3.464,5.929,4.395,12.844,2.619,19.468
		c-1.784,6.662-6.084,12.223-12.106,15.66l-55.756,31.813l55.756,31.813c6.022,3.438,10.322,9,12.107,15.662
		c1.774,6.625,0.843,13.54-2.622,19.469c-4.611,7.896-13.195,12.802-22.401,12.802c-4.513,0-8.97-1.185-12.891-3.425l-55.966-31.932
		v63.743c0,14.156-11.608,25.674-25.877,25.674s-25.877-11.518-25.877-25.674v-93.275l-105.415-60.148v114.897l85.347,48.701
		c6.022,3.438,10.321,8.999,12.106,15.661c1.774,6.624,0.844,13.538-2.62,19.468c-4.611,7.897-13.196,12.804-22.405,12.804
		c-4.508,0-8.964-1.184-12.886-3.423l-59.542-33.974v68.972C315.081,623.311,303.473,634.828,289.204,634.828z"/>
	<path class="st1" d="M289.204,17c9.598,0,17.377,7.691,17.377,17.174v83.308l71.726-40.925c2.736-1.562,5.725-2.305,8.672-2.305
		c6.007,0,11.849,3.082,15.068,8.591c4.796,8.215,1.949,18.717-6.363,23.46l-89.103,50.843v134.772l122.415-69.849v-98.213
		c0-9.483,7.782-17.174,17.377-17.174c9.598,0,17.377,7.691,17.377,17.174v78.382l68.682-39.191
		c2.736-1.562,5.724-2.304,8.672-2.304c6.006,0,11.848,3.08,15.064,8.59c4.799,8.215,1.952,18.72-6.36,23.46l-68.694,39.2
		l68.694,39.197c8.312,4.743,11.159,15.245,6.36,23.459c-3.218,5.51-9.059,8.59-15.063,8.59c-2.948,0-5.937-0.741-8.674-2.304
		l-86.071-49.112l-122.4,69.843l122.4,69.844l86.071-49.112c2.736-1.562,5.724-2.304,8.672-2.304c6.006,0,11.848,3.08,15.064,8.59
		c4.799,8.215,1.952,18.717-6.36,23.46l-68.694,39.196l68.694,39.197c8.312,4.743,11.159,15.248,6.36,23.46
		c-3.218,5.51-9.059,8.59-15.063,8.59c-2.948,0-5.937-0.741-8.674-2.304l-68.682-39.188v78.379c0,9.486-7.779,17.174-17.377,17.174
		c-9.595,0-17.377-7.688-17.377-17.174v-98.212l-122.413-69.851v134.472l89.633,51.147c8.309,4.743,11.159,15.245,6.36,23.46
		c-3.218,5.51-9.059,8.59-15.066,8.59c-2.948,0-5.934-0.742-8.671-2.304l-72.256-41.229v83.608c0,9.483-7.779,17.174-17.377,17.174
		c-9.595,0-17.377-7.691-17.377-17.174v-83.608l-72.253,41.229c-2.736,1.561-5.724,2.303-8.672,2.303
		c-6.005,0-11.846-3.079-15.065-8.589c-4.799-8.215-1.952-18.717,6.36-23.46l89.63-51.147V351.411l-118.024,67.348v97.714
		c0,9.486-7.782,17.174-17.377,17.174c-9.598,0-17.377-7.688-17.377-17.174v-77.884l-73.07,41.693
		c-2.737,1.563-5.726,2.304-8.674,2.304c-6.007,0-11.845-3.08-15.066-8.59c-4.796-8.212-1.949-18.717,6.363-23.46l73.114-41.718
		l-76.012-43.373c-8.309-4.743-11.159-15.248-6.36-23.46c3.221-5.51,9.063-8.591,15.068-8.591c2.947,0,5.933,0.742,8.669,2.302
		l93.389,53.288l117.981-67.319L139.1,255.846l-93.12,53.133c-2.737,1.563-5.726,2.304-8.674,2.304
		c-6.007,0-11.845-3.08-15.066-8.59c-4.796-8.215-1.949-18.72,6.363-23.46l75.743-43.221l-75.743-43.221
		c-8.312-4.74-11.159-15.245-6.363-23.46c3.22-5.509,9.064-8.589,15.069-8.589c2.949,0,5.935,0.742,8.671,2.303l75.966,43.347
		v-78.187c0-9.486,7.779-17.174,17.377-17.174c9.595,0,17.377,7.688,17.377,17.174v98.018l115.128,65.693V157.145l-89.1-50.843
		c-8.312-4.743-11.162-15.245-6.363-23.46c3.219-5.508,9.06-8.589,15.067-8.589c2.948,0,5.936,0.742,8.673,2.304l71.723,40.925
		V34.174C271.828,24.691,279.609,17,289.204,17 M289.204,0c-18.955,0-34.377,15.33-34.377,34.174v54.035l-46.298-26.418
		c-5.206-2.969-11.118-4.538-17.099-4.538c-12.215,0-23.612,6.519-29.744,17.012c-4.5,7.704-5.793,16.652-3.667,25.276
		c-5.385-3.483-11.807-5.508-18.697-5.508c-18.955,0-34.377,15.33-34.377,34.174v48.914l-50.541-28.839
		c-5.202-2.968-11.114-4.538-17.096-4.538c-12.215,0-23.613,6.518-29.746,17.01c-4.621,7.915-5.859,17.136-3.489,25.97
		c2.379,8.869,8.099,16.269,16.107,20.836l49.864,28.453l-49.868,28.456c-8.004,4.564-13.724,11.964-16.103,20.833
		c-2.37,8.834-1.132,18.055,3.485,25.963c2.33,3.986,5.418,7.399,9.021,10.099c-4.85,2.921-8.982,7.028-11.913,12.042
		c-4.619,7.904-5.86,17.121-3.494,25.955c2.376,8.873,8.095,16.277,16.104,20.848l50.137,28.609l-47.237,26.953
		c-8.008,4.57-13.728,11.972-16.105,20.842c-2.367,8.833-1.128,18.051,3.488,25.956c6.136,10.498,17.533,17.016,29.746,17.016
		c5.987,0,11.902-1.57,17.105-4.542l47.639-27.182v48.611c0,18.844,15.421,34.174,34.377,34.174c7.977,0,15.328-2.715,21.168-7.264
		c-2.268,8.749-1.006,17.859,3.564,25.682c6.131,10.494,17.528,17.014,29.744,17.014c5.981,0,11.893-1.569,17.095-4.537
		l46.83-26.722v54.335c0,18.844,15.421,34.174,34.377,34.174s34.377-15.33,34.377-34.174v-54.336l46.831,26.721
		c5.199,2.968,11.112,4.539,17.096,4.539c12.218,0,23.616-6.521,29.746-17.017c4.616-7.902,5.856-17.119,3.49-25.952
		c-0.118-0.442-0.245-0.88-0.38-1.314c6.309,7.252,15.629,11.85,26.008,11.85c18.956,0,34.377-15.33,34.377-34.174v-49.107
		l43.257,24.681c5.197,2.968,11.112,4.538,17.099,4.538c12.217,0,23.614-6.52,29.743-17.017c4.616-7.899,5.857-17.118,3.491-25.952
		c-2.376-8.872-8.096-16.275-16.106-20.846l-42.817-24.431l42.817-24.431c8.01-4.57,13.729-11.973,16.106-20.843
		c2.366-8.833,1.126-18.052-3.492-25.957c-6.126-10.493-17.524-17.015-29.743-17.015c-5.983,0-11.896,1.57-17.099,4.54
		l-77.644,44.303l-88.099-50.271l88.099-50.271l77.646,44.304c5.198,2.968,11.112,4.539,17.099,4.539
		c12.217,0,23.614-6.521,29.743-17.017c4.617-7.903,5.857-17.122,3.491-25.955c-2.377-8.871-8.096-16.272-16.106-20.842
		l-42.818-24.432l42.818-24.434c8.005-4.565,13.726-11.966,16.104-20.836c2.368-8.835,1.129-18.056-3.491-25.964
		c-6.126-10.493-17.524-17.015-29.743-17.015c-5.983,0-11.896,1.57-17.099,4.54l-43.255,24.682v-49.106
		c0-18.844-15.421-34.174-34.377-34.174c-10.866,0-20.571,5.038-26.875,12.887c0.265-0.768,0.504-1.549,0.717-2.342
		c2.368-8.832,1.13-18.051-3.486-25.957c-6.136-10.501-17.534-17.02-29.749-17.02c-5.984,0-11.897,1.57-17.101,4.542l-46.297,26.416
		V34.174C323.581,15.33,308.16,0,289.204,0L289.204,0z M323.581,167.017l80.528-45.951c3.794-2.165,7.074-4.965,9.729-8.257
		c-1.194,3.466-1.842,7.182-1.842,11.046v88.34l-88.415,50.449V167.017L323.581,167.017z M173.7,216.352v-88.145
		c0-2.788-0.338-5.499-0.974-8.095c0.515,0.331,1.041,0.649,1.577,0.955l80.525,45.95v95.627L173.7,216.352L173.7,216.352z
		 M55.421,323.165l83.678-47.746l81.049,46.246l-83.678,47.746L55.421,323.165L55.421,323.165z M323.581,476.01v-95.326
		l88.415,50.449v88.339c0,3.485,0.528,6.85,1.507,10.02c-2.49-2.848-5.471-5.291-8.862-7.227L323.581,476.01L323.581,476.01z
		 M170.803,428.631l84.024-47.946v95.326l-81.056,46.254c-1.421,0.811-2.769,1.71-4.04,2.692c0.7-2.713,1.072-5.557,1.072-8.484
		L170.803,428.631L170.803,428.631z"/>
</g>
<g>
	<path d="M289.204,634.828c-14.269,0-25.876-11.518-25.876-25.674v-68.972l-59.541,33.975c-3.921,2.237-8.376,3.42-12.883,3.42
		c-9.207,0.001-17.792-4.904-22.405-12.801c-3.465-5.932-4.396-12.847-2.621-19.471c1.785-6.662,6.085-12.223,12.108-15.659
		l85.342-48.7V366.047l-101.024,57.647v92.777c0,14.156-11.608,25.674-25.877,25.674s-25.876-11.518-25.876-25.674v-63.247
		l-60.358,34.438c-3.917,2.238-8.375,3.422-12.886,3.422c-9.204,0-17.789-4.905-22.404-12.8c-3.465-5.934-4.395-12.848-2.619-19.473
		c1.785-6.662,6.085-12.224,12.107-15.66l60.175-34.335l-63.074-35.99c-6.024-3.438-10.324-9.002-12.108-15.666
		c-1.773-6.624-0.843-13.537,2.622-19.466c4.616-7.896,13.202-12.801,22.407-12.801c4.505,0,8.959,1.182,12.881,3.419l89.177,50.885
		l100.83-57.533l-98.2-56.033l-88.908,50.73c-3.92,2.238-8.376,3.421-12.886,3.421c-9.204,0-17.789-4.905-22.404-12.8
		c-3.466-5.938-4.395-12.854-2.618-19.479c1.787-6.66,6.086-12.22,12.108-15.654l62.804-35.837L24.39,200.175
		c-6.019-3.433-10.319-8.992-12.106-15.652c-1.777-6.626-0.848-13.542,2.615-19.476c4.617-7.898,13.203-12.803,22.41-12.803
		c4.508,0,8.963,1.183,12.884,3.421l63.253,36.092v-63.55c0-14.157,11.608-25.674,25.877-25.674S165.2,114.05,165.2,128.207v93.082
		l98.128,55.992v-115.2l-84.813-48.396c-6.024-3.438-10.325-9-12.11-15.662c-1.774-6.624-0.844-13.538,2.62-19.468
		c4.615-7.897,13.2-12.802,22.406-12.802c4.507,0,8.962,1.183,12.885,3.42l59.011,33.672V34.174
		c0-14.157,11.608-25.674,25.876-25.674s25.877,11.517,25.877,25.674v68.671l59.015-33.672c3.919-2.238,8.376-3.422,12.884-3.422
		c9.207,0,17.793,4.906,22.406,12.803c3.465,5.934,4.394,12.849,2.618,19.473c-1.785,6.66-6.085,12.221-12.106,15.657
		l-84.816,48.397v115.2l105.415-60.149v-93.276c0-14.157,11.608-25.674,25.877-25.674s25.877,11.517,25.877,25.674v63.745
		l55.97-31.937c3.921-2.238,8.377-3.421,12.885-3.421c9.209,0,17.794,4.906,22.405,12.804c3.465,5.931,4.395,12.848,2.618,19.474
		c-1.785,6.661-6.086,12.221-12.107,15.655l-55.755,31.815l55.757,31.814c6.022,3.437,10.322,8.999,12.106,15.66
		c1.775,6.625,0.844,13.539-2.62,19.47c-4.611,7.896-13.196,12.803-22.402,12.803c-4.511,0-8.968-1.184-12.889-3.423l-81.856-46.707
		l-105.25,60.057l105.25,60.058l81.858-46.709c3.921-2.238,8.377-3.421,12.885-3.421c9.209,0,17.794,4.906,22.405,12.805
		c3.464,5.929,4.395,12.844,2.619,19.468c-1.784,6.662-6.084,12.223-12.106,15.66l-55.756,31.813l55.756,31.813
		c6.022,3.438,10.322,9,12.107,15.662c1.774,6.625,0.843,13.54-2.622,19.469c-4.611,7.896-13.195,12.802-22.401,12.802
		c-4.513,0-8.97-1.185-12.891-3.425l-55.966-31.932v63.743c0,14.156-11.608,25.674-25.877,25.674s-25.877-11.518-25.877-25.674
		v-93.275l-105.415-60.148v114.897l85.347,48.701c6.022,3.438,10.321,8.999,12.106,15.661c1.774,6.624,0.844,13.538-2.62,19.468
		c-4.611,7.897-13.196,12.804-22.405,12.804c-4.508,0-8.964-1.184-12.886-3.423l-59.542-33.974v68.972
		C315.081,623.311,303.473,634.828,289.204,634.828z"/>
	<path class="st2" d="M289.204,17c9.598,0,17.377,7.691,17.377,17.174v83.308l71.726-40.925c2.736-1.562,5.725-2.305,8.672-2.305
		c6.007,0,11.849,3.082,15.068,8.591c4.796,8.215,1.949,18.717-6.363,23.46l-89.103,50.843v134.772l122.415-69.849v-98.213
		c0-9.483,7.782-17.174,17.377-17.174c9.598,0,17.377,7.691,17.377,17.174v78.382l68.682-39.191
		c2.736-1.562,5.724-2.304,8.672-2.304c6.006,0,11.848,3.08,15.064,8.59c4.799,8.215,1.952,18.72-6.36,23.46l-68.694,39.2
		l68.694,39.197c8.312,4.743,11.159,15.245,6.36,23.459c-3.218,5.51-9.059,8.59-15.063,8.59c-2.948,0-5.937-0.741-8.674-2.304
		l-86.071-49.112l-122.4,69.843l122.4,69.844l86.071-49.112c2.736-1.562,5.724-2.304,8.672-2.304c6.006,0,11.848,3.08,15.064,8.59
		c4.799,8.215,1.952,18.717-6.36,23.46l-68.694,39.196l68.694,39.197c8.312,4.743,11.159,15.248,6.36,23.46
		c-3.218,5.51-9.059,8.59-15.063,8.59c-2.948,0-5.937-0.741-8.674-2.304l-68.682-39.188v78.379c0,9.486-7.779,17.174-17.377,17.174
		c-9.595,0-17.377-7.688-17.377-17.174v-98.212l-122.413-69.851v134.472l89.633,51.147c8.309,4.743,11.159,15.245,6.36,23.46
		c-3.218,5.51-9.059,8.59-15.066,8.59c-2.948,0-5.934-0.742-8.671-2.304l-72.256-41.229v83.608c0,9.483-7.779,17.174-17.377,17.174
		c-9.595,0-17.377-7.691-17.377-17.174v-83.608l-72.253,41.229c-2.736,1.561-5.724,2.303-8.672,2.303
		c-6.005,0-11.846-3.079-15.065-8.589c-4.799-8.215-1.952-18.717,6.36-23.46l89.63-51.147V351.411l-118.024,67.348v97.714
		c0,9.486-7.782,17.174-17.377,17.174c-9.598,0-17.377-7.688-17.377-17.174v-77.884l-73.07,41.693
		c-2.737,1.563-5.726,2.304-8.674,2.304c-6.007,0-11.845-3.08-15.066-8.59c-4.796-8.212-1.949-18.717,6.363-23.46l73.114-41.718
		l-76.012-43.373c-8.309-4.743-11.159-15.248-6.36-23.46c3.221-5.51,9.063-8.591,15.068-8.591c2.947,0,5.933,0.742,8.669,2.302
		l93.389,53.288l117.981-67.319L139.1,255.846l-93.12,53.133c-2.737,1.563-5.726,2.304-8.674,2.304
		c-6.007,0-11.845-3.08-15.066-8.59c-4.796-8.215-1.949-18.72,6.363-23.46l75.743-43.221l-75.743-43.221
		c-8.312-4.74-11.159-15.245-6.363-23.46c3.22-5.509,9.064-8.589,15.069-8.589c2.949,0,5.935,0.742,8.671,2.303l75.966,43.347
		v-78.187c0-9.486,7.779-17.174,17.377-17.174c9.595,0,17.377,7.688,17.377,17.174v98.018l115.128,65.693V157.145l-89.1-50.843
		c-8.312-4.743-11.162-15.245-6.363-23.46c3.219-5.508,9.06-8.589,15.067-8.589c2.948,0,5.936,0.742,8.673,2.304l71.723,40.925
		V34.174C271.828,24.691,279.609,17,289.204,17 M289.204,0c-18.955,0-34.377,15.33-34.377,34.174v54.035l-46.298-26.418
		c-5.206-2.969-11.118-4.538-17.099-4.538c-12.215,0-23.612,6.519-29.744,17.012c-4.5,7.704-5.793,16.652-3.667,25.276
		c-5.385-3.483-11.807-5.508-18.697-5.508c-18.955,0-34.377,15.33-34.377,34.174v48.914l-50.541-28.839
		c-5.202-2.968-11.114-4.538-17.096-4.538c-12.215,0-23.613,6.518-29.746,17.01c-4.621,7.915-5.859,17.136-3.489,25.97
		c2.379,8.869,8.099,16.269,16.107,20.836l49.864,28.453l-49.868,28.456c-8.004,4.564-13.724,11.964-16.103,20.833
		c-2.37,8.834-1.132,18.055,3.485,25.963c2.33,3.986,5.418,7.399,9.021,10.099c-4.85,2.921-8.982,7.028-11.913,12.042
		c-4.619,7.904-5.86,17.121-3.494,25.955c2.376,8.873,8.095,16.277,16.104,20.848l50.137,28.609l-47.237,26.953
		c-8.008,4.57-13.728,11.972-16.105,20.842c-2.367,8.833-1.128,18.051,3.488,25.956c6.136,10.498,17.533,17.016,29.746,17.016
		c5.987,0,11.902-1.57,17.105-4.542l47.639-27.182v48.611c0,18.844,15.421,34.174,34.377,34.174c7.977,0,15.328-2.715,21.168-7.264
		c-2.268,8.749-1.006,17.859,3.564,25.682c6.131,10.494,17.528,17.014,29.744,17.014c5.981,0,11.893-1.569,17.095-4.537
		l46.83-26.722v54.335c0,18.844,15.421,34.174,34.377,34.174s34.377-15.33,34.377-34.174v-54.336l46.831,26.721
		c5.199,2.968,11.112,4.539,17.096,4.539c12.218,0,23.616-6.521,29.746-17.017c4.616-7.902,5.856-17.119,3.49-25.952
		c-0.118-0.442-0.245-0.88-0.38-1.314c6.309,7.252,15.629,11.85,26.008,11.85c18.956,0,34.377-15.33,34.377-34.174v-49.107
		l43.257,24.681c5.197,2.968,11.112,4.538,17.099,4.538c12.217,0,23.614-6.52,29.743-17.017c4.616-7.899,5.857-17.118,3.491-25.952
		c-2.376-8.872-8.096-16.275-16.106-20.846l-42.817-24.431l42.817-24.431c8.01-4.57,13.729-11.973,16.106-20.843
		c2.366-8.833,1.126-18.052-3.492-25.957c-6.126-10.493-17.524-17.015-29.743-17.015c-5.983,0-11.896,1.57-17.099,4.54
		l-77.644,44.303l-88.099-50.271l88.099-50.271l77.646,44.304c5.198,2.968,11.112,4.539,17.099,4.539
		c12.217,0,23.614-6.521,29.743-17.017c4.617-7.903,5.857-17.122,3.491-25.955c-2.377-8.871-8.096-16.272-16.106-20.842
		l-42.818-24.432l42.818-24.434c8.005-4.565,13.726-11.966,16.104-20.836c2.368-8.835,1.129-18.056-3.491-25.964
		c-6.126-10.493-17.524-17.015-29.743-17.015c-5.983,0-11.896,1.57-17.099,4.54l-43.255,24.682v-49.106
		c0-18.844-15.421-34.174-34.377-34.174c-10.866,0-20.571,5.038-26.875,12.887c0.265-0.768,0.504-1.549,0.717-2.342
		c2.368-8.832,1.13-18.051-3.486-25.957c-6.136-10.501-17.534-17.02-29.749-17.02c-5.984,0-11.897,1.57-17.101,4.542l-46.297,26.416
		V34.174C323.581,15.33,308.16,0,289.204,0L289.204,0z M323.581,167.017l80.528-45.951c3.794-2.165,7.074-4.965,9.729-8.257
		c-1.194,3.466-1.842,7.182-1.842,11.046v88.34l-88.415,50.449V167.017L323.581,167.017z M173.7,216.352v-88.145
		c0-2.788-0.338-5.499-0.974-8.095c0.515,0.331,1.041,0.649,1.577,0.955l80.525,45.95v95.627L173.7,216.352L173.7,216.352z
		 M55.421,323.165l83.678-47.746l81.049,46.246l-83.678,47.746L55.421,323.165L55.421,323.165z M323.581,476.01v-95.326
		l88.415,50.449v88.339c0,3.485,0.528,6.85,1.507,10.02c-2.49-2.848-5.471-5.291-8.862-7.227L323.581,476.01L323.581,476.01z
		 M170.803,428.631l84.024-47.946v95.326l-81.056,46.254c-1.421,0.811-2.769,1.71-4.04,2.692c0.7-2.713,1.072-5.557,1.072-8.484
		L170.803,428.631L170.803,428.631z"/>
</g>
</svg>
