<?xml version="1.0" encoding="utf-8"?>
<!-- Generator: Adobe Illustrator 17.0.2, SVG Export Plug-In . SVG Version: 6.00 Build 0)  -->
<!DOCTYPE svg PUBLIC "-//W3C//DTD SVG 1.1//EN" "http://www.w3.org/Graphics/SVG/1.1/DTD/svg11.dtd">
<svg version="1.1" id="Layer_1" xmlns="http://www.w3.org/2000/svg" xmlns:xlink="http://www.w3.org/1999/xlink" x="0px" y="0px"
	 width="681.801px" height="682.963px" viewBox="81.105 -37 681.801 682.963"
	 style="enable-background:new 81.105 -37 681.801 682.963;" xml:space="preserve">
<style type="text/css">
	.st0{fill:url(#SVGID_1_);stroke:#FFFFFF;stroke-width:40;stroke-miterlimit:10;}
	.st1{fill:#FFFFFF;stroke:#FFFFFF;stroke-width:40;stroke-miterlimit:10;}
	.st2{fill:url(#SVGID_2_);}
	.st3{fill:#FFFFFF;}
</style>
<g>
	
		<linearGradient id="SVGID_1_" gradientUnits="userSpaceOnUse" x1="422.0176" y1="58.461" x2="422.0176" y2="684.426" gradientTransform="matrix(1 0 0 -1 0 675.926)">
		<stop  offset="0.0035" style="stop-color:#001F99"/>
		<stop  offset="1" style="stop-color:#64CDF4"/>
	</linearGradient>
	<path class="st0" d="M415.682,617.463c-1.056,0-2.12-0.014-3.186-0.042c-33.941-0.904-65.414-23.652-78.317-56.605
		c-12.387-31.636-5.922-64.65,16.872-86.16c14.144-13.348,30.805-20.116,49.521-20.116l0.553,0.002
		c21.305,0.148,37.128,14.108,39.372,34.737c1.978,18.171-11.567,36.04-30.836,40.679c-3.358,0.81-4.736,2.025-5.057,2.468
		c0.129,0.438,0.76,1.604,2.613,3.131c3.32,2.735,8.965,4.799,13.129,4.798c0.464,0,0.897-0.025,1.291-0.077
		c9.701-1.271,17.536-5.892,22.66-13.358c6.01-8.761,7.659-20.434,4.645-32.871c-7.513-30.993-32.24-49.546-66.147-49.628
		c-34.815-0.085-69.77-0.096-96.333-0.096l-77.774,0.011c-19.093,0-38.19-0.006-57.284-0.027
		c-20.067-0.023-34.058-9.094-39.396-25.54c-3.91-12.045-2.097-24.562,4.975-34.344c7.462-10.322,19.705-16.282,33.589-16.352
		c14.562-0.072,30.13-0.105,48.994-0.105c12.963,0,25.926,0.016,38.89,0.031c11.143,0.014,22.286,0.026,33.428,0.03l65.446,0.001
		c15.27,0,30.542,0.003,45.812,0.019c71.458,0.074,126.993,45.102,141.483,114.711c7.012,33.688-1.109,67.938-22.281,93.97
		c-21.055,25.888-52.642,40.735-86.657,40.735C415.684,617.463,415.684,617.463,415.682,617.463z M506.513,343.619
		c-22.316,0-44.631-0.019-66.946-0.037c-21.774-0.019-43.548-0.036-65.324-0.037c0,0-188.411,0-223.69-0.004
		c-17.591,0-30.448-7.97-37.18-23.049c-6.851-15.344-4.116-30.931,7.139-40.677c8.325-7.212,20.062-11.954,29.899-12.08
		c37.698-0.481,75.184-0.543,103.631-0.543c14.833,0,29.665,0.019,44.496,0.038c14.463,0.019,28.926,0.037,43.391,0.038
		c25.697,0.001,51.395,0.02,77.093,0.039c26.209,0.02,52.417,0.039,78.624,0.039c35.423,0,64.793-0.036,92.431-0.113
		c18.983-0.054,36.156-6.346,48.356-17.717c12.018-11.201,18.768-26.946,19.008-44.336c0.257-18.613-12.59-33.218-29.884-33.972
		c-0.094-0.004-0.189-0.006-0.287-0.006c-3.994,0-10.415,3.135-14.021,6.846c-0.75,0.771-1.153,1.38-1.351,1.761
		c0.533,0.425,1.753,1.118,3.937,1.6c20.35,4.493,34.126,22.113,32.046,40.984c-2.28,20.716-18.452,34.636-40.243,34.637
		l-0.49-0.002c-24.427-0.226-46.058-12.183-59.344-32.807c-14.51-22.524-16.36-51.353-4.948-77.117
		c14.484-32.703,46.482-53.018,83.507-53.018c19.381,0,38.62,5.695,55.64,16.469c48.4,30.643,65.31,89.151,42.076,145.59
		c-10.704,26-28.46,47.93-51.349,63.417c-22.977,15.546-49.983,23.816-78.1,23.919C568.545,343.575,540.546,343.619,506.513,343.619
		z M342.035,241.206c-11.387,0-22.774-0.023-34.161-0.046c-11.376-0.023-22.752-0.046-34.127-0.046h-2.781
		c-11.078,0.004-22.155,0.019-33.232,0.034c-12.713,0.018-25.426,0.036-38.141,0.036c-18.392,0-33.576-0.038-47.785-0.118
		c-14.365-0.083-26.46-5.491-34.058-15.229c-7.026-9.005-9.263-20.64-6.298-32.76c4.299-17.57,18.419-28.132,37.771-28.252
		c24.006-0.152,47.695-0.183,75.878-0.183l43.225,0.001c12.098,0,24.196,0.033,36.294,0.066c12.084,0.033,24.168,0.066,36.253,0.066
		c16.114,0,29.482-0.059,42.069-0.186c34.245-0.347,58.951-18.941,66.089-49.739c2.775-11.981,1.234-23.301-4.34-31.874
		c-4.982-7.663-12.824-12.716-22.679-14.613c-1.444-0.278-2.824-0.419-4.104-0.419c-4.646,0-8.188,1.836-11.146,5.778
		c-1.466,1.953-1.906,3.184-2.037,3.734c0.456,0.318,1.573,0.93,3.887,1.408c20.119,4.158,34.058,22.323,31.733,41.355
		c-2.549,20.843-18.07,34.311-39.543,34.311h-0.109c-22.464-0.049-43.163-10.237-56.791-27.952
		c-14.654-19.049-19.376-43.979-12.955-68.395C341.437,18.299,376.821-8.5,418.996-8.5c19.033,0,38.049,5.568,54.992,16.103
		c48.35,30.062,65.835,88.06,43.51,144.317c-10.491,26.435-28.261,48.755-51.388,64.549c-23.171,15.823-50.595,24.318-79.307,24.567
		C373.543,241.152,359.317,241.206,342.035,241.206z"/>
	<path class="st1" d="M418.996,0c16.776,0,34.253,4.716,50.504,14.821c44.787,27.848,60.877,81.601,40.098,133.964
		c-20.075,50.582-67.719,83.273-122.868,83.752c-14.905,0.13-29.812,0.169-44.718,0.169c-22.764,0-45.528-0.092-68.292-0.092
		c-0.919,0-1.838,0-2.757,0c-23.789,0.008-47.579,0.069-71.368,0.069c-15.913,0-31.827-0.028-47.74-0.117
		c-23.157-0.133-37.201-16.809-32.147-37.469c3.324-13.583,13.812-21.675,29.568-21.773c25.314-0.16,50.625-0.183,75.94-0.183
		c10.149,0,20.3,0.004,30.449,0.004c3.495,0,6.992,0,10.487-0.002c0.718,0,1.431,0,2.149,0c24.186,0,48.372,0.133,72.557,0.133
		c14.055,0,28.116-0.045,42.17-0.187c38.217-0.387,66.347-22.077,74.283-56.319c6.497-28.043-7.562-51.723-33.692-56.752
		c-1.968-0.379-3.873-0.572-5.711-0.572c-7.134,0-13.244,2.912-17.944,9.176c-6.945,9.254-4.196,16.27,6.928,18.568
		c15.677,3.24,26.792,17.457,25.016,32c-2.018,16.51-13.995,26.841-31.104,26.841c-0.03,0-0.061,0-0.092,0
		c-43.297-0.094-73.131-41.63-61.544-85.685C349.136,22.441,382.401,0,418.996,0 M626.36,102.585
		c17.11,0,34.848,4.867,51.092,15.151c44.876,28.411,60.411,82.584,38.762,135.173c-20.473,49.734-67.658,81.875-121.618,82.071
		c-29.364,0.107-58.738,0.139-88.102,0.139c-44.087,0-88.165-0.073-132.252-0.074c-37.282,0-74.563,0.001-111.845,0.001
		s-74.563-0.001-111.845-0.005c-13.47,0-23.868-5.579-29.419-18.014c-4.939-11.062-4.121-22.938,4.942-30.787
		c6.378-5.525,16.135-9.899,24.444-10.006c34.502-0.441,69.015-0.543,103.523-0.543c29.297,0,58.588,0.073,87.885,0.076
		c51.915,0.001,103.829,0.078,155.744,0.078c30.809,0,61.618-0.027,92.428-0.113c43.785-0.124,75.279-29.728,75.84-70.437
		c0.313-22.632-15.559-41.602-38.012-42.58c-0.217-0.009-0.437-0.014-0.657-0.014c-6.805,0-15.251,4.414-20.117,9.422
		c-7.456,7.668-3.724,15.25,6.849,17.585c15.933,3.518,27.017,17.359,25.43,31.753c-1.819,16.53-14.219,27.069-31.794,27.069
		c-0.137,0-0.272-0.001-0.41-0.002c-47.811-0.441-77.24-51.384-56.6-97.982C564.248,119.788,594.194,102.585,626.36,102.585
		 M199.546,376.466c24.109,0,48.224,0.054,72.334,0.062c7.496,0.003,14.988,0.003,22.485,0.003c14.081,0,28.159-0.003,42.24-0.003
		c15.507,0,31.02,0.004,46.527,0.019c67.466,0.07,119.499,42.265,133.17,107.942c13.604,65.362-34.602,124.473-100.62,124.473
		c-0.981,0-1.971-0.013-2.96-0.039c-30.292-0.807-59.061-21.664-70.629-51.208c-11.102-28.352-5.591-57.646,14.79-76.879
		c12.217-11.53,26.703-17.798,43.688-17.798c0.163,0,0.327,0.001,0.491,0.002c16.847,0.117,29.211,10.871,30.983,27.156
		c1.522,13.989-9.201,27.843-24.375,31.496c-12.368,2.979-15.659,12.35-5.859,20.423c4.708,3.878,12.225,6.738,18.533,6.738
		c0.822,0,1.624-0.049,2.396-0.15c26.869-3.522,41.328-28.333,34.462-56.659c-8.358-34.479-36.558-56.035-74.388-56.126
		c-32.22-0.079-64.427-0.097-96.648-0.097c-25.795,0-51.593,0.011-77.388,0.011c-19.119,0-38.247-0.006-57.366-0.028
		c-16.568-0.02-27.176-6.895-31.32-19.664c-6.627-20.416,7.838-39.458,30.521-39.571
		C166.926,376.491,183.233,376.466,199.546,376.466 M418.996-17V0V-17c-46.095,0-84.783,29.345-96.27,73.023
		c-7.096,26.982-1.834,54.588,14.438,75.74c8.318,10.812,18.989,19.119,31.048,24.443c-8.369,0.048-17.33,0.071-27.355,0.071
		c-12.069,0-24.352-0.034-36.231-0.066c-11.902-0.033-24.209-0.067-36.326-0.067h-2.155l-10.482,0.002l-15.222-0.002l-15.228-0.002
		c-28.236,0-51.974,0.031-76.047,0.183c-11.32,0.07-21.522,3.252-29.5,9.2c-8.183,6.101-13.879,14.929-16.473,25.531
		c-3.596,14.701-0.807,28.91,7.853,40.009c9.098,11.661,23.936,18.404,40.71,18.5c14.234,0.08,29.434,0.118,47.837,0.118
		c12.715,0,25.429-0.018,38.144-0.035c11.076-0.015,22.153-0.031,33.229-0.034h2.751c11.365,0,22.929,0.023,34.112,0.046
		c11.2,0.023,22.781,0.046,34.18,0.046c17.31,0,31.567-0.054,44.867-0.17c30.403-0.264,59.458-9.271,84.025-26.048
		c24.532-16.753,43.376-40.417,54.495-68.432c11.62-29.283,13.358-59.478,5.024-87.321c-8.433-28.175-26.396-51.465-51.946-67.351
		C460.185-10.988,439.617-17,418.996-17L418.996-17z M626.362,85.585L626.362,85.585c-19.272,0-37.856,5.179-53.745,14.976
		c-16.601,10.236-29.58,25.14-37.535,43.1c-12.574,28.388-10.49,60.225,5.575,85.162c8.74,13.566,20.707,23.78,34.643,29.945
		c-23.386,0.052-48.456,0.076-77.629,0.076c-26.194,0-52.388-0.02-78.582-0.039c-25.72-0.019-51.441-0.038-77.161-0.039
		c-14.439-0.001-28.877-0.019-43.315-0.038c-14.856-0.019-29.712-0.038-44.57-0.038c-28.471,0-65.992,0.062-103.74,0.544
		c-11.906,0.153-25.454,5.576-35.357,14.155c-14.194,12.292-17.772,31.669-9.334,50.567c8.086,18.11,24.046,28.083,44.942,28.083
		c37.281,0.004,74.563,0.005,111.845,0.005l55.923-0.001h55.922c21.84,0.001,43.678,0.019,65.516,0.037
		c22.244,0.018,44.489,0.037,66.736,0.037c34.078,0,62.093-0.044,88.164-0.139c29.81-0.108,58.453-8.884,82.832-25.379
		c24.277-16.426,43.104-39.671,54.445-67.221c12.095-29.381,14.235-59.746,6.187-87.81c-8.147-28.412-25.982-51.994-51.576-68.197
		C668.165,91.736,647.354,85.585,626.362,85.585L626.362,85.585z M199.546,359.466c-18.86,0-34.436,0.034-49.016,0.106
		c-16.628,0.083-31.366,7.326-40.435,19.871c-8.679,12.004-10.928,27.294-6.171,41.949c6.47,19.936,23.772,31.387,47.47,31.415
		c19.126,0.022,38.261,0.028,57.386,0.028c12.899,0,25.798-0.003,38.698-0.006c12.897-0.003,25.794-0.006,38.69-0.006
		c24.306,0,52.523,0.008,81.955,0.065c-8.178,3.706-15.828,8.907-22.905,15.586c-25.367,23.938-32.63,60.509-18.952,95.44
		c6.864,17.531,18.671,32.727,34.144,43.945c15.622,11.326,33.556,17.571,51.862,18.058c1.134,0.03,2.283,0.046,3.412,0.046
		c36.588,0,70.579-15.992,93.256-43.875c22.792-28.024,31.543-64.861,24.008-101.063c-7.516-36.106-25.618-66.645-52.35-88.316
		c-26.715-21.657-60.411-33.124-97.446-33.162c-15.513-0.016-31.032-0.019-46.545-0.019l-21.122,0.002l-21.118,0.002
		c-7.494,0-14.985-0.001-22.479-0.004c-11.118-0.004-22.238-0.017-33.357-0.03C225.534,359.481,212.539,359.466,199.546,359.466
		L199.546,359.466z"/>
</g>
<g>
	
		<linearGradient id="SVGID_2_" gradientUnits="userSpaceOnUse" x1="422.0176" y1="58.461" x2="422.0176" y2="684.426" gradientTransform="matrix(1 0 0 -1 0 675.926)">
		<stop  offset="0.0035" style="stop-color:#001F99"/>
		<stop  offset="1" style="stop-color:#64CDF4"/>
	</linearGradient>
	<path class="st2" d="M415.682,617.463c-1.056,0-2.12-0.014-3.186-0.042c-33.941-0.904-65.414-23.652-78.317-56.605
		c-12.387-31.636-5.922-64.65,16.872-86.16c14.144-13.348,30.805-20.116,49.521-20.116l0.553,0.002
		c21.305,0.148,37.128,14.108,39.372,34.737c1.978,18.171-11.567,36.04-30.836,40.679c-3.358,0.81-4.736,2.025-5.057,2.468
		c0.129,0.438,0.76,1.604,2.613,3.131c3.32,2.735,8.965,4.799,13.129,4.798c0.464,0,0.897-0.025,1.291-0.077
		c9.701-1.271,17.536-5.892,22.66-13.358c6.01-8.761,7.659-20.434,4.645-32.871c-7.513-30.993-32.24-49.546-66.147-49.628
		c-34.815-0.085-69.77-0.096-96.333-0.096l-77.774,0.011c-19.093,0-38.19-0.006-57.284-0.027
		c-20.067-0.023-34.058-9.094-39.396-25.54c-3.91-12.045-2.097-24.562,4.975-34.344c7.462-10.322,19.705-16.282,33.589-16.352
		c14.562-0.072,30.13-0.105,48.994-0.105c12.963,0,25.926,0.016,38.89,0.031c11.143,0.014,22.286,0.026,33.428,0.03l65.446,0.001
		c15.27,0,30.542,0.003,45.812,0.019c71.458,0.074,126.993,45.102,141.483,114.711c7.012,33.688-1.109,67.938-22.281,93.97
		c-21.055,25.888-52.642,40.735-86.657,40.735C415.684,617.463,415.684,617.463,415.682,617.463z M506.513,343.619
		c-22.316,0-44.631-0.019-66.946-0.037c-21.774-0.019-43.548-0.036-65.324-0.037c0,0-188.411,0-223.69-0.004
		c-17.591,0-30.448-7.97-37.18-23.049c-6.851-15.344-4.116-30.931,7.139-40.677c8.325-7.212,20.062-11.954,29.899-12.08
		c37.698-0.481,75.184-0.543,103.631-0.543c14.833,0,29.665,0.019,44.496,0.038c14.463,0.019,28.926,0.037,43.391,0.038
		c25.697,0.001,51.395,0.02,77.093,0.039c26.209,0.02,52.417,0.039,78.624,0.039c35.423,0,64.793-0.036,92.431-0.113
		c18.983-0.054,36.156-6.346,48.356-17.717c12.018-11.201,18.768-26.946,19.008-44.336c0.257-18.613-12.59-33.218-29.884-33.972
		c-0.094-0.004-0.189-0.006-0.287-0.006c-3.994,0-10.415,3.135-14.021,6.846c-0.75,0.771-1.153,1.38-1.351,1.761
		c0.533,0.425,1.753,1.118,3.937,1.6c20.35,4.493,34.126,22.113,32.046,40.984c-2.28,20.716-18.452,34.636-40.243,34.637
		l-0.49-0.002c-24.427-0.226-46.058-12.183-59.344-32.807c-14.51-22.524-16.36-51.353-4.948-77.117
		c14.484-32.703,46.482-53.018,83.507-53.018c19.381,0,38.62,5.695,55.64,16.469c48.4,30.643,65.31,89.151,42.076,145.59
		c-10.704,26-28.46,47.93-51.349,63.417c-22.977,15.546-49.983,23.816-78.1,23.919C568.545,343.575,540.546,343.619,506.513,343.619
		z M342.035,241.206c-11.387,0-22.774-0.023-34.161-0.046c-11.376-0.023-22.752-0.046-34.127-0.046h-2.781
		c-11.078,0.004-22.155,0.019-33.232,0.034c-12.713,0.018-25.426,0.036-38.141,0.036c-18.392,0-33.576-0.038-47.785-0.118
		c-14.365-0.083-26.46-5.491-34.058-15.229c-7.026-9.005-9.263-20.64-6.298-32.76c4.299-17.57,18.419-28.132,37.771-28.252
		c24.006-0.152,47.695-0.183,75.878-0.183l43.225,0.001c12.098,0,24.196,0.033,36.294,0.066c12.084,0.033,24.168,0.066,36.253,0.066
		c16.114,0,29.482-0.059,42.069-0.186c34.245-0.347,58.951-18.941,66.089-49.739c2.775-11.981,1.234-23.301-4.34-31.874
		c-4.982-7.663-12.824-12.716-22.679-14.613c-1.444-0.278-2.824-0.419-4.104-0.419c-4.646,0-8.188,1.836-11.146,5.778
		c-1.466,1.953-1.906,3.184-2.037,3.734c0.456,0.318,1.573,0.93,3.887,1.408c20.119,4.158,34.058,22.323,31.733,41.355
		c-2.549,20.843-18.07,34.311-39.543,34.311h-0.109c-22.464-0.049-43.163-10.237-56.791-27.952
		c-14.654-19.049-19.376-43.979-12.955-68.395C341.437,18.299,376.821-8.5,418.996-8.5c19.033,0,38.049,5.568,54.992,16.103
		c48.35,30.062,65.835,88.06,43.51,144.317c-10.491,26.435-28.261,48.755-51.388,64.549c-23.171,15.823-50.595,24.318-79.307,24.567
		C373.543,241.152,359.317,241.206,342.035,241.206z"/>
	<path class="st3" d="M418.996,0c16.776,0,34.253,4.716,50.504,14.821c44.787,27.848,60.877,81.601,40.098,133.964
		c-20.075,50.582-67.719,83.273-122.868,83.752c-14.905,0.13-29.812,0.169-44.718,0.169c-22.764,0-45.528-0.092-68.292-0.092
		c-0.919,0-1.838,0-2.757,0c-23.789,0.008-47.579,0.069-71.368,0.069c-15.913,0-31.827-0.028-47.74-0.117
		c-23.157-0.133-37.201-16.809-32.147-37.469c3.324-13.583,13.812-21.675,29.568-21.773c25.314-0.16,50.625-0.183,75.94-0.183
		c10.149,0,20.3,0.004,30.449,0.004c3.495,0,6.992,0,10.487-0.002c0.718,0,1.431,0,2.149,0c24.186,0,48.372,0.133,72.557,0.133
		c14.055,0,28.116-0.045,42.17-0.187c38.217-0.387,66.347-22.077,74.283-56.319c6.497-28.043-7.562-51.723-33.692-56.752
		c-1.968-0.379-3.873-0.572-5.711-0.572c-7.134,0-13.244,2.912-17.944,9.176c-6.945,9.254-4.196,16.27,6.928,18.568
		c15.677,3.24,26.792,17.457,25.016,32c-2.018,16.51-13.995,26.841-31.104,26.841c-0.03,0-0.061,0-0.092,0
		c-43.297-0.094-73.131-41.63-61.544-85.685C349.136,22.441,382.401,0,418.996,0 M626.36,102.585
		c17.11,0,34.848,4.867,51.092,15.151c44.876,28.411,60.411,82.584,38.762,135.173c-20.473,49.734-67.658,81.875-121.618,82.071
		c-29.364,0.107-58.738,0.139-88.102,0.139c-44.087,0-88.165-0.073-132.252-0.074c-37.282,0-74.563,0.001-111.845,0.001
		s-74.563-0.001-111.845-0.005c-13.47,0-23.868-5.579-29.419-18.014c-4.939-11.062-4.121-22.938,4.942-30.787
		c6.378-5.525,16.135-9.899,24.444-10.006c34.502-0.441,69.015-0.543,103.523-0.543c29.297,0,58.588,0.073,87.885,0.076
		c51.915,0.001,103.829,0.078,155.744,0.078c30.809,0,61.618-0.027,92.428-0.113c43.785-0.124,75.279-29.728,75.84-70.437
		c0.313-22.632-15.559-41.602-38.012-42.58c-0.217-0.009-0.437-0.014-0.657-0.014c-6.805,0-15.251,4.414-20.117,9.422
		c-7.456,7.668-3.724,15.25,6.849,17.585c15.933,3.518,27.017,17.359,25.43,31.753c-1.819,16.53-14.219,27.069-31.794,27.069
		c-0.137,0-0.272-0.001-0.41-0.002c-47.811-0.441-77.24-51.384-56.6-97.982C564.248,119.788,594.194,102.585,626.36,102.585
		 M199.546,376.466c24.109,0,48.224,0.054,72.334,0.062c7.496,0.003,14.988,0.003,22.485,0.003c14.081,0,28.159-0.003,42.24-0.003
		c15.507,0,31.02,0.004,46.527,0.019c67.466,0.07,119.499,42.265,133.17,107.942c13.604,65.362-34.602,124.473-100.62,124.473
		c-0.981,0-1.971-0.013-2.96-0.039c-30.292-0.807-59.061-21.664-70.629-51.208c-11.102-28.352-5.591-57.646,14.79-76.879
		c12.217-11.53,26.703-17.798,43.688-17.798c0.163,0,0.327,0.001,0.491,0.002c16.847,0.117,29.211,10.871,30.983,27.156
		c1.522,13.989-9.201,27.843-24.375,31.496c-12.368,2.979-15.659,12.35-5.859,20.423c4.708,3.878,12.225,6.738,18.533,6.738
		c0.822,0,1.624-0.049,2.396-0.15c26.869-3.522,41.328-28.333,34.462-56.659c-8.358-34.479-36.558-56.035-74.388-56.126
		c-32.22-0.079-64.427-0.097-96.648-0.097c-25.795,0-51.593,0.011-77.388,0.011c-19.119,0-38.247-0.006-57.366-0.028
		c-16.568-0.02-27.176-6.895-31.32-19.664c-6.627-20.416,7.838-39.458,30.521-39.571
		C166.926,376.491,183.233,376.466,199.546,376.466 M418.996-17V0V-17c-46.095,0-84.783,29.345-96.27,73.023
		c-7.096,26.982-1.834,54.588,14.438,75.74c8.318,10.812,18.989,19.119,31.048,24.443c-8.369,0.048-17.33,0.071-27.355,0.071
		c-12.069,0-24.352-0.034-36.231-0.066c-11.902-0.033-24.209-0.067-36.326-0.067h-2.155l-10.482,0.002l-15.222-0.002l-15.228-0.002
		c-28.236,0-51.974,0.031-76.047,0.183c-11.32,0.07-21.522,3.252-29.5,9.2c-8.183,6.101-13.879,14.929-16.473,25.531
		c-3.596,14.701-0.807,28.91,7.853,40.009c9.098,11.661,23.936,18.404,40.71,18.5c14.234,0.08,29.434,0.118,47.837,0.118
		c12.715,0,25.429-0.018,38.144-0.035c11.076-0.015,22.153-0.031,33.229-0.034h2.751c11.365,0,22.929,0.023,34.112,0.046
		c11.2,0.023,22.781,0.046,34.18,0.046c17.31,0,31.567-0.054,44.867-0.17c30.403-0.264,59.458-9.271,84.025-26.048
		c24.532-16.753,43.376-40.417,54.495-68.432c11.62-29.283,13.358-59.478,5.024-87.321c-8.433-28.175-26.396-51.465-51.946-67.351
		C460.185-10.988,439.617-17,418.996-17L418.996-17z M626.362,85.585L626.362,85.585c-19.272,0-37.856,5.179-53.745,14.976
		c-16.601,10.236-29.58,25.14-37.535,43.1c-12.574,28.388-10.49,60.225,5.575,85.162c8.74,13.566,20.707,23.78,34.643,29.945
		c-23.386,0.052-48.456,0.076-77.629,0.076c-26.194,0-52.388-0.02-78.582-0.039c-25.72-0.019-51.441-0.038-77.161-0.039
		c-14.439-0.001-28.877-0.019-43.315-0.038c-14.856-0.019-29.712-0.038-44.57-0.038c-28.471,0-65.992,0.062-103.74,0.544
		c-11.906,0.153-25.454,5.576-35.357,14.155c-14.194,12.292-17.772,31.669-9.334,50.567c8.086,18.11,24.046,28.083,44.942,28.083
		c37.281,0.004,74.563,0.005,111.845,0.005l55.923-0.001h55.922c21.84,0.001,43.678,0.019,65.516,0.037
		c22.244,0.018,44.489,0.037,66.736,0.037c34.078,0,62.093-0.044,88.164-0.139c29.81-0.108,58.453-8.884,82.832-25.379
		c24.277-16.426,43.104-39.671,54.445-67.221c12.095-29.381,14.235-59.746,6.187-87.81c-8.147-28.412-25.982-51.994-51.576-68.197
		C668.165,91.736,647.354,85.585,626.362,85.585L626.362,85.585z M199.546,359.466c-18.86,0-34.436,0.034-49.016,0.106
		c-16.628,0.083-31.366,7.326-40.435,19.871c-8.679,12.004-10.928,27.294-6.171,41.949c6.47,19.936,23.772,31.387,47.47,31.415
		c19.126,0.022,38.261,0.028,57.386,0.028c12.899,0,25.798-0.003,38.698-0.006c12.897-0.003,25.794-0.006,38.69-0.006
		c24.306,0,52.523,0.008,81.955,0.065c-8.178,3.706-15.828,8.907-22.905,15.586c-25.367,23.938-32.63,60.509-18.952,95.44
		c6.864,17.531,18.671,32.727,34.144,43.945c15.622,11.326,33.556,17.571,51.862,18.058c1.134,0.03,2.283,0.046,3.412,0.046
		c36.588,0,70.579-15.992,93.256-43.875c22.792-28.024,31.543-64.861,24.008-101.063c-7.516-36.106-25.618-66.645-52.35-88.316
		c-26.715-21.657-60.411-33.124-97.446-33.162c-15.513-0.016-31.032-0.019-46.545-0.019l-21.122,0.002l-21.118,0.002
		c-7.494,0-14.985-0.001-22.479-0.004c-11.118-0.004-22.238-0.017-33.357-0.03C225.534,359.481,212.539,359.466,199.546,359.466
		L199.546,359.466z"/>
</g>
</svg>
