<?xml version="1.0" encoding="utf-8"?>
<!-- Generator: Adobe Illustrator 19.2.0, SVG Export Plug-In . SVG Version: 6.00 Build 0)  -->
<svg version="1.1" id="Layer_1" xmlns="http://www.w3.org/2000/svg" xmlns:xlink="http://www.w3.org/1999/xlink" x="0px" y="0px"
	 viewBox="0 0 518 82" style="enable-background:new 0 0 518 82;" xml:space="preserve">
<style type="text/css">
	.st0{clip-path:url(#SVGID_2_);fill:#FFFFFF;}
	.st1{fill:#2E3191;}
	.st2{clip-path:url(#SVGID_4_);fill:none;stroke:#FFFFFF;stroke-width:2.0871;}
	.st3{clip-path:url(#SVGID_4_);fill:#FFFFFF;}
	.st4{fill:#FFFFFF;}
</style>
<g>
	<g>
		<defs>
			<path id="SVGID_1_" d="M56.7,6.4H5.4V75H69V18.7C69,11.9,63.5,6.4,56.7,6.4z"/>
		</defs>
		<use xlink:href="#SVGID_1_"  style="overflow:visible;fill:#2E3191;"/>
		<clipPath id="SVGID_2_">
			<use xlink:href="#SVGID_1_"  style="overflow:visible;"/>
		</clipPath>
		<path class="st0" d="M80.2,49.5l0.4-0.6c0,0,0.5-0.8,0.5-0.8l0.7-0.8c0,0,0.6-0.7,0.6-0.7c0,0,0.1-0.2,0.2-0.3
			c-0.2-0.2-1.7-1.6-2.1-2c-0.5,0.4-5.6,4.8-5.6,4.8l-5.7-0.1c0,0,8.1-8,8.7-8.6c-0.5-0.4-1.7-1.4-2.1-1.7
			c-0.5,0.4-11.6,9.8-11.6,9.8l-3.3-0.1l-1,0.1l1.1-1.2l0.6-0.6l0.6-0.6l0.4-0.4l0.5-0.6c0,0,0.3-0.3,0.3-0.4
			c-0.2-0.2-1.1-1.1-1.5-1.4c-0.3,0.2-0.7,0.6-0.7,0.6l-3.1,2.7c0,0-1.1,0.9-1.1,0.9l-1.7,1.3L50,48.8l-0.6,0l0.5-1.6l0.6-1.2
			c0.2-0.4,0.5-0.8,0.8-1.1c0.3-0.3,0.7-0.6,1.1-0.7c0,0,7.5-2,8.1-2.2c0-0.5,0-2.1,0-2.3c-0.1,0-0.2,0-0.2,0l-0.3,0l-0.7,0.1
			c0,0-2.6,0.5-2.6,0.6L56,40.5l-0.6,0l0-0.4c0-0.8,0.3-1.5,0.8-2.1c0.5-0.6,1.2-1,2-1.2c0,0,13.7-3.4,14.2-3.6c0-0.1,0-0.3,0-0.3
			c0-0.1,0-0.1,0-0.2c0-0.6-0.1-1.1-0.2-1.5c0-0.1-0.1-0.4-0.9-0.4c0,0-0.7,0-0.8,0c-0.1,0-10.8,2.4-10.8,2.4l0-0.7
			c0-0.7,0.3-1.5,1-2.3c0.6-0.7,1.2-1.3,1.8-1.7l0.1,0l1.4-0.3l2-0.5l2-0.5c0,0,1.4-0.4,1.4-0.3c0,0,0.2-0.1,0.3-0.1
			c0,0,0-0.1,0-0.1s0-0.8,0-0.9l-0.1-0.9c0-0.2-0.1-0.5-0.3-0.6C69.5,24,69.3,24,69.1,24l-2.9,0.2l-0.4,0c0,0,0-2,0-2.3
			c-0.2-0.1-0.5-0.3-0.5-0.3s-1-0.4-1.1-0.5c-0.1,0-0.2,0-0.2,0c-0.3,0-0.4,0.1-0.6,0.2l-0.8,1l-0.2,0c-0.1,0-0.3-0.1-0.5-0.3
			L61.7,22l-0.1,0l-0.5-1.4c0,0-0.3-0.8-0.4-1.1c-0.3,0-1.5,0-1.5,0l-0.7,0l-0.5,0.1c0,0-0.1,0-0.1,0.2c0,0,0,0.1,0,0.1
			c0,0.1,1.5,6.3,1.5,6.3l0,0.6l-0.2,1.2l-0.6,1.4c-0.2,0.5-0.5,0.9-0.9,1.2C57.4,30.8,57,31,56.5,31l-0.2,0l-0.3-0.3l-2.8-10.3
			c0,0-0.1-0.2-0.1-0.3c-0.1,0-0.4,0-0.4,0c-0.6,0-1.1,0.1-1.5,0.3c-0.2,0.1-0.5,0.3-0.5,0.9c0,0,0.1,0.7,0.1,0.6
			c0,0,2.9,11.5,3,11.7c0.1,0.2,0.1,0.4,0.1,0.5c0,0,0,0.6,0,0.6c0,1.5-0.7,2.7-1.9,3.6l-0.3,0.4l-0.5-0.9l-0.1-0.1l-0.1-0.1
			l-0.2-0.7l-0.8-2.2l-0.2-0.7l-0.1-0.1l-0.5,0c0,0-0.8,0-0.8,0c-0.1,0-0.3,0.1-0.4,0.2c0,0.2,0,0.4,0,0.4s0,0.6,0,0.6
			c0,1.2,0.1,2.3,0.4,3.2l1.2,3.7l0,0.5c0,0.3-0.1,0.7-0.4,1.2l-0.8,1.4c-0.3,0.5-0.6,0.9-1,1.2c-0.4,0.4-0.8,0.6-1.1,0.6l-0.2,0
			l-0.2,0l-1.5-1.9c-0.6-0.8-0.9-1.5-0.9-2.3c0,0,0-0.7,0-0.7l1.2-3.6c0.3-1,0.5-2.2,0.6-3.3c0,0,0-0.4,0-0.7
			c-0.3-0.1-0.7-0.2-0.7-0.2l-0.9-0.1l-0.2,0c0,0-0.1,0-0.1,0c-0.1,0.2-0.2,0.5-0.2,0.5S43,35.4,43,35.4l-0.4,1.1l-0.3,0.8l0-0.1
			l-0.2,0.5c0,0-0.3,0.3-0.3,0.3l-0.4,0.2l0,0l-0.4-0.2l-1.1-1.4c-0.4-0.5-0.6-1.1-0.6-1.8l0-0.5L43,21.6c0,0,0.1-0.5,0.1-0.5
			c0-0.6-0.2-0.8-0.5-0.8c-0.5-0.2-1-0.3-1.5-0.3l-0.2,0c0,0-0.3,0-0.2,0c0,0-0.5,1.8-0.5,1.8l-0.8,2.7l-0.8,2.7
			c0,0-0.5,1.8-0.6,1.8l-0.9,2l-0.4-0.3C36,30,35.4,29.5,35,28.9c-0.5-0.6-0.7-1.4-0.7-2.3c0,0,0-0.1,0-0.1c0-1.2,0.3-2.5,0.8-3.6
			c0.4-1.1,0.7-2.2,0.7-3.3c0,0,0-0.2,0-0.5c-0.1-0.1-0.3-0.2-0.5-0.2l-0.8,0c-0.6,0-0.9,0.1-1.1,0.1c-0.2,0.1-0.4,0.3-0.5,0.5
			l-0.4,0.9c-0.1,0.4-0.3,0.8-0.6,1.3l-0.3,0.4c0,0-1.6-1.5-1.8-1.7c-0.4,0-0.9,0.1-1.4,0.4c-0.6,0.3-0.7,0.6-0.7,0.8l0.1,0.7l0.2,1
			l0.1,0.5L26,23.4l-1.4-0.2c-0.4,0-0.6,0.1-0.6,0.5l-0.2,1.5l-0.1,0.7c0,0,0,0.1,0,0.1l1.4,0.4l4,1.1l1.4,0.4l-0.1,0
			c0,0,0.5,0.2,0.5,0.2l0.4,0.3l0,0l1,1.5l0.5,0.9l0.5,0.9l0.2,0.6l0.2,0.4l-0.9,0c0,0-9.8-2.6-9.9-2.6c-0.1,0-1.3,0-1.6,0
			c0,0,0,0.1,0,0.1s-0.1,0.4-0.1,0.4l-0.1,0.6l0,0.7l0,0.4c0,0,0,0.1,0,0.2c0.2,0.1,0.4,0.2,0.4,0.2l13.8,3.8
			c0.7,0.2,1.3,0.6,1.8,1.4c0.5,0.7,0.9,1.4,1,2l0.1,0.5l-0.8,0L36.5,40l-1.3-0.3l-1.4-0.3c0,0-0.7-0.1-0.7-0.1l-0.3,0
			c-0.2,0-0.2,0.1-0.3,0.1c0,0-0.2,0.4-0.2,0.4l-0.1,0.6c0,0,0,0.9,0,1.2c0.6,0.2,8.7,2.6,8.7,2.6l2.3,4.5l-5.8-0.1l-0.2,0l-1.4-1.4
			l-1.6-1.5l-1.8-1.5c0,0-1.4-1.1-1.5-1.2c-0.1,0-0.1,0-0.1,0c-0.3,0-0.6,0.1-0.9,0.4c-0.3,0.2-0.4,0.5-0.4,0.8c0,0,0,0.3,0,0.4
			c0.3,0.3,1.2,1.3,1.2,1.3c0.6,0.6,1,1.2,1.3,1.7l0.3,0.6l-4.3-0.1l-10.2-9.5L17.3,38l-0.5-0.1c0,0,0,0-0.1,0
			c-0.2,0.2-1.2,1.3-1.6,1.7c0.5,0.5,8.6,8.7,8.6,8.7l-5.9-0.1c0,0-5.5-4.7-5.7-4.8c0,0-0.1,0-0.1,0l-0.7,0.5
			c-0.5,0.4-0.6,0.6-0.7,0.7c0,0.2,0,0.5,0,0.5c0,0.5,0.1,0.9,0.4,1.2l1.8,2c0,0-1.8,0-2.2,0c0,0.6,0,2.5,0,3.1c0.5,0,2.6,0,2.6,0
			L12,52.1c-0.5,0.4-0.9,0.7-1.2,1.1c-0.2,0.3-0.3,0.8-0.4,1.3c0,0,0,0.3,0,0.5c0.2,0.2,1.1,1.1,1.5,1.4c0.3-0.2,0.6-0.6,0.6-0.6
			l3-2.5c0,0,1-0.8,1-0.8l0.8-0.6c0.5-0.3,0.7-0.4,0.8-0.4l5.5,0.1c0,0-8.2,7.7-8.8,8.2c0.4,0.4,1.6,1.5,1.8,1.7c0,0,0,0,0.1,0
			c0.1-0.1,0.2-0.1,0.2-0.1s0.1,0,0.3-0.1c0.1-0.1,11.1-9.4,11.1-9.4l4.6,0.1c0,0-3.3,3.3-3.8,3.7c0.4,0.4,1.3,1.3,1.6,1.5
			c0,0,0.1-0.1,0.1-0.1l0.5-0.4l4.7-4l1.2-0.9l0.1-0.1l5.6,0.1l0,0.4c0,0.7-0.2,1.3-0.7,2c0,0-1.3,1.8-1.3,1.8l-0.4,0.4l-8.8,2.2
			c0,0-0.1,0-0.1,0.2c0,0.5,0.1,1,0.3,1.5c0.1,0.2,0.3,0.5,0.9,0.5c0.7,0,1.4-0.1,2-0.2c0.7-0.2,1.4-0.3,2.2-0.2l0.4,0l0,0.4
			c0,0.9-0.3,1.6-0.9,2.2c-0.5,0.5-1.2,0.9-2,1.1l-3.5,0.9l-5.7,1.3l-2.3,0.6c0,0-1.3,0.3-1.3,0.3c-0.8,0.2-0.9,0.4-0.9,0.4
			c0,0-0.1,0.1-0.1,0.7c0,0,0,1.3,0,1.3c0,0.1,0,0.2,0.1,0.3c0.1,0.1,0.2,0.1,0.4,0.1c0,0,0.6,0,0.7,0c0.1,0,10-2.3,10-2.3l1,0
			l0,0.4c0,0.3-0.1,0.7-0.3,1.2l-0.7,1.2l-0.9,1.1c-0.4,0.4-0.8,0.6-1.3,0.7L26,73.5L24,74c0,0-0.7,0.2-1.1,0.2c0,0.3,0,0.8,0,0.9
			c0,0.5,0,1,0.1,1.4c0,0.1,0.1,0.4,0.9,0.4c0,0,1.3-0.1,1.3-0.1l1.4-0.1l0.3,0l0.2,0.5l0,0.2c0,0-0.4,0.9-0.4,0.9l-0.3,0.6
			c0.4,0.2,2.1,1,2.6,1.3c0.1-0.2,0.3-0.4,0.3-0.4l0.6-0.8c0,0,0.1-0.1,0.1-0.1c0.2-0.2,0.4-0.3,0.5-0.3l0.3-0.1l0.6,1.7l0.4,1.3
			l-0.1-0.1l0.3,0.4c0,0,0,0.1,0,0.1c0.3,0,0.8,0,0.8,0c0.6,0,1.1,0,1.4-0.1c0.1,0,0.3-0.1,0.3-0.8c0-1.1-0.2-2.2-0.6-3.2
			c-0.5-1.1-0.7-2.3-0.7-3.5c0-0.9,0.3-1.7,0.7-2.4c0.5-0.7,1.1-1.3,1.8-1.8l0.4-0.2l0.2,0.4l0.3,0.7l2.7,9.8c0,0.1,0,0.1,0.1,0.1
			l0.6,0c0.6,0,1.1,0,1.4-0.1c0.2-0.1,0.3-0.3,0.3-0.8c0,0-0.1-0.6-0.1-0.6l-3.3-13l0-0.4c0,0,0.2-0.9,0.2-0.9l0.4-0.9l0.6-0.9
			c0.3-0.3,0.6-0.5,0.9-0.4l0.4,0.2l0,0c0,0,1.5,4.2,1.6,4.3c0,0,0.1,0.1,0.1,0.1c0,0,0,0,0,0c1.1,0,1.5-0.1,1.6-0.1
			c0,0,0.2-0.1,0.2-0.9c0-1.1-0.1-2.2-0.4-3.2l-1.1-3.6l0-0.7c0-0.3,0.1-0.7,0.3-1.2l0.7-1.4l0.9-1.2c0.4-0.4,0.8-0.7,1.2-0.6
			c0.4,0,0.9,0.3,1.2,0.7l0.8,1.3l0.6,1.4l0.2,1l0,0.5l-2,7.2l0-0.1c0,0-0.1,0.3-0.1,0.4c0,0,0,0,0,0c0,0.2,0.1,0.4,0.6,0.5
			c0,0,1.2,0.1,1.4,0.2c0-0.1,0.2-0.3,0.2-0.3l0.5-1.3l0.5-1.6l0.6-1.3l0.1-0.2l0.3,0c0.3,0,0.6,0.2,0.6,0.5l0.6,0.9l0.9,1.4
			l0.1,0.2l0,0.8c0,0-3.7,12.7-3.7,12.8c0,0.1,0,1.2,0,1.5c0.1,0,0.2,0,0.5,0.1l1.1,0.1c0,0,0.3,0,0.5,0c0.2-0.4,0.4-0.7,0.5-1.2
			l0.5-1.8l0.8-2.8l0.8-2.8l0.7-2.4l0.5,0.3c0.6,0.4,1.2,1,1.8,1.7c0.6,0.8,0.9,1.6,0.9,2.4c0,0,0,0.7,0,0.7s-1.7,6.5-1.7,6.6
			c0,0,0,0.1,0,0.1c0,0,0,0,0.1,0.1l0.6,0.2l0,0c0,0,0.7,0.1,0.8,0.1l0.6,0c0.4,0,0.6-0.1,0.7-0.2c0.2-0.2,0.3-0.5,0.3-0.8l0.2-1.1
			c0.1-0.3,0.3-0.8,1-1l0.3-0.1l0.8,1.2c0.2,0.3,0.5,0.4,0.6,0.4c0,0,0.1,0,0.2,0c0.3-0.1,0.9-0.4,0.9-0.4s0.5-0.2,0.7-0.3
			c0-0.2,0-0.5,0-0.5l0-0.8l-0.2-0.7l-0.2-0.6l0.9,0c0.5,0,0.9,0.1,1.4,0.2c0.4,0.1,0.8,0.2,1.3,0.2l0.4,0c0,0,0.1,0,0.1,0
			c0.2-0.2,0.3-0.5,0.4-0.9l0.1-1.3c0,0,0,0,0-0.1c0-0.1-0.1-0.2-0.1-0.3c-0.2-0.1-7.3-2.2-7.3-2.2l-0.1,0l-0.5-0.7l-0.6-1
			c0,0-0.6-0.9-0.6-0.9l-0.3-0.6l-0.6-1.2l1.4,0c0,0,9.8,2.6,9.9,2.6c0.1,0,0.6,0,0.6,0c0.7,0,0.8-0.2,0.8-0.3
			c0.1-0.4,0.2-0.9,0.2-1.4l0-0.6c0-0.2,0-0.2-0.1-0.2L57,64.4c-0.3-0.1-0.6-0.3-0.8-0.6c0,0-0.5-0.8-0.5-0.8L55.3,62l-0.1-0.7
			L55.1,61l0.5,0c0.8,0,1.5,0.1,2.1,0.3c0.5,0.2,1.2,0.3,1.9,0.3l0.6,0c0,0,0,0,0.1,0c0-0.1,0-1.9,0-2.3c-0.6-0.2-7.4-2.1-7.4-2.1
			c-0.5-0.1-0.9-0.4-1.3-0.8c-0.4-0.4-0.7-0.7-0.9-1.2c-0.3-0.4-0.4-0.9-0.5-1.4l-0.1-1.3l-0.1-0.4l5.2,0.1c0,0,6,5,6.5,5.5
			c0.4-0.3,1.4-1.2,1.5-1.4c-0.1-0.1-0.3-0.4-0.3-0.4l-0.5-0.6l-0.1-0.1L62,54.8l-0.6-0.7l-0.6-0.6l-1.1-1.1l4.2,0.1
			c0.2,0,0.3,0.1,0.9,0.5c0,0,1,0.8,1,0.8c0,0,2,1.7,2,1.7l5.9,5.4c0,0,1.6,1.5,1.9,1.7c0,0,0,0,0,0c0.2-0.2,1.5-1.4,2-1.8
			c-0.6-0.6-8.5-8.3-8.5-8.3l5.7,0.1c0,0,5,4.5,5.5,5c0.4-0.4,2-1.8,2.2-2c-0.1-0.1-0.1-0.2-0.1-0.2l-0.6-0.7l-0.7-0.8l-0.5-0.8
			l-0.4-0.6c0,0,1.8,0,2.3,0c0-0.6,0-2.5,0.1-3.1c-0.5,0-1.5,0-1.5,0L80.2,49.5z M63.5,56.6L63.5,56.6c0,0-0.1-0.1-0.2-0.1
			c0,0,0,0,0,0L63.5,56.6z"/>
	</g>
	<path class="st1" d="M395.3,12.5h-1.7h-2.8h-4.2v16.3c0,2.4-1.4,2.9-2.7,2.9c-1.4,0-2.8-0.5-2.8-2.9v-4.2v-6.7v-1.3
		c0-2.3-1.9-4.2-4.2-4.2h-1.2h-3.6h-4.2v17c0,8.3,8.3,9.8,15.9,9.8c7.9,0,15.8-1.5,15.8-9.8V17.6v-1
		C399.5,14.4,397.6,12.5,395.3,12.5z M162.5,12.5h-2.1h-2.8h-4.2v26.1h13.2v-4.2V18.2v-1.6C166.7,14.4,164.8,12.5,162.5,12.5z
		 M200.3,12.5h-1.4h-2.6h-4.2v10.9H192l-4.4-6.4l0,0l-0.8-1.1c-1.3-1.9-4.3-3.4-6.6-3.4h-0.9h-4h-4.2v26.1h12.4V26.7h0.1l9.2,11.8
		h11.6V25v-6.3v-2C204.5,14.4,202.6,12.5,200.3,12.5z M321.3,12.5h-0.7H313h-4.2l-2,6.7l-0.8,2.7l-1.2,4h-0.1l-1.8-6l-1-3.5
		c0,0,0,0,0,0l-0.1-0.4l0,0c-0.8-2-3.1-3.6-5.2-3.6h-0.1h-8.3H284v26.1h12.4V24.7h0.1l4.6,13.9h7.3l4.1-12.5l0.5,0.4v12.1h12.4v-4.2
		V17.2v-0.5C325.5,14.4,323.6,12.5,321.3,12.5z M429.3,27.8c4.1-0.3,8.1-2.4,8.1-7.6c0-4.9-3.5-7.7-9.4-7.7h-24.7v26.1h13.2v-8.4
		h0.1l6.2,8.4h15.6L429.3,27.8z M420.6,24.9h-4.1v-5.2h4.3c2.3,0,3.4,0.7,3.4,2.3C424.2,23.9,423.6,24.9,420.6,24.9z M105.2,25.7
		L105.2,25.7c4.1-0.3,8.1-2.2,8.1-6.7c0-4-2.2-6.5-8.7-6.5H79.3v26.1h24.9c7.2,0,9.4-3.4,9.4-6.8C113.5,26.5,109.4,26,105.2,25.7z
		 M92.4,19.3h5.2c1.8,0,2.4,0.6,2.4,1.9c0,1.1-0.6,1.9-2.6,1.9h-5V19.3z M97.8,32.5h-5.3v-3.8h5.4c2,0,2.5,0.8,2.5,1.9
		C100.3,31.7,99.8,32.5,97.8,32.5z M275.2,17.4l-0.3-0.9c-0.7-2.2-3.2-4-5.5-4h-1h-11.5h-4.2l-8.3,26.1h13.4l1-3.3h8.7l0.8,3.3H282
		L275.2,17.4L275.2,17.4z M260.3,28.1l2.7-9.5h0.1l0,0l2.8,9.5H260.3z M229.8,12.5h-21.3v26.1h20.6c10.5,0,14.7-8.1,14.7-13
		C243.8,16,238.9,12.5,229.8,12.5z M224.7,30.6h-3v-9.2h3.6c3.5,0,4.6,1.4,4.6,4.1C229.9,29,227.8,30.6,224.7,30.6z M346.8,11.7
		c-9.5,0-18,2.8-18,13.1c0,6,1.4,14.5,18,14.5c16.7,0,18-8.5,18-14.5C364.8,14.6,356.3,11.7,346.8,11.7z M346.8,31.4
		c-3.3,0-4.5-2.2-4.5-5.5c0-3.3,1.2-5.5,4.5-5.5c3.3,0,4.5,2.2,4.5,5.5C351.2,29.2,350.1,31.4,346.8,31.4z M150.3,20.2
		c0-4.9-3.5-7.7-9.4-7.7h-24.7v26.1h13.2v-8.4h0.1l6.2,8.4h15.6l-9.1-10.8C146.2,27.5,150.3,25.4,150.3,20.2z M133.4,24.9h-4.1v-5.2
		h4.3c2.3,0,3.4,0.7,3.4,2.3C137.1,23.9,136.4,24.9,133.4,24.9z"/>
	<path class="st1" d="M189,53.3h-2.3h-14.6h-3.5v8.5h6.4V75H186V61.8h6.4v-3.5v-0.9v-0.7C192.4,54.9,190.9,53.3,189,53.3z
		 M202.2,53.3h-2h-2h-3.5V75h10.9v-3.5v-13v-1.7C205.7,54.9,204.1,53.3,202.2,53.3z M131.1,53.3h-1.3h-16.2h-3.5V75h24.4v-5.7h-13.5
		v-2h13.5v-5h-13.5v-2.1h13.5v-3.3l0,0c0,0,0-0.1,0-0.1C134.6,54.9,133,53.3,131.1,53.3z M105.5,53.3h-1.7h-2.6h-3.5l-3.5,13.5h-0.1
		l-2.1-8l0,0l-0.6-2.2c-0.5-1.8-2.4-3.4-4.3-3.4H85h-2.3h-3.5l7,21.6h15.9l1-3.3l4.7-15C108.5,54.8,107.4,53.3,105.5,53.3z
		 M162.7,53.3h-1.5h-1.9h-3.5v9h-0.1l-3.5-5.1l-0.8-1.1c-1.1-1.6-3.5-2.8-5.4-2.8h-1.2h-2.8h-3.5V75h10.3v-9.8h0.1l7.6,9.8h9.6v-3.5
		V59.1v-2.3C166.2,54.9,164.6,53.3,162.7,53.3z M356.8,53.3H355h-1.6H350v9h-0.1l-2-2.8l-2.3-3.3c-1.1-1.6-3.5-2.8-5.4-2.8h-1.5
		h-2.6h-3.5V75h10.3v-9.8h0.1l7.6,9.8h9.6v-3.5V58.1v-1.3C360.2,54.9,358.7,53.3,356.8,53.3z M258.6,66.3l-2.6-8.2l-0.5-1.4
		c-0.6-1.8-2.6-3.3-4.5-3.3h-4.1h-6.3h-3.5L230.2,75h11.2l0.8-2.8h7.2l0.7,2.8h11.3l-1.1-3.3L258.6,66.3z M243.4,66.3l2.3-7.9h0.1
		l2.3,7.9H243.4z M294,53.3h-1.9H290h-3.5V75h10.9v-3.5V59.7v-2.9C297.5,54.9,295.9,53.3,294,53.3z M280.8,53.3h-2.4h-14.4h-3.5v8.5
		h6.4V75h10.9V61.8h6.4v-3.5v-0.7v-0.9C284.2,54.9,282.7,53.3,280.8,53.3z M435.8,72l-5-6c3.4-0.3,6.7-2,6.7-6.3
		c0-4.1-2.9-6.4-7.8-6.4h-20.5V75h10.9v-7h0.1l5.1,7h13L435.8,72z M423.5,63.6h-3.4v-4.3h3.5c1.9,0,2.8,0.5,2.8,1.9
		C426.6,62.8,426,63.6,423.5,63.6z M404.1,69.4c1.1-1.8,1.6-3.7,1.6-5.3c0-7.9-4.1-10.8-11.6-10.8h-17.6V75h17.1c3.4,0,6-1,7.9-2.5
		C403.1,71.1,404.1,69.4,404.1,69.4z M389.8,68.4h-2.5v-7.6h3c2.9,0,3.8,1.2,3.8,3.4C394.2,67,392.4,68.4,389.8,68.4z M315,52.7
		c-7.9,0-14.9,2.4-14.9,10.8c0,5,1.1,12.1,14.9,12.1c13.8,0,14.9-7.1,14.9-12.1C329.9,55.1,322.8,52.7,315,52.7z M315,69
		c-2.7,0-3.7-1.8-3.7-4.6c0-2.8,1-4.6,3.7-4.6c2.7,0,3.7,1.8,3.7,4.6C318.7,67.2,317.7,69,315,69z M224.7,67.5h-1.2H220v-3.5v-5.6
		v-1.7c0-1.9-1.6-3.5-3.5-3.5h-1.7h-2.3H209V75h20.4v-2.6v-0.9V71v-3.5h-3.5H224.7z"/>
	<g>
		<g>
			<defs>
				<path id="SVGID_3_" d="M500.3,6.4H449V75h63.6V18.7C512.6,11.9,507,6.4,500.3,6.4z"/>
			</defs>
			<use xlink:href="#SVGID_3_"  style="overflow:visible;fill:#2E3191;"/>
			<clipPath id="SVGID_4_">
				<use xlink:href="#SVGID_3_"  style="overflow:visible;"/>
			</clipPath>
			<circle class="st2" cx="491.2" cy="52" r="36.4"/>
			<path class="st3" d="M485,50.6l0.5-1.8l-0.6-0.3l-0.5-0.2c-1.2-0.5-3.4-1.6-6.6-3.4c-3.3-1.8-6.2-2.9-8.7-3.3
				c-2.5-0.4-4.5-0.2-5.9,0.8c-1.9,1.3-2.9,3.1-3.4,5c-0.3,1.2-0.5,3-0.3,4.8c0.1,1.4,0.8,2.8,2.2,4c1.5,1.4,3.4,2.1,5.6,2.2
				c2.3,0.1,6.5-0.6,12.7-2.3c1.5-0.4,3-0.7,4.5-1l0.8-0.1l-0.2-0.8c-0.1-0.4-0.2-0.7-0.2-1.1c0-0.2,0-0.4,0-0.6c0-0.2,0-0.4,0-0.6
				c0-0.1,0-0.2,0-0.3L485,50.6z M479.7,54.8c-6,1.6-10.2,2.3-12.3,2.2c-1.9-0.1-3.4-0.7-4.7-1.8c-1.2-1.1-1.8-2.2-1.7-3.3
				c0-0.1,0-0.1,0-0.2c0.1,0.2,0.3,0.4,0.4,0.6c1.3,1.6,3.1,2.5,5.3,2.9c2.3,0.4,6.5,0.2,12.9-0.6c0.6-0.1,1.2-0.1,1.8-0.2
				C480.8,54.5,480.2,54.6,479.7,54.8z M514.3,29.4c-0.8-1.1-4.4-4.2-7.8-4.4c-2.6-0.2-5,1-6.9,3.4c-1.2,1.5-2.6,5.3-4.2,11.5
				c-0.4,1.4-0.8,2.8-1.3,4.3l-0.3,0.7l0.7,0.2c0.7,0.2,1.4,0.6,2,1c0,0,0,0,0,0c0.3,0.2,0.6,0.4,0.9,0.7c0,0,0,0.1,0.1,0.1
				c0.2,0.2,0.5,0.5,0.7,0.7c0.2,0.3,0.4,0.5,0.6,0.8l0.4,0.7l0.7-0.5c1.4-1.1,3-2.2,4.7-3.2c3.8-2.2,6.3-4.1,7.8-5.8
				c1.5-1.7,2.4-3.5,2.7-5.2C515.3,32.7,515.3,30.8,514.3,29.4z M502.6,29.5c-1.4,1.3-3.3,4.9-5.7,10.9c-0.2,0.5-0.4,0.9-0.6,1.3
				c0.1-0.5,0.3-1,0.4-1.5c1.6-6,2.9-9.7,4-11c1.6-2,3.5-2.9,5.7-2.8c0.6,0,1.2,0.2,1.8,0.5C506.2,27,504.3,27.9,502.6,29.5z
				 M501.7,61.6L501.7,61.6c-1.2-1.1-2.3-2.3-3.4-3.7l-0.5-0.6l-0.6,0.5c-0.2,0.2-0.4,0.3-0.6,0.5l-0.1,0.1c-1.2,0.8-2.6,1.3-4,1.3
				l-0.8,0l0.5,6c0.3,7,1.1,11.4,2.3,13.4c1.3,2,3,3.3,5.1,3.6c1.8,0.3,3.4-0.1,4.9-1.1c0.1-0.1,0.2-0.1,0.3-0.2
				c1.3-0.2,2.5-0.7,3.5-1.6c1.3-1.2,2.1-2.8,2.2-4.6c0.1-1.8-0.4-3.7-1.3-5.5C508.1,68,505.7,65.3,501.7,61.6z M508.9,75.1
				c-0.1,1.4-0.6,2.6-1.7,3.6c-0.2,0.2-0.4,0.3-0.6,0.5c0.3-0.5,0.5-1.1,0.6-1.8c0.3-1.8,0.1-3.7-0.6-5.6c-0.7-1.9-2.7-4.8-6.2-9
				l0,0c-0.4-0.5-0.8-1.1-1.2-1.6c0.5,0.5,1,1,1.5,1.5l0,0c3.8,3.5,6.2,6.2,7.1,7.8c0.8,1.4,1.2,2.9,1.2,4.4
				C508.9,74.9,508.9,75,508.9,75.1z"/>
		</g>
		<path class="st4" d="M492.3,46.1c-3.4,0-6.2,2.8-6.2,6.2c0,3.4,2.8,6.2,6.2,6.2c3.4,0,6.2-2.8,6.2-6.2
			C498.4,48.9,495.7,46.1,492.3,46.1z M492.3,55.3c-1.7,0-3-1.4-3-3c0-1.7,1.4-3,3-3s3,1.4,3,3C495.3,53.9,493.9,55.3,492.3,55.3z"
			/>
	</g>
</g>
</svg>
