<?xml version="1.0" encoding="utf-8"?>
<!-- Generator: Adobe Illustrator 17.0.2, SVG Export Plug-In . SVG Version: 6.00 Build 0)  -->
<!DOCTYPE svg PUBLIC "-//W3C//DTD SVG 1.1//EN" "http://www.w3.org/Graphics/SVG/1.1/DTD/svg11.dtd">
<svg version="1.1" id="Layer_1" xmlns="http://www.w3.org/2000/svg" xmlns:xlink="http://www.w3.org/1999/xlink" x="0px" y="0px"
	 width="792px" height="792px" viewBox="0 0 792 792" style="enable-background:new 0 0 792 792;" xml:space="preserve">
<path d="M776.21,328.231c-26.57,64.546-87.808,106.259-157.839,106.514c-95.325,0.346-190.654,0.087-285.981,0.084
	c-96.77,0-193.541,0.005-290.31-0.005c-17.483,0-30.976-7.241-38.181-23.379c-6.41-14.357-5.348-29.769,6.414-39.956
	c8.277-7.17,20.94-12.847,31.724-12.986c82.793-1.058,165.607-0.613,248.414-0.606c107.361,0.003,214.722,0.254,322.082-0.045
	c56.825-0.161,97.699-38.582,98.427-91.415c0.406-29.372-20.193-53.992-49.333-55.261c-8.968-0.389-20.441,5.5-26.962,12.21
	c-9.677,9.953-4.833,19.792,8.889,22.822c20.678,4.566,35.063,22.529,33.004,41.21c-2.379,21.62-18.703,35.342-41.796,35.128
	c-62.05-0.572-100.244-66.687-73.457-127.163c27.084-61.151,103.884-81.019,164.6-42.58
	C784.145,189.673,804.306,259.98,776.21,328.231z M43.77,301.831c51.524,0.291,103.052,0.079,154.58,0.062
	c50.082-0.017,100.167,0.336,150.245-0.101c71.574-0.62,133.407-43.049,159.461-108.695c26.967-67.957,6.087-137.72-52.039-173.862
	c-67.101-41.72-150.28-12.664-169.149,59.085c-15.038,57.174,23.681,111.082,79.873,111.204
	c22.268,0.048,37.863-13.37,40.487-34.835c2.305-18.874-12.119-37.327-32.466-41.53c-14.437-2.982-18.006-12.088-8.991-24.098
	c7.673-10.223,18.236-13.567,30.701-11.165c33.912,6.527,52.158,37.259,43.726,73.654c-10.299,44.44-46.807,72.59-96.406,73.092
	c-50.555,0.511-101.123,0.053-151.685,0.07c-50.562,0.017-101.124-0.084-151.684,0.234c-20.448,0.127-34.06,10.629-38.374,28.258
	C-4.51,280.016,13.716,301.658,43.77,301.831z M343.927,488.692c-48.13-0.048-96.258-0.009-144.387-0.026
	c-52.461-0.017-104.924-0.204-157.382,0.057c-29.439,0.147-48.211,24.86-39.611,51.356c5.378,16.572,19.146,25.494,40.648,25.52
	c100.106,0.113,200.214-0.099,300.319,0.147c49.097,0.118,85.695,28.094,96.543,72.842c8.911,36.762-9.854,68.961-44.726,73.533
	c-8.69,1.139-20.256-2.862-27.162-8.55c-12.717-10.477-8.448-22.639,7.604-26.505c19.693-4.741,33.61-22.721,31.634-40.876
	c-2.3-21.135-18.346-35.092-40.21-35.244c-22.319-0.158-41.329,7.988-57.337,23.096c-26.451,24.961-33.603,62.979-19.195,99.775
	c15.013,38.343,52.349,65.412,91.664,66.459c87.638,2.333,152.348-75.404,134.429-161.493
	C499.015,543.544,431.487,488.783,343.927,488.692z"/>
</svg>
