<?xml version="1.0" encoding="utf-8"?>
<!-- Generator: Adobe Illustrator 17.0.2, SVG Export Plug-In . SVG Version: 6.00 Build 0)  -->
<!DOCTYPE svg PUBLIC "-//W3C//DTD SVG 1.1//EN" "http://www.w3.org/Graphics/SVG/1.1/DTD/svg11.dtd">
<svg version="1.1" id="Layer_1" xmlns="http://www.w3.org/2000/svg" xmlns:xlink="http://www.w3.org/1999/xlink" x="0px" y="0px"
	 width="792px" height="792px" viewBox="0 0 792 792" style="enable-background:new 0 0 792 792;" xml:space="preserve">
<style type="text/css">
	.st0{fill:url(#SVGID_1_);}
</style>
<linearGradient id="SVGID_1_" gradientUnits="userSpaceOnUse" x1="44.6034" y1="395.1005" x2="747.113" y2="395.1005">
	<stop  offset="0" style="stop-color:#FFFFFF"/>
	<stop  offset="1" style="stop-color:#000000"/>
</linearGradient>
<path class="st0" d="M744.079,592.489c-4.149,7.131-11.798,11.15-19.577,11.15c-3.76,0-7.649-0.908-11.279-2.982l-89.068-50.822
	v101.644c0,12.317-10.112,22.299-22.559,22.299c-12.446,0-22.559-9.983-22.559-22.299V524.164L420.35,433.671v174.376l116.164,66.25
	c10.761,6.093,14.521,19.706,8.297,30.467c-4.149,7.131-11.798,11.15-19.577,11.15c-3.76,0-7.649-0.908-11.279-2.982l-93.735-53.415
	v108.385c0,12.317-10.113,22.299-22.559,22.299c-12.446,0-22.559-9.983-22.559-22.299V659.516l-93.735,53.415
	c-10.761,6.093-24.503,2.463-30.727-8.168c-6.223-10.631-2.593-24.244,8.297-30.467l116.164-66.25V433.541l-152.984,87.253V647.46
	c0,12.317-10.113,22.299-22.559,22.299s-22.559-9.983-22.559-22.299V546.464l-94.772,54.063c-3.5,2.074-7.39,2.982-11.279,2.982
	c-7.779,0-15.298-4.019-19.577-11.15c-6.223-10.631-2.463-24.244,8.297-30.467l94.772-54.063l-98.532-56.267
	c-10.761-6.093-14.521-19.706-8.298-30.467c6.223-10.631,19.966-14.261,30.727-8.168l121.091,69.102l152.984-87.253L203.32,309.598
	L82.618,378.57c-3.5,2.074-7.39,2.982-11.279,2.982c-7.779,0-15.298-4.019-19.577-11.15c-6.223-10.631-2.463-24.244,8.297-30.467
	l98.143-56.008L60.059,227.92c-10.761-6.093-14.521-19.706-8.297-30.467c6.223-10.631,19.966-14.261,30.726-8.168l98.532,56.137
	V144.038c0-12.316,10.112-22.299,22.559-22.299s22.559,9.983,22.559,22.299v127.055l149.224,85.178V181.636l-115.516-65.861
	c-10.761-6.093-14.521-19.706-8.297-30.467c6.223-10.631,19.966-14.261,30.727-8.168l92.957,53.026V22.299
	C375.233,9.982,385.346,0,397.792,0c12.446,0,22.559,9.983,22.559,22.299v107.997l92.957-53.026
	c10.761-6.094,24.503-2.463,30.726,8.168s2.463,24.244-8.297,30.467L420.22,181.766V356.53l158.688-90.494V138.723
	c0-12.317,10.112-22.299,22.559-22.299s22.559,9.983,22.559,22.299v101.643l89.068-50.822c10.761-6.093,24.503-2.463,30.726,8.168
	c6.223,10.631,2.593,24.244-8.297,30.467l-88.808,50.562l89.068,50.822c10.761,6.093,14.521,19.706,8.298,30.467
	c-4.149,7.131-11.798,11.15-19.577,11.15c-3.76,0-7.649-0.908-11.279-2.982l-111.497-63.786L443.04,394.906L601.726,485.4
	l111.626-63.657c10.761-6.093,24.503-2.463,30.726,8.168s2.593,24.244-8.297,30.467L646.714,511.2l89.068,50.822
	C746.542,568.115,750.302,581.728,744.079,592.489z"/>
</svg>
