<?xml version="1.0" encoding="utf-8"?>
<!-- Generator: Adobe Illustrator 19.2.0, SVG Export Plug-In . SVG Version: 6.00 Build 0)  -->
<svg version="1.1" id="Layer_1" xmlns="http://www.w3.org/2000/svg" xmlns:xlink="http://www.w3.org/1999/xlink" x="0px" y="0px"
	 viewBox="0 0 720 629" style="enable-background:new 0 0 720 629;" xml:space="preserve">
<path d="M640,411l73.9-272c2.5-9.2,0.6-19.1-5.2-26.8c-5.8-7.6-14.9-12.1-24.5-12.1H168.5l-19-72.4c-3.6-13.5-15.8-23-29.8-23H35.8
	C18.8,4.8,5,18.5,5,35.6c0,17,13.8,30.8,30.8,30.8H96l108,410.9c-21.4,13.8-35.6,37.8-35.6,65.2c0,42.9,34.8,77.7,77.7,77.7
	c41.4,0,75.1-32.4,77.4-73.1h167.9c0.2,42.7,34.9,77.3,77.6,77.3c42.9,0,77.7-34.8,77.7-77.7c0-42.9-34.8-77.7-77.7-77.7
	c-18,0-34.5,6.2-47.7,16.5H298.6c-9.4-8.6-20.8-15-33.6-18.2l-8.8-33.5h354.1C624.2,433.7,636.4,424.4,640,411z M545.6,161.7h98.3
	L622,242.3h-94.4L545.6,161.7z M186,161.7h95.8l20.3,80.6h-94.3L186,161.7z M243.1,372.2l-21.9-80.6h93.3l20.3,80.6H243.1z
	 M448.2,372.2h-62.5l-20.3-80.6h100.8L448.2,372.2z M477.1,242.3H352.9l-20.3-80.6h162.5L477.1,242.3z M586.7,372.2h-88l18-80.6h92
	L586.7,372.2z"/>
</svg>
