<?xml version="1.0" encoding="utf-8"?>
<!-- Generator: Adobe Illustrator 16.0.0, SVG Export Plug-In . SVG Version: 6.00 Build 0)  -->
<!DOCTYPE svg PUBLIC "-//W3C//DTD SVG 1.1//EN" "http://www.w3.org/Graphics/SVG/1.1/DTD/svg11.dtd">
<svg version="1.1" id="Layer_1" xmlns="http://www.w3.org/2000/svg" xmlns:xlink="http://www.w3.org/1999/xlink" x="0px" y="0px"
	 width="300px" height="95px" viewBox="0 0 300 95" enable-background="new 0 0 300 95" xml:space="preserve">
<g>
	<g>
		<path fill="#FFFFFF" d="M18.378,48.861v2.471h-3.184h-5.19H6.82v-2.471c0-0.727,0.351-1.166,1.052-1.314
			c0.061-0.011,0.15-0.026,0.264-0.047c0.114-0.022,0.323-0.06,0.626-0.113c0.303-0.055,0.716-0.128,1.242-0.22v-13.23
			c-0.526-0.093-0.939-0.167-1.242-0.22c-0.303-0.055-0.512-0.093-0.626-0.113c-0.114-0.02-0.203-0.037-0.264-0.047
			c-0.701-0.151-1.052-0.588-1.052-1.314V29.77h3.184h5.19v17.396c0.525,0.092,0.938,0.166,1.243,0.22
			c0.303,0.054,0.512,0.091,0.626,0.113c0.113,0.021,0.202,0.036,0.264,0.047C18.028,47.698,18.378,48.136,18.378,48.861z
			 M15.699,24.747c-0.182,0.393-0.423,0.736-0.725,1.03c-0.302,0.295-0.656,0.529-1.062,0.705c-0.407,0.175-0.84,0.263-1.303,0.263
			c-0.449-0.001-0.872-0.089-1.272-0.263c-0.399-0.175-0.746-0.41-1.04-0.705c-0.294-0.294-0.529-0.637-0.704-1.03
			c-0.175-0.393-0.263-0.812-0.263-1.261c0-0.462,0.088-0.896,0.263-1.302c0.175-0.408,0.41-0.758,0.704-1.051
			c0.294-0.294,0.641-0.529,1.04-0.704c0.4-0.176,0.823-0.264,1.272-0.263c0.462,0,0.896,0.087,1.303,0.263
			c0.406,0.175,0.76,0.41,1.062,0.704c0.301,0.294,0.542,0.645,0.725,1.051c0.183,0.406,0.274,0.84,0.274,1.302
			C15.973,23.935,15.882,24.354,15.699,24.747z"/>
		<path fill="#FFFFFF" d="M49.29,48.861v2.472h-3.184h-5.19V37.609c0-1.315-0.305-2.336-0.915-3.057
			c-0.609-0.721-1.524-1.083-2.743-1.083c-0.896,0-1.738,0.203-2.522,0.609c-0.784,0.406-1.526,0.959-2.228,1.661v11.428
			c0.524,0.092,0.938,0.165,1.239,0.219c0.301,0.055,0.511,0.093,0.626,0.113c0.116,0.021,0.204,0.037,0.263,0.047
			c0.702,0.151,1.052,0.589,1.052,1.315v2.471h-3.18h-5.19h-3.184v-2.471c0-0.728,0.35-1.165,1.052-1.315
			c0.061-0.011,0.149-0.026,0.264-0.047c0.115-0.021,0.322-0.059,0.625-0.113c0.304-0.055,0.718-0.128,1.243-0.22V33.938
			c-0.525-0.092-0.939-0.167-1.243-0.22c-0.303-0.055-0.511-0.092-0.625-0.113c-0.114-0.021-0.203-0.038-0.264-0.048
			c-0.702-0.149-1.052-0.587-1.052-1.314v-2.47h3.184h3.173c0.672,0,1.114,0.315,1.324,0.945l0.358,1.703
			c0.434-0.448,0.892-0.855,1.376-1.219c0.483-0.365,0.994-0.68,1.534-0.946c0.54-0.266,1.118-0.47,1.734-0.609
			c0.618-0.141,1.291-0.21,2.018-0.21c1.176,0,2.22,0.2,3.132,0.6c0.91,0.399,1.669,0.958,2.279,1.681
			c0.609,0.721,1.073,1.583,1.388,2.585c0.315,1.002,0.473,2.105,0.472,3.309l0.001,9.558c0.524,0.092,0.939,0.166,1.241,0.22
			c0.303,0.055,0.512,0.093,0.627,0.113c0.114,0.021,0.202,0.036,0.264,0.047C48.94,47.698,49.29,48.136,49.29,48.861z"/>
		<path fill="#FFFFFF" d="M63.239,28.529v1.43h5.611v3.698h-5.442v13.509c0.522,0.092,0.956,0.166,1.297,0.22
			c0.342,0.055,0.59,0.093,0.742,0.113c0.152,0.02,0.259,0.036,0.321,0.047c0.702,0.149,1.052,0.589,1.052,1.315v2.47h-3.412h-0.005
			h-5.18h-3.184v-2.47c0-0.728,0.35-1.167,1.052-1.315c0.061-0.011,0.148-0.026,0.264-0.047c0.114-0.022,0.323-0.06,0.625-0.113
			c0.302-0.053,0.714-0.128,1.236-0.22V33.68l-1.87-0.294c-0.406-0.071-0.732-0.21-0.978-0.42c-0.245-0.21-0.367-0.505-0.367-0.883
			v-2.122h3.215v-1.597c0-1.234,0.186-2.341,0.558-3.321c0.371-0.98,0.903-1.813,1.597-2.5c0.694-0.687,1.538-1.212,2.533-1.576
			c0.993-0.365,2.115-0.546,3.361-0.546c0.995,0,1.919,0.132,2.775,0.399l-0.105,2.606c-0.028,0.406-0.218,0.658-0.566,0.756
			c-0.351,0.099-0.757,0.147-1.22,0.147c-0.617,0-1.166,0.066-1.649,0.2c-0.482,0.133-0.892,0.365-1.229,0.693
			c-0.336,0.33-0.592,0.764-0.767,1.302C63.327,27.062,63.239,27.731,63.239,28.529z"/>
		<path fill="#FFFFFF" d="M89.643,30.211c1.31,0.518,2.427,1.253,3.352,2.207c0.925,0.952,1.639,2.115,2.144,3.488
			c0.504,1.373,0.756,2.908,0.756,4.603c0,1.709-0.252,3.251-0.756,4.624c-0.505,1.373-1.219,2.542-2.144,3.51
			c-0.924,0.967-2.042,1.709-3.352,2.229c-1.31,0.518-2.771,0.775-4.382,0.775c-1.612,0-3.076-0.258-4.393-0.775
			c-1.317-0.52-2.441-1.262-3.373-2.229c-0.933-0.968-1.654-2.137-2.165-3.51c-0.512-1.373-0.768-2.915-0.768-4.624
			c0-1.695,0.255-3.23,0.768-4.603c0.511-1.373,1.232-2.536,2.165-3.488c0.932-0.954,2.055-1.689,3.373-2.207
			c1.317-0.518,2.781-0.777,4.393-0.777C86.873,29.434,88.333,29.693,89.643,30.211z M89.244,45.847
			c0.861-1.204,1.292-2.97,1.292-5.296c0-2.325-0.432-4.097-1.292-5.317c-0.862-1.218-2.189-1.828-3.983-1.828
			c-1.822,0-3.167,0.613-4.035,1.839c-0.869,1.226-1.303,2.995-1.303,5.306c0,2.312,0.434,4.074,1.303,5.287
			c0.868,1.211,2.213,1.818,4.035,1.818C87.055,47.655,88.382,47.052,89.244,45.847z"/>
		<path fill="#FFFFFF" d="M118.514,30.106l-0.672,3.888c-0.041,0.253-0.132,0.431-0.272,0.536c-0.141,0.105-0.33,0.157-0.568,0.157
			c-0.21,0-0.497-0.048-0.861-0.147c-0.365-0.097-0.849-0.147-1.451-0.147c-1.079,0-2.004,0.298-2.774,0.894
			c-0.771,0.596-1.421,1.467-1.954,2.616v9.263c1.789,0.316,1.808,0.324,2.13,0.38c0.702,0.151,1.052,0.589,1.052,1.315v2.471
			h-3.183h-0.001h-5.189h-3.184v-2.471c-0.001-0.728,0.351-1.165,1.051-1.315c0.324-0.057,0.342-0.064,2.133-0.38V33.938
			c-1.792-0.316-1.81-0.325-2.133-0.382c-0.7-0.149-1.052-0.587-1.051-1.314v-2.47h3.184h3.046c0.533,0,0.903,0.097,1.114,0.293
			c0.21,0.197,0.35,0.534,0.421,1.01l0.315,2.606c0.771-1.332,1.674-2.382,2.711-3.152c1.038-0.771,2.2-1.157,3.489-1.157
			C116.931,29.371,117.813,29.616,118.514,30.106z"/>
		<path fill="#FFFFFF" d="M160.764,48.861v2.472h-3.186h-5.191V37.61c0-1.373-0.3-2.407-0.902-3.1
			c-0.603-0.694-1.485-1.041-2.647-1.041c-0.533,0-1.026,0.091-1.482,0.273c-0.455,0.183-0.854,0.445-1.198,0.788
			c-0.343,0.343-0.613,0.773-0.809,1.293c-0.196,0.518-0.294,1.113-0.294,1.785v9.558c0.525,0.092,0.94,0.167,1.241,0.22
			c0.302,0.055,0.511,0.091,0.625,0.113c0.116,0.021,0.204,0.036,0.264,0.047c0.702,0.151,1.052,0.589,1.052,1.315v2.471h-3.182
			h-5.211V37.609c0-1.442-0.291-2.493-0.872-3.152c-0.583-0.658-1.44-0.987-2.574-0.987c-0.744,0-1.44,0.186-2.092,0.557
			c-0.652,0.372-1.258,0.879-1.818,1.523v11.618c0.524,0.091,0.937,0.165,1.239,0.219c0.301,0.055,0.509,0.093,0.625,0.113
			c0.114,0.021,0.203,0.036,0.263,0.047c0.701,0.151,1.052,0.589,1.052,1.314v2.472h-3.179h-5.19h-3.184v-2.472
			c0-0.727,0.35-1.163,1.052-1.314c0.062-0.011,0.149-0.026,0.264-0.047c0.115-0.021,0.324-0.059,0.626-0.113
			c0.302-0.054,0.717-0.128,1.242-0.22V33.938c-0.524-0.092-0.939-0.167-1.242-0.22c-0.303-0.055-0.512-0.092-0.626-0.113
			c-0.114-0.021-0.202-0.038-0.264-0.048c-0.702-0.149-1.052-0.587-1.052-1.314v-2.47h3.185h3.172c0.673,0,1.114,0.315,1.325,0.945
			l0.335,1.598c0.378-0.421,0.773-0.806,1.187-1.157c0.415-0.352,0.856-0.652,1.324-0.903c0.47-0.252,0.974-0.451,1.513-0.599
			c0.539-0.147,1.131-0.221,1.777-0.221c1.358,0,2.476,0.369,3.352,1.103c0.875,0.736,1.53,1.713,1.964,2.932
			c0.336-0.714,0.757-1.327,1.261-1.839c0.504-0.511,1.058-0.928,1.66-1.25c0.603-0.322,1.243-0.56,1.924-0.715
			c0.68-0.153,1.362-0.231,2.049-0.231c1.189,0,2.248,0.182,3.173,0.547c0.924,0.364,1.703,0.896,2.332,1.597
			c0.631,0.701,1.11,1.555,1.439,2.563c0.329,1.011,0.493,2.166,0.493,3.469v9.556c0.526,0.092,0.938,0.167,1.241,0.22
			c0.305,0.055,0.513,0.093,0.627,0.113c0.113,0.02,0.201,0.037,0.264,0.047C160.412,47.698,160.764,48.136,160.764,48.861z"/>
		<path fill="#FFFFFF" d="M178.051,48.861v2.471h-3.184h-5.19h-3.184v-2.471c0-0.727,0.35-1.166,1.052-1.314
			c0.061-0.011,0.148-0.026,0.264-0.047c0.114-0.022,0.324-0.06,0.627-0.113c0.303-0.055,0.717-0.128,1.241-0.22v-13.23
			c-0.524-0.093-0.938-0.167-1.241-0.22c-0.303-0.055-0.513-0.093-0.627-0.113c-0.113-0.02-0.203-0.037-0.264-0.047
			c-0.702-0.151-1.052-0.588-1.052-1.314V29.77h3.184h5.19v17.396c0.525,0.092,0.938,0.166,1.242,0.22
			c0.304,0.054,0.513,0.091,0.627,0.113c0.113,0.021,0.201,0.036,0.264,0.047C177.701,47.698,178.051,48.136,178.051,48.861z
			 M175.372,24.747c-0.183,0.393-0.423,0.736-0.726,1.03c-0.301,0.295-0.655,0.529-1.062,0.705c-0.404,0.175-0.84,0.263-1.302,0.263
			c-0.449-0.001-0.872-0.089-1.272-0.263c-0.398-0.175-0.744-0.41-1.039-0.705c-0.295-0.294-0.529-0.637-0.705-1.03
			c-0.175-0.393-0.263-0.812-0.263-1.261c0-0.462,0.088-0.896,0.263-1.302c0.176-0.408,0.41-0.758,0.705-1.051
			c0.295-0.294,0.641-0.529,1.039-0.704c0.4-0.176,0.823-0.264,1.272-0.263c0.462,0,0.896,0.087,1.302,0.263
			c0.406,0.175,0.762,0.41,1.062,0.704c0.303,0.294,0.543,0.645,0.726,1.051c0.183,0.406,0.272,0.84,0.272,1.302
			C175.646,23.935,175.555,24.354,175.372,24.747z"/>
		<path fill="#FFFFFF" d="M206.389,51.247h-2.933l-3.173,0.001c-0.336,0-0.622-0.078-0.861-0.23
			c-0.238-0.154-0.393-0.394-0.463-0.716l-0.42-1.997c-0.868,0.995-1.866,1.801-2.995,2.418c-1.127,0.616-2.448,0.924-3.961,0.924
			c-1.179,0-2.252-0.244-3.228-0.734c-0.973-0.49-1.813-1.201-2.521-2.133c-0.708-0.932-1.254-2.081-1.64-3.447
			c-0.387-1.367-0.579-2.932-0.579-4.697c0-1.611,0.218-3.104,0.651-4.477c0.435-1.372,1.055-2.564,1.859-3.573
			c0.807-1.008,1.78-1.796,2.921-2.364c1.144-0.566,2.423-0.85,3.836-0.85c1.218,0,2.253,0.185,3.101,0.556
			c0.848,0.372,1.607,0.886,2.279,1.546v-7.205c-0.524-0.093-0.938-0.166-1.24-0.22c-0.303-0.054-0.512-0.091-0.625-0.112
			c-0.115-0.022-0.203-0.038-0.266-0.049c-0.701-0.149-1.052-0.587-1.052-1.314v-2.47h3.183h5.191v27.023
			c0.449,0.08,0.807,0.144,1.072,0.191c0.267,0.049,0.451,0.081,0.554,0.101c0.104,0.019,0.188,0.034,0.253,0.045
			c0.702,0.151,1.053,0.589,1.053,1.314v2.47H206.389z M198.268,35.275c-0.588-0.729-1.23-1.236-1.925-1.522
			c-0.692-0.289-1.438-0.432-2.237-0.431c-0.783,0-1.496,0.146-2.133,0.44c-0.638,0.294-1.178,0.743-1.619,1.345
			c-0.44,0.604-0.78,1.362-1.019,2.28c-0.239,0.918-0.358,2-0.358,3.247c0,1.26,0.104,2.328,0.307,3.206
			c0.203,0.875,0.494,1.587,0.871,2.132c0.379,0.546,0.837,0.946,1.377,1.198c0.539,0.252,1.152,0.379,1.839,0.379
			c1.079,0,2-0.228,2.764-0.684c0.765-0.455,1.476-1.096,2.134-1.923V35.275L198.268,35.275z"/>
		<path fill="#FFFFFF" d="M232.396,48.818v2.472h-2.612h-0.571h-1.762c-0.489,0-0.875-0.074-1.154-0.222
			c-0.281-0.146-0.492-0.443-0.632-0.893l-0.462-1.533c-0.546,0.489-1.082,0.92-1.607,1.291c-0.523,0.371-1.066,0.684-1.629,0.937
			c-0.561,0.253-1.156,0.44-1.785,0.567c-0.633,0.127-1.332,0.188-2.103,0.188c-0.91,0-1.751-0.123-2.522-0.368
			c-0.771-0.246-1.433-0.614-1.984-1.106c-0.555-0.492-0.984-1.104-1.293-1.836c-0.309-0.729-0.463-1.581-0.463-2.55
			c0-0.814,0.215-1.62,0.642-2.414c0.428-0.794,1.138-1.51,2.133-2.15c0.995-0.64,2.319-1.171,3.972-1.592
			c1.654-0.422,3.707-0.634,6.158-0.634v-1.27c0-1.455-0.305-2.531-0.914-3.23c-0.609-0.699-1.496-1.048-2.658-1.048
			c-0.84,0-1.541,0.098-2.102,0.294c-0.561,0.197-1.048,0.417-1.461,0.662c-0.409,0.243-0.792,0.464-1.146,0.663
			c-0.35,0.196-0.734,0.294-1.154,0.293c-0.352,0.001-0.651-0.09-0.903-0.272c-0.253-0.182-0.456-0.406-0.61-0.672l-0.944-1.66
			c2.479-2.271,5.471-3.405,8.975-3.405c1.261,0,2.384,0.207,3.372,0.621c0.987,0.413,1.825,0.987,2.512,1.723
			c0.688,0.737,1.209,1.616,1.565,2.638c0.356,1.023,0.535,2.143,0.535,3.363v9.552c0.479,0.085,0.849,0.151,1.106,0.198
			c0.26,0.048,0.41,0.074,0.453,0.082C232.047,47.655,232.396,48.093,232.396,48.818z M224.719,42.149
			c-1.514,0-2.777,0.095-3.793,0.285c-1.015,0.19-1.83,0.434-2.447,0.73c-0.617,0.297-1.055,0.643-1.312,1.038
			c-0.26,0.394-0.391,0.825-0.391,1.291c0,0.918,0.271,1.574,0.811,1.969c0.539,0.396,1.242,0.593,2.111,0.593
			c0.533,0,1.023-0.048,1.472-0.146c0.449-0.096,0.872-0.24,1.272-0.434c0.396-0.194,0.783-0.431,1.154-0.714
			c0.37-0.282,0.745-0.617,1.125-1.003L224.719,42.149z"/>
		<path fill="#FFFFFF" d="M242.622,50.083c-1.011-1.06-1.515-2.519-1.515-4.383V33.658h-2.187c-0.278,0-0.521-0.091-0.726-0.272
			c-0.202-0.183-0.305-0.456-0.305-0.819v-2.061l3.469-0.568l1.093-5.883c0.056-0.281,0.187-0.498,0.389-0.652
			c0.203-0.155,0.459-0.231,0.769-0.231h2.689v6.788h5.674v3.698H246.3v11.686c0,0.673,0.168,1.198,0.505,1.577
			c0.336,0.378,0.784,0.566,1.346,0.566c0.322,0,0.591-0.037,0.809-0.115c0.217-0.077,0.406-0.157,0.566-0.241
			c0.162-0.085,0.306-0.166,0.432-0.242c0.126-0.078,0.252-0.116,0.379-0.116c0.154,0,0.279,0.038,0.378,0.116
			c0.099,0.077,0.203,0.192,0.313,0.347l1.557,2.522c-0.756,0.631-1.626,1.105-2.605,1.43c-0.979,0.321-1.996,0.482-3.047,0.482
			C245.066,51.669,243.63,51.141,242.622,50.083z"/>
		<path fill="#FFFFFF" d="M278.436,48.818v2.472h-2.611h-0.572h-1.761c-0.491,0-0.876-0.074-1.156-0.222
			c-0.28-0.146-0.489-0.443-0.63-0.893l-0.462-1.533c-0.548,0.489-1.083,0.92-1.608,1.291c-0.523,0.371-1.066,0.684-1.629,0.937
			c-0.561,0.253-1.156,0.44-1.785,0.567c-0.631,0.127-1.332,0.188-2.103,0.188c-0.91,0-1.75-0.123-2.522-0.368
			c-0.77-0.246-1.433-0.614-1.984-1.106c-0.555-0.492-0.984-1.104-1.293-1.836c-0.309-0.729-0.463-1.581-0.461-2.55
			c0-0.814,0.211-1.62,0.641-2.414c0.427-0.794,1.139-1.51,2.133-2.15c0.994-0.64,2.318-1.171,3.973-1.592
			c1.652-0.422,3.705-0.634,6.157-0.634v-1.27c0-1.455-0.306-2.531-0.915-3.23c-0.609-0.699-1.496-1.048-2.658-1.048
			c-0.84,0-1.541,0.098-2.102,0.294c-0.561,0.197-1.047,0.417-1.461,0.662c-0.409,0.243-0.791,0.464-1.146,0.663
			c-0.351,0.196-0.733,0.294-1.154,0.293c-0.35,0.001-0.652-0.09-0.903-0.272c-0.253-0.182-0.456-0.406-0.608-0.672l-0.946-1.66
			c2.479-2.271,5.472-3.405,8.974-3.405c1.26,0,2.385,0.207,3.373,0.621c0.988,0.413,1.825,0.987,2.512,1.723
			c0.688,0.737,1.209,1.616,1.565,2.638c0.356,1.023,0.536,2.143,0.536,3.363v9.552c0.479,0.085,0.848,0.151,1.107,0.198
			c0.258,0.048,0.408,0.074,0.451,0.082C278.084,47.655,278.436,48.093,278.436,48.818z M270.759,42.149
			c-1.516,0-2.778,0.095-3.795,0.285c-1.014,0.19-1.83,0.434-2.448,0.73c-0.615,0.297-1.054,0.643-1.312,1.038
			c-0.26,0.394-0.389,0.825-0.389,1.291c0,0.918,0.27,1.574,0.81,1.969c0.539,0.396,1.243,0.593,2.11,0.593
			c0.533,0,1.024-0.048,1.473-0.146c0.447-0.096,0.873-0.24,1.271-0.434s0.783-0.431,1.155-0.714
			c0.371-0.282,0.746-0.617,1.125-1.003V42.149L270.759,42.149z"/>
	</g>
	<g>
		<path fill="#FFFFFF" d="M80.663,71.432c0,0.43-0.074,0.836-0.222,1.217c-0.147,0.379-0.362,0.709-0.642,0.99
			c-0.281,0.279-0.624,0.502-1.03,0.663c-0.407,0.163-0.872,0.243-1.395,0.243c-0.953,0-1.875-0.188-2.765-0.561v-0.197v-0.182
			V71.68h0.353c0.197,0,0.302,0.117,0.313,0.352c0.001,0.021,0.005,0.109,0.013,0.266c0.007,0.157,0.018,0.354,0.029,0.587
			c0.011,0.234,0.022,0.448,0.032,0.646c0.556,0.268,1.237,0.4,2.044,0.4c0.406,0,0.771-0.062,1.089-0.187
			c0.321-0.122,0.59-0.29,0.811-0.504s0.389-0.466,0.505-0.759c0.116-0.293,0.174-0.605,0.174-0.94c0-0.363-0.074-0.661-0.222-0.896
			s-0.343-0.431-0.584-0.588c-0.242-0.156-0.518-0.289-0.826-0.396c-0.313-0.108-0.628-0.212-0.948-0.313
			c-0.326-0.101-0.642-0.214-0.949-0.34c-0.307-0.126-0.583-0.287-0.824-0.482c-0.243-0.195-0.438-0.439-0.587-0.733
			c-0.147-0.293-0.22-0.659-0.22-1.101c0-0.342,0.065-0.674,0.196-0.993c0.131-0.319,0.323-0.601,0.575-0.847
			c0.251-0.244,0.562-0.438,0.934-0.588c0.37-0.146,0.794-0.221,1.269-0.221c0.851,0,1.735,0.198,2.653,0.596v2.106h-0.353
			c-0.197,0-0.302-0.117-0.313-0.353c-0.004-0.078-0.026-0.533-0.067-1.365c-0.585-0.245-1.224-0.367-1.917-0.367
			c-0.374,0-0.702,0.052-0.986,0.158c-0.285,0.105-0.521,0.252-0.713,0.437c-0.192,0.185-0.338,0.396-0.438,0.64
			c-0.099,0.241-0.149,0.496-0.149,0.762c0,0.35,0.074,0.636,0.221,0.863c0.148,0.229,0.343,0.422,0.587,0.58
			c0.242,0.159,0.516,0.295,0.824,0.402c0.305,0.107,0.622,0.219,0.949,0.323c0.324,0.106,0.641,0.225,0.948,0.354
			c0.308,0.127,0.583,0.286,0.826,0.481c0.242,0.192,0.438,0.432,0.585,0.715C80.589,70.657,80.663,71.01,80.663,71.432z"/>
		<path fill="#FFFFFF" d="M98.474,71.449c-0.237,0.646-0.571,1.197-1.001,1.654c-0.43,0.457-0.946,0.811-1.546,1.061
			c-0.6,0.249-1.265,0.374-1.996,0.374c-0.721,0-1.382-0.125-1.982-0.374c-0.6-0.25-1.116-0.604-1.546-1.061
			c-0.43-0.457-0.766-1.008-1.005-1.654c-0.239-0.646-0.359-1.366-0.359-2.159c0-0.789,0.12-1.507,0.359-2.151
			c0.24-0.646,0.575-1.199,1.005-1.656c0.431-0.457,0.947-0.812,1.546-1.062c0.6-0.252,1.261-0.378,1.982-0.378
			c0.731,0,1.396,0.124,1.996,0.374c0.6,0.248,1.116,0.604,1.546,1.062c0.431,0.461,0.765,1.014,1.001,1.66
			c0.237,0.646,0.356,1.361,0.356,2.151C98.83,70.083,98.711,70.805,98.474,71.449z M97.764,67.359
			c-0.198-0.571-0.478-1.057-0.838-1.452c-0.36-0.396-0.795-0.701-1.303-0.911c-0.508-0.211-1.072-0.316-1.691-0.316
			c-0.61,0-1.167,0.105-1.674,0.316c-0.505,0.21-0.941,0.515-1.307,0.911c-0.364,0.396-0.647,0.881-0.848,1.452
			c-0.203,0.57-0.302,1.214-0.302,1.931c0,0.721,0.099,1.364,0.302,1.935c0.2,0.568,0.484,1.051,0.848,1.447
			c0.366,0.396,0.802,0.699,1.307,0.908c0.507,0.208,1.064,0.312,1.674,0.312c0.619,0,1.183-0.104,1.691-0.312
			c0.508-0.209,0.943-0.512,1.303-0.908c0.36-0.396,0.64-0.879,0.838-1.447c0.198-0.568,0.298-1.214,0.296-1.935
			C98.06,68.573,97.961,67.932,97.764,67.359z"/>
		<path fill="#FFFFFF" d="M114.104,72.514h0.283v1.059v0.589v0.269h-0.123h-0.129h-5.481h-1.224v-0.289
			c0-0.162,0.096-0.246,0.289-0.256c0.021-0.002,0.067-0.003,0.138-0.006c0.07-0.002,0.177-0.005,0.321-0.01
			c0.144-0.005,0.302-0.01,0.476-0.018v-9.117c-0.174-0.008-0.332-0.012-0.476-0.018c-0.145-0.006-0.251-0.008-0.321-0.011
			c-0.071-0.002-0.118-0.003-0.138-0.005c-0.192-0.01-0.289-0.094-0.289-0.256v-0.288h1.224h0.738h1.224v0.288
			c0,0.162-0.096,0.246-0.288,0.256c-0.021,0.002-0.067,0.003-0.137,0.005c-0.071,0.003-0.178,0.005-0.322,0.011
			c-0.145,0.006-0.302,0.012-0.475,0.018v9.062h4.25c0.01-0.207,0.021-0.379,0.034-0.517c0.013-0.138,0.022-0.235,0.031-0.296
			c0.007-0.061,0.013-0.1,0.013-0.119c0.012-0.234,0.117-0.352,0.313-0.352H114.104L114.104,72.514z"/>
		<path fill="#FFFFFF" d="M132.544,64.158v0.289c0,0.16-0.096,0.246-0.288,0.255c-0.021,0.002-0.068,0.003-0.138,0.005
			c-0.07,0.003-0.177,0.005-0.322,0.011c-0.144,0.005-0.302,0.011-0.476,0.019v5.772c0,0.566-0.089,1.097-0.268,1.587
			c-0.179,0.49-0.437,0.92-0.773,1.284c-0.337,0.366-0.745,0.652-1.227,0.86c-0.482,0.208-1.021,0.312-1.622,0.312
			s-1.141-0.104-1.622-0.312s-0.891-0.494-1.227-0.86c-0.337-0.364-0.594-0.794-0.773-1.284c-0.179-0.49-0.268-1.021-0.268-1.587
			v-5.772c-0.172-0.008-0.331-0.014-0.475-0.019c-0.144-0.006-0.251-0.008-0.322-0.011c-0.071-0.002-0.117-0.003-0.138-0.005
			c-0.192-0.009-0.288-0.095-0.288-0.255v-0.289h1.223h0.747h1.407v0.289c0,0.16-0.096,0.246-0.288,0.255
			c-0.02,0.002-0.081,0.004-0.184,0.005c-0.103,0.003-0.24,0.007-0.414,0.011c-0.173,0.005-0.347,0.011-0.52,0.019v5.767
			c0,0.479,0.071,0.925,0.213,1.34c0.143,0.412,0.348,0.772,0.618,1.077c0.268,0.307,0.597,0.545,0.986,0.719
			c0.39,0.174,0.832,0.262,1.325,0.262c0.493,0,0.935-0.086,1.325-0.258c0.389-0.172,0.72-0.408,0.991-0.716
			c0.272-0.304,0.478-0.663,0.621-1.077c0.142-0.414,0.215-0.859,0.215-1.34v-5.773c-0.174-0.008-0.348-0.012-0.521-0.018
			c-0.172-0.006-0.311-0.009-0.413-0.011c-0.103-0.002-0.164-0.003-0.184-0.005c-0.192-0.01-0.288-0.094-0.288-0.255v-0.289h1.406
			h0.739L132.544,64.158L132.544,64.158z"/>
		<path fill="#FFFFFF" d="M148.768,64.158v2.13h-0.353c-0.197,0-0.302-0.117-0.313-0.353c-0.001-0.024-0.02-0.408-0.058-1.147
			h-2.989v9.063c0.172,0.006,0.33,0.013,0.475,0.018c0.144,0.005,0.251,0.008,0.322,0.01c0.071,0.001,0.116,0.004,0.138,0.004
			c0.192,0.012,0.288,0.096,0.288,0.258v0.289h-1.222h-0.741h-1.222v-0.289c0-0.162,0.096-0.246,0.288-0.258
			c0.021,0,0.066-0.003,0.137-0.004c0.071-0.002,0.179-0.005,0.322-0.01c0.145-0.005,0.303-0.012,0.475-0.018v-9.063h-3.006
			c-0.032,0.666-0.051,1.048-0.056,1.147c-0.012,0.234-0.116,0.353-0.313,0.353h-0.353v-2.13h0.099h0.209h7.565h0.202H148.768z"/>
		<path fill="#FFFFFF" d="M159.945,64.707c-0.07,0.002-0.178,0.005-0.321,0.011c-0.144,0.005-0.302,0.011-0.476,0.019v9.115
			c0.172,0.008,0.33,0.014,0.476,0.019c0.144,0.005,0.251,0.008,0.321,0.01c0.07,0.001,0.117,0.004,0.14,0.004
			c0.188,0.011,0.286,0.097,0.286,0.257v0.289h-1.223H158.4h-1.223v-0.289c0-0.162,0.096-0.246,0.288-0.258
			c0.021,0,0.066-0.003,0.138-0.004c0.07-0.002,0.179-0.005,0.321-0.01c0.146-0.005,0.304-0.012,0.476-0.018v-9.117
			c-0.172-0.008-0.33-0.012-0.476-0.018c-0.144-0.006-0.251-0.009-0.321-0.011s-0.117-0.003-0.138-0.005
			c-0.192-0.01-0.288-0.094-0.288-0.256v-0.288h1.223h0.748h1.223v0.288c0,0.162-0.098,0.246-0.286,0.256
			C160.062,64.704,160.018,64.705,159.945,64.707z"/>
		<path fill="#FFFFFF" d="M178.271,71.449c-0.237,0.646-0.571,1.197-1.002,1.654c-0.432,0.457-0.947,0.811-1.547,1.061
			c-0.6,0.249-1.266,0.374-1.996,0.374c-0.721,0-1.383-0.125-1.981-0.374c-0.601-0.25-1.114-0.604-1.545-1.061
			c-0.433-0.457-0.767-1.008-1.007-1.654c-0.239-0.646-0.358-1.366-0.358-2.159c0-0.789,0.119-1.507,0.358-2.151
			c0.24-0.646,0.574-1.199,1.007-1.656c0.431-0.457,0.944-0.812,1.545-1.062c0.601-0.252,1.262-0.378,1.981-0.378
			c0.73,0,1.396,0.124,1.996,0.374c0.601,0.248,1.115,0.604,1.547,1.062c0.431,0.461,0.765,1.014,1.002,1.66
			c0.236,0.646,0.354,1.361,0.354,2.151C178.627,70.083,178.509,70.805,178.271,71.449z M177.561,67.359
			c-0.199-0.571-0.479-1.057-0.838-1.452c-0.361-0.396-0.795-0.701-1.305-0.911c-0.507-0.211-1.07-0.316-1.691-0.316
			c-0.608,0-1.166,0.105-1.672,0.316c-0.506,0.21-0.94,0.515-1.308,0.911c-0.365,0.396-0.647,0.881-0.849,1.452
			c-0.203,0.57-0.303,1.214-0.303,1.931c0,0.721,0.102,1.364,0.303,1.935c0.201,0.568,0.482,1.051,0.849,1.447
			s0.802,0.699,1.308,0.908c0.506,0.208,1.062,0.312,1.672,0.312c0.621,0,1.186-0.104,1.691-0.312
			c0.51-0.209,0.943-0.512,1.305-0.908c0.36-0.396,0.639-0.879,0.838-1.447c0.197-0.568,0.297-1.214,0.297-1.935
			C177.857,68.573,177.758,67.932,177.561,67.359z"/>
		<path fill="#FFFFFF" d="M197.309,64.158v0.289c0,0.16-0.096,0.246-0.287,0.255c-0.021,0.002-0.066,0.003-0.139,0.005
			c-0.07,0.002-0.178,0.005-0.32,0.011c-0.145,0.005-0.303,0.011-0.477,0.019v9.693h-0.355c-0.109,0-0.199-0.049-0.268-0.146
			l-6.679-8.913c0.016,0.146,0.022,0.282,0.021,0.414l0.002,8.067c0.172,0.006,0.332,0.012,0.481,0.018
			c0.147,0.005,0.261,0.008,0.338,0.01c0.076,0.001,0.125,0.004,0.146,0.004c0.19,0.012,0.287,0.096,0.287,0.258v0.289h-1.254
			h-0.646h-1.224v-0.289c0-0.162,0.096-0.246,0.287-0.258c0.021,0,0.066-0.003,0.137-0.004c0.072-0.002,0.179-0.005,0.324-0.01
			c0.144-0.005,0.301-0.012,0.476-0.018v-9.117c-0.175-0.008-0.332-0.012-0.476-0.018c-0.146-0.006-0.252-0.009-0.324-0.011
			c-0.069-0.002-0.115-0.003-0.137-0.005c-0.191-0.01-0.287-0.094-0.287-0.256v-0.288h1.224h0.362c0.066,0,0.119,0.008,0.158,0.024
			c0.039,0.018,0.08,0.055,0.125,0.112l6.647,8.897c-0.015-0.145-0.022-0.284-0.022-0.42v-8.039
			c-0.172-0.008-0.332-0.012-0.481-0.018c-0.148-0.006-0.263-0.009-0.339-0.011c-0.075-0.002-0.125-0.003-0.146-0.005
			c-0.19-0.01-0.288-0.094-0.288-0.256v-0.288h1.256h0.652h1.225V64.158z"/>
		<path fill="#FFFFFF" d="M211.805,71.432c-0.002,0.43-0.074,0.836-0.223,1.217c-0.146,0.379-0.361,0.709-0.643,0.99
			c-0.28,0.279-0.625,0.502-1.03,0.663c-0.407,0.163-0.871,0.243-1.394,0.243c-0.953,0-1.875-0.188-2.766-0.561v-0.197v-0.182V71.68
			h0.354c0.196,0,0.301,0.117,0.312,0.352c0.001,0.021,0.005,0.109,0.012,0.266c0.008,0.157,0.018,0.354,0.029,0.587
			c0.011,0.234,0.021,0.448,0.031,0.646c0.558,0.268,1.238,0.4,2.045,0.4c0.406,0,0.771-0.062,1.09-0.187
			c0.318-0.122,0.59-0.29,0.811-0.504s0.389-0.466,0.506-0.759c0.115-0.293,0.174-0.605,0.174-0.94c0-0.363-0.073-0.661-0.221-0.896
			c-0.148-0.234-0.344-0.431-0.586-0.588c-0.242-0.156-0.518-0.289-0.826-0.396c-0.312-0.108-0.627-0.212-0.946-0.313
			c-0.325-0.101-0.642-0.214-0.949-0.34s-0.582-0.287-0.825-0.482c-0.242-0.195-0.438-0.439-0.585-0.733
			c-0.147-0.293-0.221-0.659-0.221-1.101c0-0.342,0.063-0.674,0.194-0.993s0.321-0.601,0.574-0.847
			c0.252-0.244,0.563-0.438,0.935-0.588c0.372-0.146,0.795-0.221,1.269-0.221c0.852,0,1.734,0.198,2.652,0.596v2.106h-0.352
			c-0.197,0-0.303-0.117-0.312-0.353c-0.004-0.078-0.028-0.533-0.068-1.365c-0.584-0.245-1.224-0.367-1.916-0.367
			c-0.373,0-0.701,0.052-0.986,0.158c-0.284,0.105-0.521,0.252-0.713,0.437s-0.338,0.396-0.438,0.64
			c-0.101,0.242-0.147,0.496-0.147,0.762c0,0.35,0.072,0.636,0.221,0.863c0.148,0.229,0.343,0.422,0.585,0.58
			c0.243,0.159,0.518,0.295,0.825,0.402c0.306,0.107,0.623,0.219,0.947,0.323c0.325,0.106,0.643,0.225,0.949,0.354
			c0.309,0.127,0.582,0.286,0.825,0.481c0.241,0.192,0.437,0.432,0.585,0.715C211.729,70.657,211.803,71.01,211.805,71.432z"/>
		<path fill="#FFFFFF" d="M239.109,67.279c-0.002,0.508-0.084,0.974-0.254,1.396c-0.17,0.425-0.424,0.788-0.764,1.093
			c-0.339,0.307-0.763,0.543-1.271,0.711c-0.508,0.17-1.103,0.256-1.783,0.256h-1.296v2.256c0.181,0.031,0.323,0.058,0.428,0.076
			c0.104,0.018,0.177,0.031,0.216,0.037c0.039,0.008,0.069,0.014,0.092,0.018c0.242,0.052,0.363,0.203,0.363,0.454v0.854h-1.099
			h-1.953h-1.099v-0.854c0-0.251,0.119-0.402,0.361-0.454c0.021-0.004,0.053-0.01,0.092-0.018c0.039-0.006,0.11-0.02,0.215-0.037
			c0.105-0.02,0.25-0.045,0.431-0.076v-7.618c-0.181-0.032-0.324-0.058-0.431-0.077c-0.104-0.02-0.176-0.031-0.215-0.039
			c-0.039-0.007-0.07-0.012-0.092-0.016c-0.242-0.053-0.363-0.204-0.361-0.454v-0.854h1.099h3.247c0.703,0,1.311,0.084,1.822,0.248
			c0.514,0.163,0.937,0.395,1.271,0.688c0.334,0.296,0.58,0.648,0.74,1.061C239.029,66.34,239.107,66.79,239.109,67.279z
			 M237.157,67.279c0-0.28-0.044-0.535-0.132-0.764c-0.088-0.228-0.219-0.42-0.393-0.58c-0.175-0.16-0.395-0.281-0.66-0.367
			c-0.266-0.084-0.578-0.127-0.938-0.127h-1.294v3.768h1.294c0.359,0,0.672-0.044,0.938-0.134c0.266-0.091,0.485-0.218,0.66-0.386
			c0.174-0.166,0.305-0.369,0.393-0.608S237.157,67.573,237.157,67.279z"/>
		<path fill="#FFFFFF" d="M260.002,65.256c-0.04,0.008-0.111,0.021-0.217,0.04s-0.247,0.044-0.43,0.076v7.618
			c0.183,0.031,0.324,0.058,0.43,0.076c0.105,0.018,0.177,0.031,0.217,0.037c0.039,0.008,0.07,0.014,0.091,0.018
			c0.242,0.052,0.363,0.203,0.363,0.455v0.854h-1.101h-1.721h-1.309v-0.854c0-0.252,0.121-0.403,0.361-0.455
			c0.029-0.005,0.346-0.049,0.946-0.131v-5.34c0-0.127,0.005-0.267,0.013-0.416c0.006-0.148,0.018-0.301,0.031-0.457l-3.173,5.953
			c-0.071,0.136-0.165,0.24-0.282,0.315c-0.115,0.074-0.25,0.111-0.406,0.111h-0.269c-0.155,0-0.291-0.037-0.407-0.111
			c-0.115-0.075-0.209-0.181-0.283-0.315l-3.215-5.975c0.02,0.159,0.032,0.314,0.041,0.469c0.008,0.152,0.012,0.293,0.012,0.426
			v5.34c0.602,0.082,0.916,0.126,0.945,0.131c0.241,0.052,0.361,0.203,0.361,0.454v0.854h-1.309h-1.721h-1.1v-0.854
			c-0.001-0.251,0.121-0.402,0.363-0.454c0.021-0.004,0.051-0.01,0.091-0.018c0.039-0.006,0.11-0.02,0.216-0.037
			c0.104-0.02,0.248-0.045,0.43-0.076v-7.618c-0.182-0.032-0.324-0.058-0.43-0.076s-0.177-0.032-0.216-0.04
			c-0.04-0.007-0.07-0.012-0.091-0.016c-0.242-0.053-0.364-0.204-0.363-0.454v-0.854h1.1h1.475c0.084,0,0.158,0.004,0.224,0.008
			c0.065,0.006,0.12,0.018,0.171,0.037c0.053,0.019,0.1,0.051,0.143,0.094s0.084,0.103,0.123,0.175l3.137,5.829
			c0.082,0.156,0.158,0.316,0.229,0.482c0.069,0.164,0.14,0.332,0.207,0.504c0.067-0.172,0.139-0.345,0.211-0.517
			c0.072-0.169,0.148-0.331,0.231-0.485l3.106-5.813c0.039-0.072,0.078-0.132,0.119-0.175s0.088-0.075,0.139-0.094
			c0.052-0.021,0.107-0.033,0.17-0.037c0.064-0.006,0.14-0.008,0.227-0.008h1.473h1.101v0.854c0,0.25-0.121,0.401-0.362,0.454
			C260.072,65.244,260.041,65.249,260.002,65.256z"/>
		<path fill="#FFFFFF" d="M276.014,63.934v1.01v0.543v1.205h-0.062h-0.179h-0.597c-0.187,0-0.299-0.09-0.338-0.271
			c-0.021-0.113-0.055-0.424-0.104-0.936h-3.373v2.912h3.55v1.502h-3.55v2.969h3.371c0.053-0.51,0.088-0.821,0.106-0.934
			c0.039-0.182,0.152-0.271,0.338-0.271h0.597h0.179h0.062v1.204v0.543v1.019h-6.619h-1.1v-0.854
			c-0.002-0.251,0.12-0.402,0.362-0.454c0.021-0.004,0.052-0.009,0.091-0.017s0.111-0.021,0.217-0.039
			c0.104-0.019,0.248-0.045,0.43-0.075V65.37c-0.182-0.031-0.324-0.058-0.43-0.076s-0.178-0.03-0.217-0.039
			c-0.039-0.007-0.068-0.012-0.091-0.016c-0.242-0.054-0.362-0.204-0.362-0.454v-0.854h1.1h6.619V63.934z"/>
	</g>
	<rect x="290.027" y="19.626" fill="#FFFFFF" width="3.152" height="55.748"/>
</g>
</svg>
